<?xml version="1.0" encoding="UTF-8" standalone="no"?>
<!-- Created with Inkscape (http://www.inkscape.org/) -->

<svg
   width="1920"
   height="1080"
   viewBox="0 0 1920 1080"
   version="1.1"
   id="svg1"
   xml:space="preserve"
   inkscape:version="1.4 (86a8ad7, 2024-10-11)"
   sodipodi:docname="wallpaper.svg"
   xmlns:inkscape="http://www.inkscape.org/namespaces/inkscape"
   xmlns:sodipodi="http://sodipodi.sourceforge.net/DTD/sodipodi-0.dtd"
   xmlns:xlink="http://www.w3.org/1999/xlink"
   xmlns="http://www.w3.org/2000/svg"
   xmlns:svg="http://www.w3.org/2000/svg"
   xmlns:rdf="http://www.w3.org/1999/02/22-rdf-syntax-ns#"
   xmlns:cc="http://creativecommons.org/ns#"><sodipodi:namedview
     id="namedview1"
     pagecolor="#030303"
     bordercolor="#ffffff"
     borderopacity="1"
     inkscape:showpageshadow="0"
     inkscape:pageopacity="0"
     inkscape:pagecheckerboard="true"
     inkscape:deskcolor="#505050"
     inkscape:document-units="px"
     inkscape:zoom="0.37361111"
     inkscape:cx="1086.6915"
     inkscape:cy="740.07435"
     inkscape:window-width="1743"
     inkscape:window-height="969"
     inkscape:window-x="49"
     inkscape:window-y="1"
     inkscape:window-maximized="0"
     inkscape:current-layer="layer1"
     inkscape:export-bgcolor="#000000ff"
     showgrid="false" /><defs
     id="defs1"><linearGradient
       id="linearGradient46"
       inkscape:collect="always"><stop
         style="stop-color:#3c7902;stop-opacity:1;"
         offset="0"
         id="stop46" /><stop
         style="stop-color:#3c7902;stop-opacity:0;"
         offset="1"
         id="stop47" /></linearGradient><linearGradient
       id="linearGradient3961"><stop
         id="stop3963"
         offset="0"
         style="stop-color:#cecece;stop-opacity:0.7019608;" /><stop
         id="stop3965"
         offset="1"
         style="stop-color:#1d1d1d;stop-opacity:0;" /></linearGradient><linearGradient
       inkscape:collect="always"
       id="linearGradient3944"><stop
         style="stop-color:#ffffff;stop-opacity:1;"
         offset="0"
         id="stop3946" /><stop
         style="stop-color:#ffffff;stop-opacity:0;"
         offset="1"
         id="stop3948" /></linearGradient><inkscape:perspective
       sodipodi:type="inkscape:persp3d"
       inkscape:vp_x="0 : 526.18109 : 1"
       inkscape:vp_y="0 : 1000 : 0"
       inkscape:vp_z="744.09448 : 526.18109 : 1"
       inkscape:persp3d-origin="372.04724 : 350.78739 : 1"
       id="perspective10" /><inkscape:perspective
       id="perspective2467"
       inkscape:persp3d-origin="372.04724 : 350.78739 : 1"
       inkscape:vp_z="744.09448 : 526.18109 : 1"
       inkscape:vp_y="0 : 1000 : 0"
       inkscape:vp_x="0 : 526.18109 : 1"
       sodipodi:type="inkscape:persp3d" /><inkscape:perspective
       id="perspective2551"
       inkscape:persp3d-origin="372.04724 : 350.78739 : 1"
       inkscape:vp_z="744.09448 : 526.18109 : 1"
       inkscape:vp_y="0 : 1000 : 0"
       inkscape:vp_x="0 : 526.18109 : 1"
       sodipodi:type="inkscape:persp3d" /><inkscape:perspective
       id="perspective2620"
       inkscape:persp3d-origin="372.04724 : 350.78739 : 1"
       inkscape:vp_z="744.09448 : 526.18109 : 1"
       inkscape:vp_y="0 : 1000 : 0"
       inkscape:vp_x="0 : 526.18109 : 1"
       sodipodi:type="inkscape:persp3d" /><radialGradient
       r="20.94858"
       fy="48.682281"
       fx="48.163013"
       cy="48.682281"
       cx="48.163013"
       gradientTransform="matrix(2.7090143,0,0,1.777877,-82.311282,-29.594925)"
       gradientUnits="userSpaceOnUse"
       id="radialGradient4114"
       xlink:href="#linearGradient3721"
       inkscape:collect="always" /><radialGradient
       r="8.7228374"
       fy="56.326168"
       fx="48.163013"
       cy="56.326168"
       cx="48.163013"
       gradientTransform="matrix(6.5059086,-4.8416477e-7,3.1727796e-7,4.2633863,-265.18116,-183.18401)"
       gradientUnits="userSpaceOnUse"
       id="radialGradient4112"
       xlink:href="#linearGradient3711"
       inkscape:collect="always" /><radialGradient
       r="20.946276"
       fy="66.789909"
       fx="48.325523"
       cy="66.789909"
       cx="48.325523"
       gradientTransform="matrix(2.7074415,0,0,1.7779105,-82.513005,-61.49156)"
       gradientUnits="userSpaceOnUse"
       id="radialGradient4110"
       xlink:href="#linearGradient3681"
       inkscape:collect="always" /><radialGradient
       r="20.94858"
       fy="48.682281"
       fx="48.163013"
       cy="48.682281"
       cx="48.163013"
       gradientTransform="matrix(2.7090143,0,0,1.777877,-82.311282,-29.594925)"
       gradientUnits="userSpaceOnUse"
       id="radialGradient4085"
       xlink:href="#linearGradient3721"
       inkscape:collect="always" /><radialGradient
       r="8.7228374"
       fy="56.326168"
       fx="48.163013"
       cy="56.326168"
       cx="48.163013"
       gradientTransform="matrix(6.5059086,-4.8416477e-7,3.1727796e-7,4.2633863,-265.18116,-183.18401)"
       gradientUnits="userSpaceOnUse"
       id="radialGradient4083"
       xlink:href="#linearGradient3711"
       inkscape:collect="always" /><radialGradient
       r="20.946276"
       fy="66.789909"
       fx="48.325523"
       cy="66.789909"
       cx="48.325523"
       gradientTransform="matrix(2.7074415,0,0,1.7779105,-82.513005,-61.49156)"
       gradientUnits="userSpaceOnUse"
       id="radialGradient4081"
       xlink:href="#linearGradient3681"
       inkscape:collect="always" /><radialGradient
       gradientUnits="userSpaceOnUse"
       gradientTransform="matrix(1.1641006,-0.698131,0.5272518,0.8791673,-155.13848,131.83364)"
       r="175.045"
       fy="215.69891"
       fx="256.7764"
       cy="215.69891"
       cx="256.7764"
       id="radialGradient3818"
       xlink:href="#linearGradient3812"
       inkscape:collect="always" /><linearGradient
       gradientUnits="userSpaceOnUse"
       y2="-58.519997"
       x2="67.5"
       y1="77.230003"
       x1="141"
       id="linearGradient3802"
       xlink:href="#linearGradient3790"
       inkscape:collect="always" /><radialGradient
       gradientUnits="userSpaceOnUse"
       gradientTransform="matrix(0.6604906,-0.2313727,0.2966736,0.8469022,22.75866,34.794226)"
       r="191.25"
       fy="145.1391"
       fx="156.59937"
       cy="145.1391"
       cx="156.59937"
       id="radialGradient3798"
       xlink:href="#linearGradient3790"
       inkscape:collect="always" /><mask
       id="mask3768"
       maskUnits="userSpaceOnUse"><rect
         transform="translate(6.8942911,3.1819806)"
         mask="url(#mask3732)"
         y="9.2979126"
         x="-9.7343292"
         height="115.96552"
         width="123.56692"
         id="rect3770"
         style="opacity:0.45;fill:#ffffff;fill-opacity:1;stroke:#0a2a49;stroke-width:0;stroke-linejoin:bevel;stroke-miterlimit:4;stroke-dasharray:none;stroke-dashoffset:0;stroke-opacity:1" /></mask><mask
       id="mask3732"
       maskUnits="userSpaceOnUse"><ellipse
         style="opacity:0.2;fill:url(#radialGradient3736);fill-opacity:1;stroke:#0a2a49;stroke-width:0;stroke-linejoin:bevel;stroke-miterlimit:4;stroke-dasharray:none;stroke-dashoffset:0;stroke-opacity:1"
         id="path3734"
         transform="rotate(15.334185,-99.982281,111.11358)"
         cx="28.814602"
         cy="47.025661"
         rx="59.750523"
         ry="28.461048" /></mask><radialGradient
       r="59.750523"
       fy="47.025661"
       fx="28.814602"
       cy="47.025661"
       cx="28.814602"
       gradientTransform="matrix(1,0,0,0.4763314,0,24.625864)"
       gradientUnits="userSpaceOnUse"
       id="radialGradient3736"
       xlink:href="#linearGradient3436"
       inkscape:collect="always" /><radialGradient
       gradientUnits="userSpaceOnUse"
       gradientTransform="matrix(2.7090143,0,0,1.777877,-82.311282,-29.594925)"
       r="20.94858"
       fy="48.682281"
       fx="48.163013"
       cy="48.682281"
       cx="48.163013"
       id="radialGradient3727"
       xlink:href="#linearGradient3721"
       inkscape:collect="always" /><radialGradient
       gradientUnits="userSpaceOnUse"
       gradientTransform="matrix(6.5059086,-4.8416477e-7,3.1727796e-7,4.2633863,-265.18116,-183.18401)"
       r="8.7228374"
       fy="56.326168"
       fx="48.163013"
       cy="56.326168"
       cx="48.163013"
       id="radialGradient3717"
       xlink:href="#linearGradient3711"
       inkscape:collect="always" /><radialGradient
       gradientUnits="userSpaceOnUse"
       gradientTransform="matrix(2.7074415,0,0,1.7779105,-82.513005,-61.49156)"
       r="20.946276"
       fy="66.789909"
       fx="48.325523"
       cy="66.789909"
       cx="48.325523"
       id="radialGradient3689"
       xlink:href="#linearGradient3681"
       inkscape:collect="always" /><inkscape:perspective
       sodipodi:type="inkscape:persp3d"
       inkscape:vp_x="0 : 526.18109 : 1"
       inkscape:vp_y="0 : 1000 : 0"
       inkscape:vp_z="744.09448 : 526.18109 : 1"
       inkscape:persp3d-origin="372.04724 : 350.78739 : 1"
       id="perspective2552" /><inkscape:perspective
       id="perspective2486"
       inkscape:persp3d-origin="123.5 : 40 : 1"
       inkscape:vp_z="247 : 60 : 1"
       inkscape:vp_y="0 : 1000 : 0"
       inkscape:vp_x="0 : 60 : 1"
       sodipodi:type="inkscape:persp3d" /><linearGradient
       id="linearGradient3436"><stop
         id="stop3438"
         offset="0"
         style="stop-color:#ffffff;stop-opacity:1;" /><stop
         id="stop3440"
         offset="1"
         style="stop-color:#232323;stop-opacity:1;" /></linearGradient><linearGradient
       id="linearGradient3681"><stop
         id="stop3683"
         offset="0"
         style="stop-color:#16314d;stop-opacity:1;" /><stop
         id="stop3685"
         offset="1"
         style="stop-color:#639ad2;stop-opacity:0;" /></linearGradient><linearGradient
       id="linearGradient3711"><stop
         id="stop3713"
         offset="0"
         style="stop-color:#2b689d;stop-opacity:1;" /><stop
         id="stop3715"
         offset="1"
         style="stop-color:#b4d1ea;stop-opacity:0;" /></linearGradient><linearGradient
       id="linearGradient3721"><stop
         id="stop3723"
         offset="0"
         style="stop-color:#0d1e2f;stop-opacity:1;" /><stop
         id="stop3725"
         offset="1"
         style="stop-color:#23507b;stop-opacity:0;" /></linearGradient><linearGradient
       id="linearGradient3790"><stop
         id="stop3792"
         offset="0"
         style="stop-color:#ffffff;stop-opacity:0.75;" /><stop
         id="stop3794"
         offset="1"
         style="stop-color:#ffffff;stop-opacity:0;" /></linearGradient><linearGradient
       id="linearGradient3812"><stop
         id="stop3814"
         offset="0"
         style="stop-color:#eff7ff;stop-opacity:0.68103451;" /><stop
         id="stop3816"
         offset="1"
         style="stop-color:#84c5ff;stop-opacity:0;" /></linearGradient><radialGradient
       inkscape:collect="always"
       xlink:href="#linearGradient3944"
       id="radialGradient3873"
       cx="68.983086"
       cy="759.005"
       fx="68.983086"
       fy="759.005"
       r="102.92188"
       gradientTransform="matrix(1.588885,1.7298087e-7,-1.6502933e-7,1.5158476,-40.622979,-396.54036)"
       gradientUnits="userSpaceOnUse" /><radialGradient
       inkscape:collect="always"
       xlink:href="#linearGradient3944"
       id="radialGradient3881"
       cx="305.6767"
       cy="797.10925"
       fx="305.6767"
       fy="797.10925"
       r="58.5"
       gradientTransform="matrix(1.8979134,-6.5811966e-7,7.483111e-7,2.1580113,-302.14848,-977.79557)"
       gradientUnits="userSpaceOnUse" /><radialGradient
       inkscape:collect="always"
       xlink:href="#linearGradient3944"
       id="radialGradient3889"
       cx="464.79211"
       cy="779.32928"
       fx="464.79211"
       fy="779.32928"
       r="81.871712"
       gradientTransform="matrix(1.9148575,-1.0258939e-7,1.1452177e-7,2.1375785,-417.20523,-903.80925)"
       gradientUnits="userSpaceOnUse" /><radialGradient
       inkscape:collect="always"
       xlink:href="#linearGradient3944"
       id="radialGradient3897"
       cx="630"
       cy="783.375"
       fx="630"
       fy="783.375"
       r="58.5"
       gradientTransform="matrix(2,-6.8290597e-7,9.4608072e-7,2.7707496,-630.00074,-1432.1605)"
       gradientUnits="userSpaceOnUse" /><radialGradient
       inkscape:collect="always"
       xlink:href="#linearGradient3944"
       id="radialGradient3917"
       cx="157.17903"
       cy="381.11575"
       fx="157.17903"
       fy="381.11575"
       r="339.0625"
       gradientTransform="matrix(1,0,0,1.050046,-3.9478493e-8,-34.842923)"
       gradientUnits="userSpaceOnUse" /><radialGradient
       inkscape:collect="always"
       xlink:href="#linearGradient3944"
       id="radialGradient3950"
       cx="48.964226"
       cy="227.86153"
       fx="48.964226"
       fy="227.86153"
       r="316.49905"
       gradientTransform="matrix(1.5771369,0.1627626,-0.1404739,1.3611679,3.7495622,62.528925)"
       gradientUnits="userSpaceOnUse" /><radialGradient
       inkscape:collect="always"
       xlink:href="#linearGradient3961"
       id="radialGradient3959"
       gradientUnits="userSpaceOnUse"
       gradientTransform="matrix(1.5771369,0.1627626,-0.1404739,1.3611679,3.7495622,62.528925)"
       cx="155.51503"
       cy="244.80551"
       fx="155.51503"
       fy="244.80551"
       r="316.49905" /><radialGradient
       inkscape:collect="always"
       xlink:href="#linearGradient3961"
       id="radialGradient3973"
       gradientUnits="userSpaceOnUse"
       gradientTransform="matrix(1.5771369,0.1627626,-0.1404739,1.3611679,-23.616283,-231.9365)"
       cx="64.214752"
       cy="240.88037"
       fx="64.214752"
       fy="240.88037"
       r="316.49905" /><linearGradient
       inkscape:collect="always"
       xlink:href="#linearGradient3961"
       id="linearGradient4074"
       x1="22.27808"
       y1="86.1875"
       x2="610.83752"
       y2="243.85612"
       gradientUnits="userSpaceOnUse"
       gradientTransform="translate(27.365845,292.4652)" /><inkscape:perspective
       sodipodi:type="inkscape:persp3d"
       inkscape:vp_x="0 : 526.18109 : 1"
       inkscape:vp_y="0 : 1000 : 0"
       inkscape:vp_z="744.09448 : 526.18109 : 1"
       inkscape:persp3d-origin="372.04724 : 350.78739 : 1"
       id="perspective10-8" /><inkscape:perspective
       id="perspective2467-2"
       inkscape:persp3d-origin="372.04724 : 350.78739 : 1"
       inkscape:vp_z="744.09448 : 526.18109 : 1"
       inkscape:vp_y="0 : 1000 : 0"
       inkscape:vp_x="0 : 526.18109 : 1"
       sodipodi:type="inkscape:persp3d" /><inkscape:perspective
       id="perspective2551-4"
       inkscape:persp3d-origin="372.04724 : 350.78739 : 1"
       inkscape:vp_z="744.09448 : 526.18109 : 1"
       inkscape:vp_y="0 : 1000 : 0"
       inkscape:vp_x="0 : 526.18109 : 1"
       sodipodi:type="inkscape:persp3d" /><inkscape:perspective
       id="perspective2620-5"
       inkscape:persp3d-origin="372.04724 : 350.78739 : 1"
       inkscape:vp_z="744.09448 : 526.18109 : 1"
       inkscape:vp_y="0 : 1000 : 0"
       inkscape:vp_x="0 : 526.18109 : 1"
       sodipodi:type="inkscape:persp3d" /><radialGradient
       r="20.94858"
       fy="48.682281"
       fx="48.163013"
       cy="48.682281"
       cx="48.163013"
       gradientTransform="matrix(2.7090143,0,0,1.777877,-82.311282,-29.594925)"
       gradientUnits="userSpaceOnUse"
       id="radialGradient4114-5"
       xlink:href="#linearGradient3721"
       inkscape:collect="always" /><radialGradient
       r="8.7228374"
       fy="56.326168"
       fx="48.163013"
       cy="56.326168"
       cx="48.163013"
       gradientTransform="matrix(6.5059086,-4.8416477e-7,3.1727796e-7,4.2633863,-265.18116,-183.18401)"
       gradientUnits="userSpaceOnUse"
       id="radialGradient4112-1"
       xlink:href="#linearGradient3711"
       inkscape:collect="always" /><radialGradient
       r="20.946276"
       fy="66.789909"
       fx="48.325523"
       cy="66.789909"
       cx="48.325523"
       gradientTransform="matrix(2.7074415,0,0,1.7779105,-82.513005,-61.49156)"
       gradientUnits="userSpaceOnUse"
       id="radialGradient4110-7"
       xlink:href="#linearGradient3681"
       inkscape:collect="always" /><radialGradient
       r="20.94858"
       fy="48.682281"
       fx="48.163013"
       cy="48.682281"
       cx="48.163013"
       gradientTransform="matrix(2.7090143,0,0,1.777877,-82.311282,-29.594925)"
       gradientUnits="userSpaceOnUse"
       id="radialGradient4085-1"
       xlink:href="#linearGradient3721"
       inkscape:collect="always" /><radialGradient
       r="8.7228374"
       fy="56.326168"
       fx="48.163013"
       cy="56.326168"
       cx="48.163013"
       gradientTransform="matrix(6.5059086,-4.8416477e-7,3.1727796e-7,4.2633863,-265.18116,-183.18401)"
       gradientUnits="userSpaceOnUse"
       id="radialGradient4083-1"
       xlink:href="#linearGradient3711"
       inkscape:collect="always" /><radialGradient
       r="20.946276"
       fy="66.789909"
       fx="48.325523"
       cy="66.789909"
       cx="48.325523"
       gradientTransform="matrix(2.7074415,0,0,1.7779105,-82.513005,-61.49156)"
       gradientUnits="userSpaceOnUse"
       id="radialGradient4081-5"
       xlink:href="#linearGradient3681"
       inkscape:collect="always" /><radialGradient
       gradientUnits="userSpaceOnUse"
       gradientTransform="matrix(1.1641006,-0.698131,0.5272518,0.8791673,-155.13848,131.83364)"
       r="175.045"
       fy="215.69891"
       fx="256.7764"
       cy="215.69891"
       cx="256.7764"
       id="radialGradient3818-2"
       xlink:href="#linearGradient3812"
       inkscape:collect="always" /><radialGradient
       gradientUnits="userSpaceOnUse"
       gradientTransform="matrix(0.6604906,-0.2313727,0.2966736,0.8469022,22.75866,34.794226)"
       r="191.25"
       fy="145.1391"
       fx="156.59937"
       cy="145.1391"
       cx="156.59937"
       id="radialGradient3798-7"
       xlink:href="#linearGradient3790"
       inkscape:collect="always" /><mask
       id="mask3768-6"
       maskUnits="userSpaceOnUse"><rect
         transform="translate(6.8942911,3.1819806)"
         mask="url(#mask3732-4)"
         y="9.2979126"
         x="-9.7343292"
         height="115.96552"
         width="123.56692"
         id="rect3770-1"
         style="opacity:0.45;fill:#ffffff;fill-opacity:1;stroke:#0a2a49;stroke-width:0;stroke-linejoin:bevel;stroke-miterlimit:4;stroke-dasharray:none;stroke-dashoffset:0;stroke-opacity:1" /></mask><mask
       id="mask3732-4"
       maskUnits="userSpaceOnUse"><ellipse
         style="opacity:0.2;fill:url(#radialGradient3736-3);fill-opacity:1;stroke:#0a2a49;stroke-width:0;stroke-linejoin:bevel;stroke-miterlimit:4;stroke-dasharray:none;stroke-dashoffset:0;stroke-opacity:1"
         id="path3734-2"
         transform="rotate(15.334185,-99.982281,111.11358)"
         cx="28.814602"
         cy="47.025661"
         rx="59.750523"
         ry="28.461048" /></mask><radialGradient
       r="59.750523"
       fy="47.025661"
       fx="28.814602"
       cy="47.025661"
       cx="28.814602"
       gradientTransform="matrix(1,0,0,0.4763314,0,24.625864)"
       gradientUnits="userSpaceOnUse"
       id="radialGradient3736-3"
       xlink:href="#linearGradient3436"
       inkscape:collect="always" /><radialGradient
       gradientUnits="userSpaceOnUse"
       gradientTransform="matrix(2.7090143,0,0,1.777877,-82.311282,-29.594925)"
       r="20.94858"
       fy="48.682281"
       fx="48.163013"
       cy="48.682281"
       cx="48.163013"
       id="radialGradient3727-2"
       xlink:href="#linearGradient3721"
       inkscape:collect="always" /><radialGradient
       gradientUnits="userSpaceOnUse"
       gradientTransform="matrix(6.5059086,-4.8416477e-7,3.1727796e-7,4.2633863,-265.18116,-183.18401)"
       r="8.7228374"
       fy="56.326168"
       fx="48.163013"
       cy="56.326168"
       cx="48.163013"
       id="radialGradient3717-2"
       xlink:href="#linearGradient3711"
       inkscape:collect="always" /><radialGradient
       gradientUnits="userSpaceOnUse"
       gradientTransform="matrix(2.7074415,0,0,1.7779105,-82.513005,-61.49156)"
       r="20.946276"
       fy="66.789909"
       fx="48.325523"
       cy="66.789909"
       cx="48.325523"
       id="radialGradient3689-1"
       xlink:href="#linearGradient3681"
       inkscape:collect="always" /><inkscape:perspective
       sodipodi:type="inkscape:persp3d"
       inkscape:vp_x="0 : 526.18109 : 1"
       inkscape:vp_y="0 : 1000 : 0"
       inkscape:vp_z="744.09448 : 526.18109 : 1"
       inkscape:persp3d-origin="372.04724 : 350.78739 : 1"
       id="perspective2552-6" /><inkscape:perspective
       id="perspective2486-8"
       inkscape:persp3d-origin="123.5 : 40 : 1"
       inkscape:vp_z="247 : 60 : 1"
       inkscape:vp_y="0 : 1000 : 0"
       inkscape:vp_x="0 : 60 : 1"
       sodipodi:type="inkscape:persp3d" /><radialGradient
       inkscape:collect="always"
       xlink:href="#linearGradient3944"
       id="radialGradient3873-1"
       cx="68.983086"
       cy="759.005"
       fx="68.983086"
       fy="759.005"
       r="102.92188"
       gradientTransform="matrix(1.588885,1.7298087e-7,-1.6502933e-7,1.5158476,-40.622979,-396.54036)"
       gradientUnits="userSpaceOnUse" /><radialGradient
       inkscape:collect="always"
       xlink:href="#linearGradient3944"
       id="radialGradient3881-2"
       cx="305.6767"
       cy="797.10925"
       fx="305.6767"
       fy="797.10925"
       r="58.5"
       gradientTransform="matrix(1.8979134,-6.5811966e-7,7.483111e-7,2.1580113,-302.14848,-977.79557)"
       gradientUnits="userSpaceOnUse" /><radialGradient
       inkscape:collect="always"
       xlink:href="#linearGradient3944"
       id="radialGradient3889-3"
       cx="464.79211"
       cy="779.32928"
       fx="464.79211"
       fy="779.32928"
       r="81.871712"
       gradientTransform="matrix(1.9148575,-1.0258939e-7,1.1452177e-7,2.1375785,-417.20523,-903.80925)"
       gradientUnits="userSpaceOnUse" /><radialGradient
       inkscape:collect="always"
       xlink:href="#linearGradient3944"
       id="radialGradient3897-3"
       cx="630"
       cy="783.375"
       fx="630"
       fy="783.375"
       r="58.5"
       gradientTransform="matrix(2,-6.8290597e-7,9.4608072e-7,2.7707496,-630.00074,-1432.1605)"
       gradientUnits="userSpaceOnUse" /><radialGradient
       inkscape:collect="always"
       xlink:href="#linearGradient3944"
       id="radialGradient3917-4"
       cx="157.17903"
       cy="381.11575"
       fx="157.17903"
       fy="381.11575"
       r="339.0625"
       gradientTransform="matrix(1,0,0,1.050046,-3.9478493e-8,-34.842923)"
       gradientUnits="userSpaceOnUse" /><radialGradient
       inkscape:collect="always"
       xlink:href="#linearGradient3944"
       id="radialGradient3950-1"
       cx="48.964226"
       cy="227.86153"
       fx="48.964226"
       fy="227.86153"
       r="316.49905"
       gradientTransform="matrix(1.5771369,0.1627626,-0.1404739,1.3611679,3.7495622,62.528925)"
       gradientUnits="userSpaceOnUse" /><radialGradient
       inkscape:collect="always"
       xlink:href="#linearGradient3961"
       id="radialGradient3959-1"
       gradientUnits="userSpaceOnUse"
       gradientTransform="matrix(1.5771369,0.1627626,-0.1404739,1.3611679,3.7495622,62.528925)"
       cx="155.51503"
       cy="244.80551"
       fx="155.51503"
       fy="244.80551"
       r="316.49905" /><radialGradient
       inkscape:collect="always"
       xlink:href="#linearGradient3961"
       id="radialGradient3973-3"
       gradientUnits="userSpaceOnUse"
       gradientTransform="matrix(1.5771369,0.1627626,-0.1404739,1.3611679,-23.616283,-231.9365)"
       cx="64.214752"
       cy="240.88037"
       fx="64.214752"
       fy="240.88037"
       r="316.49905" /><linearGradient
       inkscape:collect="always"
       xlink:href="#linearGradient46"
       id="linearGradient47"
       x1="1001.0409"
       y1="1102.751"
       x2="998.36432"
       y2="615.6134"
       gradientUnits="userSpaceOnUse"
       gradientTransform="matrix(0.93506494,0,0,0.78354975,41.712932,164.26785)" /></defs><g
     inkscape:label="Layer 1"
     inkscape:groupmode="layer"
     id="layer1"><rect
       style="fill:#070c0f;stroke-width:0.857703"
       id="rect1"
       width="1926.2711"
       height="1084.015"
       x="-6.1639099"
       y="5.353158" /><rect
       style="fill:url(#linearGradient47);fill-opacity:1;stroke-width:0.817903"
       id="rect44"
       width="1914.6237"
       height="484.46094"
       x="4.1712899"
       y="594.20068"
       ry="0" /><path
       style="fill:#52a302;stroke-width:0.167286"
       d=""
       id="path5" /><path
       style="fill:#52a302;stroke-width:0.167286"
       d=""
       id="path7" /><path
       style="fill:#52a302;stroke-width:0.473157"
       d=""
       id="path12" /><g
       id="g35"
       transform="matrix(0.53010389,0,0,0.53010389,801.31004,444.97868)"><g
         inkscape:label="Layer 1"
         id="layer1-8"
         transform="translate(-35.477954,-382.24677)" /><g
         id="layer2"
         inkscape:label="Big X"
         transform="translate(-35.477954,-382.24677)"><g
           inkscape:groupmode="layer"
           id="layer3"
           inkscape:label="X_Shadow" /><g
           inkscape:groupmode="layer"
           id="layer4"
           inkscape:label="X_Path" /><g
           inkscape:groupmode="layer"
           id="layer14"
           inkscape:label="X_Gloss" /></g><g
         id="layer5"
         inkscape:label="Xfce"
         transform="translate(-35.477954,-382.24677)"><g
           inkscape:groupmode="layer"
           id="layer7"
           inkscape:label="Xfce_Shadow" /><g
           inkscape:groupmode="layer"
           id="layer6"
           inkscape:label="Xfce_Path" /><g
           inkscape:groupmode="layer"
           id="layer13"
           inkscape:label="Xfce_Gloss" /></g><g
         id="layer8"
         inkscape:label="Mouse"
         transform="translate(-35.477954,-382.24677)"><g
           inkscape:groupmode="layer"
           id="layer12"
           inkscape:label="Mouse_Shadow" /><g
           inkscape:groupmode="layer"
           id="layer10"
           inkscape:label="Mouse_Path"><path
             inkscape:connector-curvature="0"
             d="m 686.01129,438.94339 c -3.353,-2.77349 -29.64674,38.71236 -23.83256,43.01749 3.49603,2.61546 25.33033,-41.53853 23.83256,-43.01749 z"
             id="path13"
             style="fill:none;fill-opacity:1;fill-rule:evenodd;stroke:#000000;stroke-width:3.77953;stroke-linecap:butt;stroke-linejoin:miter;stroke-miterlimit:4;stroke-dasharray:none;stroke-opacity:1"
             inkscape:export-filename="/home/knome/Stuff/xubuntu-mouse-draft-2.png"
             inkscape:export-xdpi="1026.8827"
             inkscape:export-ydpi="1026.8827" /><path
             inkscape:connector-curvature="0"
             d="m 655.78463,433.1306 c -1.65949,-1.92678 -10.46548,42.78039 -6.39371,44.75985 3.49601,2.61546 9.58499,-42.43418 6.39371,-44.75985 z"
             id="path18"
             style="fill:none;fill-opacity:1;fill-rule:evenodd;stroke:#000000;stroke-width:3.77953;stroke-linecap:butt;stroke-linejoin:miter;stroke-miterlimit:4;stroke-dasharray:none;stroke-opacity:1"
             inkscape:export-filename="/home/knome/Stuff/xubuntu-mouse-draft-2.png"
             inkscape:export-xdpi="1026.8827"
             inkscape:export-ydpi="1026.8827" /><path
             inkscape:connector-curvature="0"
             style="fill:none;fill-opacity:1;fill-rule:evenodd;stroke:#000000;stroke-width:3.77953;stroke-linecap:butt;stroke-linejoin:miter;stroke-miterlimit:4;stroke-dasharray:none;stroke-opacity:1"
             d="m 37.625,384.15853 c -3.443355,1.88538 27.552632,22.09367 85.46875,45.9375 57.91987,23.84382 137.92965,84.27698 131.65625,94.03125 -18.81237,26.49691 -29.90817,58.18792 -22.25,112.46875 1.38111,9.55483 -28.31634,26.14558 -26.15625,40.5625 1.80637,10.9698 33.19295,-10.87512 36.625,-6.5625 2.0999,7.74098 -16.79186,46.91895 -9.15625,49.71875 5.58462,1.6596 54.67873,-46.58659 57.53125,-45.78125 80.96219,24.47603 186.3041,5.99395 188.34375,5.21875 -0.19196,-0.42524 75.80178,35.72642 82.40625,31.40625 16.65983,-18.04093 -31.57326,-43.46801 -23.53125,-53.625 3.52614,-5.31744 58.74796,19.9643 61.46875,13.0625 3.95898,-11.94824 -25.64187,-37.03634 -30.09375,-44.46875 -3.87242,-6.85285 -4.71239,-17.9194 5.21875,-24.84375 9.9349,-6.92434 111.50996,-45.77552 107.25,-75.84375 -7.36468,-54.63458 -128.82052,-58.18257 -130.78125,-62.78125 -0.92191,-2.1601 5.3446,-78.12685 -30.09375,-64.09375 -21.81925,8.12105 -4.00496,56.52301 -2.59375,62.78125 1.30204,5.7615 -9.70773,5.15389 -11.78125,2.625 -4.6287,-5.65237 -19.9116,-56.10291 -37.9375,-47.09375 -25.28137,13.939 -1.48853,57.43256 -6.53125,58.84375 -9.36668,5.23466 -8.83606,18.02087 -16.34375,28.4375 -12.38092,17.74363 -105.021,-8.31111 -134.96875,-10.125 -21.92462,-1.29455 -42.8956,16.69428 -44.875,14.40625 -26.69638,-26.73399 -81.9285,-73.2869 -142.4375,-88.75 C 90.129469,410.48114 39.649614,383.81985 37.625,384.15853 Z m 529.46875,102.21875 c 5.78951,-10e-6 10.46875,5.34579 10.46875,11.9375 2e-5,6.59167 -4.67924,11.9375 -10.46875,11.9375 -5.78954,0 -10.5,-5.34583 -10.5,-11.9375 10e-6,-6.59171 4.71046,-11.9375 10.5,-11.9375 z m -23.53125,7.25 c 4.45553,19.23387 11.41036,25.36339 32.28125,24.75 -26.56462,24.35939 -42.70923,-17.37781 -32.28125,-24.75 z M 601,543.90853 c 1.08692,0.0412 1.92367,0.28894 2.46875,0.8125 10.46545,3.79336 -44.97502,23.75615 -45.34375,20.9375 -0.57648,-2.01216 32.36808,-22.14821 42.875,-21.75 z m 5.625,12.78125 c 0.57282,-0.0444 1.07711,0.032 1.5,0.25 9.87845,9.8145 -31.27532,31.57642 -30.8125,30.8125 -3.31635,-2.00393 20.72016,-30.39586 29.3125,-31.0625 z"
             id="path14" /></g><g
           inkscape:groupmode="layer"
           id="layer15"
           inkscape:label="Mouse_Gloss" /></g></g><path
       style="fill:#52a302;stroke-width:0.236578"
       d="m 1037.762,569.81275 c -0.6836,-0.39817 -0.4932,-1.30053 0.4731,-2.24265 2.5896,-2.5246 13.3764,-8.50339 18.3007,-10.14351 2.0375,-0.67861 4.4606,-1.01571 5.4736,-0.76147 0.8949,0.22461 1.8354,1.22961 1.8354,1.96129 0,0.9779 -1.8607,2.602 -4.6175,4.03042 -4.7589,2.46584 -13.6147,5.85217 -18.1438,6.93795 -2.2077,0.52929 -2.7284,0.56345 -3.3215,0.21797 z m 13.7807,-5.94651 c 5.6841,-2.29915 10.1304,-4.64829 9.8024,-5.17902 -0.3853,-0.62339 -4.4942,0.61131 -8.8383,2.65586 -2.6143,1.23045 -8.7241,4.639 -9.7175,5.42127 -0.7223,0.56876 4.2626,-1.08164 8.7534,-2.89811 z"
       id="path37" /><path
       style="fill:#52a302;stroke-width:0.236578"
       d="m 1047.6758,581.22798 c -0.2153,-0.23795 -0.3915,-0.66683 -0.3915,-0.95306 0,-2.81614 9.9026,-13.96885 14.3967,-16.214 1.5975,-0.7981 2.282,-0.90922 3.2107,-0.5212 1.6714,0.69836 2.0053,2.71367 0.8371,5.05154 -1.4246,2.85091 -7.0036,7.41458 -13.8801,11.35417 -1.6466,0.94335 -3.1711,1.71519 -3.3876,1.71519 -0.2166,0 -0.5699,-0.19469 -0.7853,-0.43264 z m 5.1006,-4.20628 c 4.9628,-2.99762 9.3388,-6.54804 10.8121,-8.77223 0.819,-1.23656 1.0292,-2.91277 0.3651,-2.91277 -1.1602,0 -5.1229,3.06578 -8.1264,6.28702 -2.5009,2.68231 -5.7312,6.7248 -5.3735,6.7248 0.069,0 1.1145,-0.59707 2.3227,-1.32682 z"
       id="path38" /><path
       style="fill:#52a302;stroke-width:0.236578"
       d="m 1036.2429,548.33226 c -3.1272,-1.16043 -5.6961,-3.94664 -7.2545,-7.86838 -0.8935,-2.24862 -1.1749,-3.81584 -1.0526,-5.86286 0.1247,-2.08645 0.6801,-3.35906 1.9542,-4.47776 1.0413,-0.91423 1.2576,-0.92862 1.442,-0.0959 0.9333,4.21413 2.5325,7.86933 4.188,9.57278 2.3385,2.40609 4.2835,3.0172 10.1764,3.19723 2.3145,0.0707 4.1776,0.2054 4.1401,0.2993 -0.1288,0.32265 -2.8771,2.61658 -4.1357,3.45202 -2.4081,1.59838 -3.7661,2.07931 -6.1053,2.16214 -1.6556,0.0586 -2.4014,-0.0256 -3.3526,-0.37858 z m 5.6001,-2.05389 c 0.5855,-0.18904 1.3611,-0.53937 1.7236,-0.77852 l 0.6591,-0.43482 -2.0773,-0.2906 c -6.1498,-0.86031 -9.3897,-3.58055 -11.5766,-9.71977 l -0.5478,-1.53776 -0.01,1.79054 c -0.011,3.95948 2.3953,8.57459 5.3839,10.32605 2.1418,1.25519 3.9796,1.43922 6.4401,0.64488 z"
       id="path39" /><path
       style="fill:#52a302;stroke-width:0.236578"
       d="m 1040.8967,540.1879 c -1.294,-0.40592 -3.3881,-2.64381 -3.9201,-4.18926 -0.605,-1.75735 -0.5711,-4.25317 0.078,-5.71991 1.6521,-3.73487 5.8254,-5.30606 8.9547,-3.37134 2.3552,1.4561 3.553,3.97957 3.3529,7.06389 -0.2954,4.55232 -4.3287,7.5143 -8.4652,6.21662 z m 3.9673,-2.23474 c 1.4383,-0.65911 2.4794,-2.63293 2.4794,-4.70079 0,-4.56018 -4.3572,-6.8252 -7.2812,-3.78499 -1.8831,1.95787 -2.0589,4.9796 -0.4183,7.18905 1.3458,1.81244 3.1284,2.25526 5.2201,1.29673 z"
       id="path40" /><path
       style="fill:#52a302;stroke-width:0.0836431"
       d="m 1093.9717,522.77317 c 0.332,-2.55014 3.426,-8.75507 7.0802,-14.19932 1.277,-1.90249 3.0326,-4.23839 3.1199,-4.15109 0.1411,0.14109 -3.8825,8.38291 -5.6762,11.62705 -1.7836,3.22594 -3.4976,5.95536 -4.2723,6.80335 l -0.3056,0.33457 z"
       id="path41" /><path
       style="fill:#52a302;stroke-width:0.0836431"
       d="m 1087.0221,518.79647 c 0.1905,-3.35142 0.9666,-8.66341 1.9698,-13.48235 0.1849,-0.88838 0.3549,-1.65287 0.3777,-1.69888 0.1598,-0.32235 -0.2147,4.0534 -0.5941,6.94238 -0.5022,3.82439 -1.4513,8.83818 -1.7258,9.1171 -0.054,0.0549 -0.063,-0.24703 -0.028,-0.87825 z"
       id="path42" /><path
       style="fill:#52a302;stroke-width:0.0836431"
       d="m 1086.3312,523.45117 c -1.2668,-0.45897 -1.5754,-2.32927 -1.1405,-6.91306 0.5973,-6.29657 2.6406,-16.43397 3.6644,-18.18108 0.5144,-0.87764 1.4681,-0.94109 2.0509,-0.13646 0.4511,0.62273 0.5537,1.32574 0.5491,3.76363 0,2.26393 -0.084,3.49818 -0.4202,6.52417 -0.6861,6.1726 -1.7573,11.63809 -2.6639,13.592 -0.3384,0.72939 -0.655,1.10869 -1.0906,1.30654 -0.3881,0.17628 -0.5624,0.18441 -0.9492,0.0443 z m 1.3622,-6.53667 c 0.6678,-3.34679 1.2005,-7.09398 1.5041,-10.58085 0.2188,-2.51152 0.2276,-2.63584 0.1841,-2.59245 -0.083,0.0828 -0.8866,4.17573 -1.2562,6.39821 -0.6244,3.75396 -1.0676,7.4608 -1.0493,8.77505 l 0.01,0.59298 0.1209,-0.3764 c 0.066,-0.20701 0.2861,-1.20446 0.4881,-2.21654 z"
       id="path43" /><path
       style="fill:#3c7902;stroke-width:0.0836431"
       d="m 1092.8698,525.49473 c -1.6698,-1.01819 -1.1496,-4.12705 1.6155,-9.65459 3.1602,-6.31754 7.9557,-13.26252 10.1748,-14.73556 0.8598,-0.57073 1.8199,-0.49684 2.2331,0.17185 0.2392,0.38693 0.2121,0.97793 -0.087,1.91327 -0.8793,2.74498 -4.1409,9.54188 -7.1081,14.81268 -2.5433,4.51773 -4.2964,6.95388 -5.3824,7.47961 -0.4596,0.22249 -1.0922,0.22807 -1.4454,0.0127 z m 1.9185,-3.42129 c 1.5853,-2.20494 3.8646,-6.20732 6.2484,-10.97214 1.4936,-2.9854 3.1364,-6.51 3.0668,-6.57961 -0.044,-0.0441 -1.02,1.21787 -1.9769,2.55613 -3.815,5.33539 -7.4856,12.33697 -8.0668,15.38707 l -0.1163,0.61066 0.1915,-0.17995 c 0.1054,-0.099 0.3994,-0.46895 0.6533,-0.82216 z"
       id="path44" /><path
       style="fill:#52a302;stroke-width:0.236578"
       d="m 865.81845,651.89649 c -1.04746,-0.37504 -1.53131,-1.51081 -1.4999,-3.52074 0.0358,-2.28961 0.60327,-4.6036 3.04601,-12.42037 2.02522,-6.48072 2.71263,-9.01426 2.71894,-10.02109 0.003,-0.4897 -0.0761,-0.53863 -0.6471,-0.39999 -0.35782,0.0869 -1.92811,0.67625 -3.48953,1.30973 -1.56142,0.63348 -4.01001,1.62761 -5.44131,2.20917 -4.95063,2.01153 -7.40142,2.25203 -8.94,0.87731 -0.68989,-0.61642 -0.75471,-0.80359 -0.83399,-2.40819 -0.16887,-3.41818 1.32689,-5.91521 7.29134,-12.17214 4.32263,-4.53461 6.0591,-6.63456 6.31177,-7.63297 0.0869,-0.34342 -0.0205,-2.22131 -0.2387,-4.17308 -0.99569,-8.90663 -1.10352,-18.2934 -0.28398,-24.72245 1.45956,-11.44982 4.70901,-20.28854 11.06863,-30.10743 1.60429,-2.47694 1.64062,-2.5664 1.3384,-3.29603 -1.37259,-3.3137 -10.41116,-11.52072 -21.90607,-19.89068 -15.52363,-11.30346 -32.39399,-21.1289 -46.68269,-27.18841 -12.66139,-5.36941 -20.70168,-9.04794 -27.83687,-12.73572 -11.05954,-5.71606 -18.17881,-10.38113 -18.63869,-12.21345 -0.097,-0.38632 -0.0112,-0.82043 0.23694,-1.19912 0.31981,-0.48809 0.52426,-0.57161 1.15051,-0.46998 0.41887,0.068 4.4805,1.85075 9.02586,3.96174 18.67955,8.67528 27.40706,12.14809 38.39051,15.27615 8.4512,2.40689 14.89978,4.94204 23.10393,9.08292 10.63655,5.36858 20.43331,11.65817 30.99178,19.89695 6.19978,4.83769 15.29882,12.78704 19.01246,16.61018 l 1.0325,1.06295 5.00025,-2.53625 c 7.92685,-4.02067 12.88257,-5.41394 18.2881,-5.14157 3.00555,0.15145 8.01295,0.89264 16.40276,2.42794 17.00096,3.1111 20.31546,3.69215 25.36575,4.44669 8.2523,1.23295 12.52254,1.62623 17.69154,1.62935 5.0824,0.003 7.4287,-0.34141 9.5105,-1.39634 1.7977,-0.91094 3.0047,-2.88058 4.9505,-8.07847 1.5766,-4.21152 2.279,-5.46451 4.0522,-7.22825 l 1.6178,-1.60918 -1.1884,-4.89673 c -1.7069,-7.03306 -1.9927,-8.86381 -1.9833,-12.70382 0.01,-3.85334 0.4976,-6.11653 1.8355,-8.50889 0.9944,-1.77821 3.0308,-3.84478 4.6933,-4.76287 1.6757,-0.9254 4.1948,-0.97591 5.9356,-0.11902 3.6164,1.78019 7.5367,7.31351 11.6404,16.42971 3.8889,8.63897 3.9811,8.81274 4.8346,9.1103 1.5389,0.53645 3.5462,0.19091 3.5462,-0.61047 0,-0.2311 -0.5331,-2.28309 -1.1847,-4.55999 -2.2544,-7.87765 -3.2236,-13.93578 -3.0067,-18.79358 0.194,-4.34603 1.166,-7.19265 3.1609,-9.25725 2.5507,-2.63981 7.622,-3.76312 11.0851,-2.45536 2.1383,0.80751 4.226,2.99533 5.6333,5.90354 2.4966,5.15902 3.52,11.29625 3.8555,23.1195 0.1409,4.96611 0.2133,5.74649 0.5417,5.83903 0.77,0.21705 3.1471,0.6242 9.8421,1.68575 19.0247,3.01656 31.3753,6.37903 40.8094,11.11045 8.379,4.20221 13.4634,8.82654 16.3341,14.85593 1.781,3.74091 2.2755,7.0772 1.4492,9.77826 -0.838,2.7392 -2.0036,4.4182 -5.4809,7.8955 -7.0736,7.07366 -18.6119,13.96302 -40.8098,24.36708 -9.0779,4.25479 -10.6989,5.11722 -11.9247,6.34428 -1.7911,1.793 -2.27,3.02592 -2.27,5.84499 0,3.40464 0.5149,4.35581 4.992,9.22168 6.5491,7.11779 8.732,9.77996 10.5336,12.84652 1.9429,3.3073 2.3769,6.50193 1.0617,7.81593 -0.5871,0.5865 -0.7631,0.62727 -2.5759,0.5966 -2.4558,-0.0416 -5.0174,-0.71465 -15.2194,-3.99916 -8.1219,-2.61484 -11.3387,-3.53165 -13.3077,-3.79286 -1.0225,-0.13563 -1.1837,-0.0993 -1.2675,0.2861 -0.2866,1.31706 1.1342,3.35582 6.0781,8.72173 2.0381,2.21201 4.2749,4.77417 4.9708,5.69369 3.3158,4.38144 4.3535,7.95826 3.2014,11.03537 -0.6597,1.76187 -1.716,2.96977 -2.7701,3.16751 -3.168,0.59432 -16.314,-4.39913 -40.5041,-15.38532 l -2.9328,-1.33195 -2.8634,0.48013 c -6.3157,1.05903 -17.0912,2.21903 -26.8761,2.89327 -5.9512,0.41007 -28.38723,0.41012 -33.59415,8e-5 -13.74387,-1.08233 -24.53726,-2.81564 -34.0244,-5.46399 l -2.44117,-0.68146 -1.10751,0.83568 c -1.33249,1.00545 -2.37786,1.90716 -10.32932,8.90982 -11.78252,10.37659 -16.39799,14.00036 -18.33958,14.39905 -0.32529,0.0668 -0.86215,0.0245 -1.19302,-0.0939 z m 3.08706,-3.30112 c 2.50931,-1.72863 5.63724,-4.34199 15.33262,-12.81027 9.75389,-8.51939 11.46147,-9.87875 12.41344,-9.88203 0.36258,-10e-4 2.75794,0.5232 5.32302,1.16544 14.67849,3.67521 28.94389,5.22141 48.14804,5.21869 14.37517,-0.002 29.02907,-1.0671 41.44737,-3.01243 2.212,-0.34651 4.3977,-0.62071 4.8571,-0.60932 0.5281,0.0131 3.5733,1.23879 8.2803,3.33284 18.733,8.33401 28.8541,12.32179 33.1844,13.07481 1.8959,0.3297 2.2571,0.13389 2.9108,-1.5777 0.8611,-2.25485 -0.1143,-5.43878 -2.7211,-8.88236 -0.6519,-0.86105 -2.7076,-3.2534 -4.5684,-5.31633 -5.044,-5.59208 -5.2596,-5.85845 -6.2179,-7.68204 -0.7646,-1.45514 -0.8696,-1.84154 -0.773,-2.84662 0.075,-0.77951 0.2926,-1.3554 0.6602,-1.74667 1.2145,-1.29278 4.6035,-0.62742 16.9081,3.31945 8.4611,2.71405 11.8397,3.61895 13.8686,3.71453 l 1.509,0.0711 -0.033,-1.24122 c -0.044,-1.69859 -1.209,-4.07095 -3.4553,-7.03903 -1.7255,-2.27988 -2.6413,-3.33851 -8.8893,-10.27508 -1.5742,-1.74774 -3.1828,-3.77916 -3.5746,-4.51426 -1.8891,-3.54422 -1.8702,-7.40533 0.052,-10.60501 1.5929,-2.65189 2.9813,-3.54075 12.7653,-8.1722 9.1086,-4.31178 18.1396,-8.8478 22.8411,-11.47243 12.7315,-7.10754 20.7041,-13.5939 23.1628,-18.84475 1.3929,-2.97481 0.6444,-7.43124 -1.9536,-11.63068 -1.6579,-2.67979 -5.4772,-6.40865 -8.8594,-8.64951 -4.6407,-3.07477 -11.5262,-6.12731 -18.8079,-8.33822 -6.9565,-2.11212 -13.5769,-3.52638 -27.0883,-5.78658 -9.2098,-1.54064 -10.8703,-1.90873 -11.3798,-2.52269 -0.2434,-0.29331 -0.3916,-2.2549 -0.6041,-7.99773 -0.1548,-4.18501 -0.4487,-8.894 -0.653,-10.46442 -1.0737,-8.25285 -3.6397,-13.77437 -7.203,-15.49934 -2.0306,-0.983 -5.4872,-0.55936 -7.8892,0.96687 -2.4257,1.54134 -3.4806,4.07326 -3.6748,8.81993 -0.1931,4.72037 0.5626,9.50763 2.7937,17.69776 1.5779,5.79229 1.6149,6.1003 0.8426,7.0182 -0.9104,1.08191 -1.7502,1.33666 -4.0144,1.21782 -3.177,-0.16675 -3.255,-0.26231 -7.0137,-8.59089 -4.5649,-10.11526 -8.0638,-15.36386 -11.3532,-17.03075 -2.0506,-1.03913 -3.8795,-0.62136 -6.0368,1.37897 -2.4957,2.31424 -3.5331,5.36788 -3.5086,10.32877 0.016,3.2897 0.3372,5.36505 1.7405,11.25366 0.5251,2.2031 1.0193,4.7192 1.0982,5.59132 l 0.1435,1.58566 -1.5967,1.48742 c -1.7862,1.66394 -2.4809,2.87052 -4.2655,7.40858 -2.1542,5.4778 -3.3966,7.33487 -5.7441,8.58608 -2.581,1.37564 -3.9494,1.57559 -10.8171,1.58054 -3.5904,0.003 -7.1851,-0.12205 -8.63509,-0.29939 -7.58649,-0.92789 -15.83094,-2.25639 -29.6906,-4.78433 -19.43729,-3.54526 -22.26786,-3.81391 -27.4431,-2.60457 -2.97471,0.69512 -5.04997,1.52062 -10.77766,4.28717 -3.16281,1.52767 -5.62001,2.57469 -6.03276,2.57057 -0.56765,-0.006 -1.37429,-0.6462 -4.36336,-3.46485 -15.38059,-14.5037 -30.77583,-25.66302 -46.48767,-33.69685 -8.13713,-4.1607 -13.9824,-6.50487 -22.88011,-9.17577 -12.54422,-3.7655 -19.0419,-6.27964 -34.60846,-13.39099 -8.06442,-3.68412 -8.23959,-3.7556 -6.6242,-2.70338 6.76809,4.40856 19.00827,10.47558 35.36849,17.5309 15.09889,6.51137 24.55085,11.5237 37.97084,20.13576 7.50584,4.81674 16.75755,11.49751 23.18469,16.74193 4.10863,3.35256 10.59716,9.77177 11.91051,11.78327 1.60551,2.45897 1.46917,3.10635 -1.70085,8.07585 -5.23026,8.19928 -8.36286,17.02985 -9.77725,27.5614 -0.6595,4.91059 -0.59112,16.95984 0.13153,23.17729 0.302,2.59829 0.49484,5.12863 0.42853,5.62297 -0.21552,1.60683 -1.17206,2.82198 -8.18446,10.39723 -3.01911,3.26144 -4.81704,5.81711 -5.34639,7.59962 -0.47064,1.58482 -0.44924,1.96225 0.14492,2.55641 0.91163,0.91163 2.91042,0.39715 10.29325,-2.64945 5.3506,-2.20798 6.59271,-2.55103 7.65035,-2.11295 1.85808,0.76964 1.66179,2.25186 -1.77068,13.3706 -1.85158,5.99782 -2.58361,8.84081 -2.84318,11.04215 -0.26609,2.25658 0.047,2.33831 2.49552,0.65153 z"
       id="path36" /></g><metadata
     id="metadata1"><rdf:RDF><cc:Work
         rdf:about=""><cc:license
           rdf:resource="http://creativecommons.org/licenses/by-sa/4.0/" /></cc:Work><cc:License
         rdf:about="http://creativecommons.org/licenses/by-sa/4.0/"><cc:permits
           rdf:resource="http://creativecommons.org/ns#Reproduction" /><cc:permits
           rdf:resource="http://creativecommons.org/ns#Distribution" /><cc:requires
           rdf:resource="http://creativecommons.org/ns#Notice" /><cc:requires
           rdf:resource="http://creativecommons.org/ns#Attribution" /><cc:permits
           rdf:resource="http://creativecommons.org/ns#DerivativeWorks" /><cc:requires
           rdf:resource="http://creativecommons.org/ns#ShareAlike" /></cc:License></rdf:RDF></metadata></svg>
