<?xml version="1.0" encoding="UTF-8" standalone="no"?>
<!-- Created with Inkscape (http://www.inkscape.org/) -->

<svg
   width="1920"
   height="1080"
   viewBox="0 0 1920 1080"
   version="1.1"
   id="svg1"
   inkscape:version="1.4 (e7c3feb, 2024-10-09)"
   sodipodi:docname="xfce-flat-export.svg"
   inkscape:export-filename="xfce-wall/xfce-2.png"
   inkscape:export-xdpi="96"
   inkscape:export-ydpi="96"
   xmlns:inkscape="http://www.inkscape.org/namespaces/inkscape"
   xmlns:sodipodi="http://sodipodi.sourceforge.net/DTD/sodipodi-0.dtd"
   xmlns:xlink="http://www.w3.org/1999/xlink"
   xmlns="http://www.w3.org/2000/svg"
   xmlns:svg="http://www.w3.org/2000/svg">
  <sodipodi:namedview
     id="namedview1"
     pagecolor="#ffffff"
     bordercolor="#000000"
     borderopacity="0.25"
     inkscape:showpageshadow="2"
     inkscape:pageopacity="0.0"
     inkscape:pagecheckerboard="0"
     inkscape:deskcolor="#d1d1d1"
     inkscape:document-units="px"
     showguides="true"
     inkscape:zoom="0.3421875"
     inkscape:cx="232.32877"
     inkscape:cy="666.30137"
     inkscape:window-width="1920"
     inkscape:window-height="992"
     inkscape:window-x="0"
     inkscape:window-y="0"
     inkscape:window-maximized="1"
     inkscape:current-layer="layer1"
     showgrid="false" />
  <defs
     id="defs1">
    <linearGradient
       id="linearGradient20"
       inkscape:collect="always">
      <stop
         style="stop-color:#753390;stop-opacity:1"
         offset="0"
         id="stop19" />
      <stop
         style="stop-color:#471d57;stop-opacity:1"
         offset="1"
         id="stop20" />
    </linearGradient>
    <linearGradient
       id="linearGradient17"
       inkscape:collect="always">
      <stop
         style="stop-color:#003445;stop-opacity:1;"
         offset="0"
         id="stop17" />
      <stop
         style="stop-color:#d4ade2;stop-opacity:0.44320118;"
         offset="1"
         id="stop18" />
    </linearGradient>
    <radialGradient
       inkscape:collect="always"
       xlink:href="#linearGradient20"
       id="radialGradient85"
       gradientUnits="userSpaceOnUse"
       gradientTransform="matrix(8.2317291,-0.03255593,0.0444968,7.0746606,-1209.3597,1018.8479)"
       cx="267.71844"
       cy="-12.985022"
       fx="267.71844"
       fy="-12.985022"
       r="149.3065" />
    <radialGradient
       inkscape:collect="always"
       xlink:href="#linearGradient17"
       id="radialGradient86"
       gradientUnits="userSpaceOnUse"
       gradientTransform="matrix(1,0,0,0.5625,1.9648438e-4,236.24997)"
       cx="960"
       cy="540"
       fx="960"
       fy="540"
       r="960" />
  </defs>
  <g
     inkscape:label="Layer 1"
     inkscape:groupmode="layer"
     id="layer1">
    <path
       inkscape:connector-curvature="0"
       d="m 2564.7539,1298.2264 c -1.1869,-0.9817 -10.4944,13.7033 -8.436,15.2272 1.2375,0.9258 8.9662,-14.7036 8.436,-15.2272 z"
       id="path1"
       style="fill:#f1f3f5;fill-opacity:1;fill-rule:evenodd;stroke:none;stroke-width:0.0028471pt;stroke-linecap:butt;stroke-linejoin:miter;stroke-opacity:1"
       inkscape:export-filename="/home/knome/Stuff/xubuntu-mouse-draft-2.png"
       inkscape:export-xdpi="1026.8827"
       inkscape:export-ydpi="1026.8827" />
    <path
       inkscape:connector-curvature="0"
       d="m 2554.0542,1296.1689 c -0.5872,-0.6821 -3.7043,15.1432 -2.263,15.8439 1.2375,0.9258 3.3929,-15.0207 2.263,-15.8439 z"
       id="path2"
       style="fill:#f1f3f5;fill-opacity:1;fill-rule:evenodd;stroke:none;stroke-width:0.0028471pt;stroke-linecap:butt;stroke-linejoin:miter;stroke-opacity:1"
       inkscape:export-filename="/home/knome/Stuff/xubuntu-mouse-draft-2.png"
       inkscape:export-xdpi="1026.8827"
       inkscape:export-ydpi="1026.8827" />
    <rect
       style="fill:url(#radialGradient85);fill-opacity:1;stroke:url(#radialGradient86);stroke-width:1.52686"
       id="rect85"
       width="1920"
       height="1080"
       x="0"
       y="0" />
    <g
       id="g171">
      <path
         d="M 341.84571,0 H 0 V 1080 H 445.4375 C 597.57082,978.77097 730.57627,855.64699 800.88281,713.4668 884.17355,545.0288 702.15803,277.93796 557.0918,158.50391 493.24034,105.93455 420.23405,51.462722 341.84571,0 Z"
         style="opacity:0.73;fill:#00abdf;fill-opacity:1"
         id="path92" />
      <path
         d="M 1676.8535,1080 C 1694.8334,931.4971 1559.8083,734.76514 1447.9141,639.08008 1233.9545,456.11504 904.79311,245.22514 623.56445,258.08398 454.50735,265.81392 323.27413,525.64828 292.33203,692.0293 270.77549,807.94256 255.30051,943.81249 255.48437,1080 Z"
         style="fill:#006888;stroke:none;stroke-width:1.52686;fill-opacity:1;opacity:0.73"
         id="path98" />
      <path
         d="M 1468.8711,0 H 159.03516 c -46.48632,214.06758 -60.136361,447.57884 15.85156,623.17969 66.57609,153.851 353.33835,184.06655 518.30273,154.24609 C 967.60982,727.81906 1335.6153,607.29114 1501.8848,383.41211 1572.2398,288.68032 1534.8687,130.23284 1468.8711,0 Z"
         style="fill:#00aade;stroke:none;stroke-width:1.52686;fill-opacity:1;opacity:0.65"
         id="path95" />
    </g>
    <g
       id="g37"
       transform="matrix(0.23513862,0,0,0.23513862,468.7115,472.85414)"
       style="fill:#f1f3f5;fill-opacity:1">
      <g
         inkscape:label="Layer 1"
         id="g5"
         transform="translate(-37.365845,-384.15533)"
         style="fill:#f1f3f5;fill-opacity:1" />
      <g
         id="g9"
         inkscape:label="Big X"
         transform="translate(-37.365845,-384.15533)"
         style="fill:#f1f3f5;fill-opacity:1">
        <g
           inkscape:groupmode="layer"
           id="g6"
           inkscape:label="X_Shadow"
           style="fill:#f1f3f5;fill-opacity:1" />
        <g
           inkscape:groupmode="layer"
           id="g7"
           inkscape:label="X_Path"
           style="fill:#f1f3f5;fill-opacity:1" />
        <g
           inkscape:groupmode="layer"
           id="g8"
           inkscape:label="X_Gloss"
           style="fill:#f1f3f5;fill-opacity:1" />
      </g>
      <g
         id="g13"
         inkscape:label="Xfce"
         transform="translate(-37.365845,-384.15533)"
         style="fill:#f1f3f5;fill-opacity:1">
        <g
           inkscape:groupmode="layer"
           id="g10"
           inkscape:label="Xfce_Shadow"
           style="fill:#f1f3f5;fill-opacity:1" />
        <g
           inkscape:groupmode="layer"
           id="g11"
           inkscape:label="Xfce_Path"
           style="fill:#f1f3f5;fill-opacity:1" />
        <g
           inkscape:groupmode="layer"
           id="g12"
           inkscape:label="Xfce_Gloss"
           style="fill:#f1f3f5;fill-opacity:1" />
      </g>
      <g
         id="g32"
         inkscape:label="Mouse"
         transform="translate(-37.365845,-384.15533)"
         style="fill:#f1f3f5;fill-opacity:1">
        <g
           inkscape:groupmode="layer"
           id="g14"
           inkscape:label="Mouse_Shadow"
           style="fill:#f1f3f5;fill-opacity:1" />
        <g
           inkscape:groupmode="layer"
           id="g20"
           inkscape:label="Mouse_Path"
           style="fill:#f1f3f5;fill-opacity:1">
          <g
             id="g38"
             transform="translate(89.993711,165.77789)"
             style="fill:#f1f3f5;fill-opacity:1">
            <path
               inkscape:connector-curvature="0"
               d="m 686.01129,438.94339 c -3.353,-2.77349 -29.64674,38.71236 -23.83256,43.01749 3.49603,2.61546 25.33033,-41.53853 23.83256,-43.01749 z"
               id="path15"
               style="fill:#f1f3f5;fill-opacity:1;fill-rule:evenodd;stroke:none;stroke-width:0.00804317pt;stroke-linecap:butt;stroke-linejoin:miter;stroke-opacity:1"
               inkscape:export-filename="/home/knome/Stuff/xubuntu-mouse-draft-2.png"
               inkscape:export-xdpi="1026.8827"
               inkscape:export-ydpi="1026.8827" />
            <path
               inkscape:connector-curvature="0"
               d="m 655.78463,433.1306 c -1.65949,-1.92678 -10.46548,42.78039 -6.39371,44.75985 3.49601,2.61546 9.58499,-42.43418 6.39371,-44.75985 z"
               id="path16"
               style="fill:#f1f3f5;fill-opacity:1;fill-rule:evenodd;stroke:none;stroke-width:0.00804317pt;stroke-linecap:butt;stroke-linejoin:miter;stroke-opacity:1"
               inkscape:export-filename="/home/knome/Stuff/xubuntu-mouse-draft-2.png"
               inkscape:export-xdpi="1026.8827"
               inkscape:export-ydpi="1026.8827" />
            <path
               inkscape:connector-curvature="0"
               style="fill:#f1f3f5;fill-opacity:1;fill-rule:evenodd;stroke:none;stroke-width:0.0134053pt;stroke-linecap:butt;stroke-linejoin:miter;stroke-opacity:1"
               d="m 37.625,400.93526 c -3.443355,1.88538 27.552632,22.09367 85.46875,45.9375 57.91987,23.84382 137.92965,84.27698 131.65625,94.03125 -18.81237,26.49691 -29.90817,58.18792 -22.25,112.46875 1.38111,9.55483 -28.31634,26.14558 -26.15625,40.5625 1.80637,10.9698 33.19295,-10.87512 36.625,-6.5625 2.0999,7.74098 -16.79186,46.91895 -9.15625,49.71875 5.58462,1.6596 54.67873,-46.58659 57.53125,-45.78125 80.96219,24.47603 186.3041,5.99395 188.34375,5.21875 -0.19196,-0.42524 75.80178,35.72642 82.40625,31.40625 16.65983,-18.04093 -31.57326,-43.46801 -23.53125,-53.625 3.52614,-5.31744 58.74796,19.9643 61.46875,13.0625 3.95898,-11.94824 -25.64187,-37.03634 -30.09375,-44.46875 -3.87242,-6.85285 -4.71239,-17.9194 5.21875,-24.84375 9.9349,-6.92434 111.50996,-45.77552 107.25,-75.84375 -7.36468,-54.63458 -128.82052,-58.18257 -130.78125,-62.78125 -0.92191,-2.1601 5.3446,-78.12685 -30.09375,-64.09375 -21.81925,8.12105 -4.00496,56.52301 -2.59375,62.78125 1.30204,5.7615 -9.70773,5.15389 -11.78125,2.625 -4.6287,-5.65237 -19.9116,-56.10291 -37.9375,-47.09375 -25.28137,13.939 -1.48853,57.43256 -6.53125,58.84375 -9.36668,5.23466 -8.83606,18.02087 -16.34375,28.4375 -12.38092,17.74363 -105.021,-8.31111 -134.96875,-10.125 -21.92462,-1.29455 -42.8956,16.69428 -44.875,14.40625 -26.69638,-26.73399 -81.9285,-73.2869 -142.4375,-88.75 C 90.129469,427.25787 39.649614,400.59658 37.625,400.93526 Z m 529.46875,102.21875 c 5.78951,-1e-5 10.46875,5.34579 10.46875,11.9375 2e-5,6.59167 -4.67924,11.9375 -10.46875,11.9375 -5.78954,0 -10.5,-5.34583 -10.5,-11.9375 10e-6,-6.59171 4.71046,-11.9375 10.5,-11.9375 z m -23.53125,7.25 c 4.45553,19.23387 11.41036,25.36339 32.28125,24.75 -26.56462,24.35939 -42.70923,-17.37781 -32.28125,-24.75 z M 601,560.68526 c 1.08692,0.0412 1.92367,0.28894 2.46875,0.8125 10.46545,3.79336 -44.97502,23.75615 -45.34375,20.9375 -0.57648,-2.01216 32.36808,-22.14821 42.875,-21.75 z m 5.625,12.78125 c 0.57282,-0.0444 1.07711,0.032 1.5,0.25 9.87845,9.8145 -31.27532,31.57642 -30.8125,30.8125 -3.31635,-2.00393 20.72016,-30.39586 29.3125,-31.0625 z"
               id="path20" />
          </g>
        </g>
        <g
           inkscape:groupmode="layer"
           id="g31"
           inkscape:label="Mouse_Gloss"
           style="fill:#f1f3f5;fill-opacity:1" />
      </g>
    </g>
  </g>
</svg>
