<?xml version="1.0" encoding="UTF-8" standalone="no"?>
<svg
   width="1757.0121"
   height="1462.4089"
   class="img-fluid"
   viewBox="0 0 17570.121 14624.089"
   version="1.1"
   id="svg16"
   sodipodi:docname="xfce-background.svg"
   inkscape:export-filename="asd2.svg"
   inkscape:export-xdpi="96"
   inkscape:export-ydpi="96"
   xml:space="preserve"
   inkscape:version="1.4 (e7c3feb100, 2024-10-09)"
   xmlns:inkscape="http://www.inkscape.org/namespaces/inkscape"
   xmlns:sodipodi="http://sodipodi.sourceforge.net/DTD/sodipodi-0.dtd"
   xmlns="http://www.w3.org/2000/svg"
   xmlns:svg="http://www.w3.org/2000/svg"><defs
     id="defs16" /><sodipodi:namedview
     id="namedview16"
     pagecolor="#ffffff"
     bordercolor="#000000"
     borderopacity="0.25"
     inkscape:showpageshadow="2"
     inkscape:pageopacity="0.0"
     inkscape:pagecheckerboard="0"
     inkscape:deskcolor="#d1d1d1"
     inkscape:zoom="0.50857143"
     inkscape:cx="875.98315"
     inkscape:cy="875"
     inkscape:window-width="2048"
     inkscape:window-height="1098"
     inkscape:window-x="0"
     inkscape:window-y="0"
     inkscape:window-maximized="1"
     inkscape:current-layer="svg16"><inkscape:page
       x="0"
       y="0"
       width="17570.121"
       height="14624.089"
       id="page2"
       margin="0"
       bleed="0" /></sodipodi:namedview><g
     fill="#07101d"
     id="g2"
     transform="translate(35.121181,35.000001)"><path
       d="m 10,17527 c -13,-7 -30,-24 -37,-37 -18,-36 -19,-3043 0,-3080 8,-17 44,-41 107,-72 52,-26 119,-68 148,-94 71,-62 128,-79 231,-68 42,5 85,7 96,6 23,-3 104,-79 142,-135 49,-70 113,-91 236,-76 85,10 89,10 132,-15 54,-32 73,-32 134,-1 27,13 70,29 96,36 46,12 47,11 103,-28 66,-46 178,-103 202,-103 9,0 38,16 64,36 46,37 46,37 84,21 20,-8 45,-18 54,-21 10,-3 27,-20 38,-38 18,-30 20,-44 14,-148 -3,-63 -12,-136 -19,-162 -23,-81 2,-130 100,-192 70,-45 84,-49 111,-31 19,12 24,25 24,55 0,21 7,45 15,54 17,16 78,31 93,22 4,-3 35,1 68,9 32,8 63,14 67,15 4,0 29,-20 55,-43 26,-24 61,-52 79,-62 17,-10 41,-37 53,-59 32,-57 88,-114 126,-126 34,-11 40,-10 177,45 96,39 106,55 99,160 l -5,85 h 46 c 29,0 67,-10 109,-30 34,-16 68,-30 74,-30 5,0 25,-15 43,-34 29,-30 33,-39 30,-83 -5,-91 -1,-104 39,-143 67,-63 125,-91 210,-100 42,-5 99,-16 125,-24 46,-15 52,-14 114,6 l 66,22 30,-35 c 117,-135 189,-186 242,-173 14,3 43,27 63,52 81,101 103,118 160,125 39,5 67,16 110,47 32,22 64,40 71,40 19,0 7,-63 -25,-134 -31,-69 -28,-105 16,-207 25,-55 28,-72 20,-94 -32,-84 2,-132 101,-142 116,-11 160,-2 215,49 12,10 61,34 109,53 49,19 96,42 105,50 9,8 36,21 60,30 24,8 60,28 79,42 26,20 52,29 96,34 37,4 91,20 143,44 l 83,38 69,-13 c 130,-25 244,13 299,99 17,26 36,63 42,82 7,19 23,46 37,62 23,24 33,27 88,27 66,0 69,2 126,83 11,16 34,29 67,37 45,11 63,9 161,-14 61,-14 119,-26 129,-26 38,0 43,-25 12,-64 -50,-62 -91,-131 -97,-163 -5,-24 -1,-36 16,-53 30,-30 63,-20 127,41 71,68 121,89 209,89 88,0 124,12 192,62 30,22 84,50 120,62 73,25 82,35 101,119 16,67 13,106 -9,154 -34,77 -104,81 -134,10 -39,-93 -324,-182 -370,-115 -22,31 -20,118 3,202 26,93 31,96 85,53 59,-49 78,-55 182,-58 75,-2 99,2 156,23 92,35 123,60 153,123 27,59 34,110 21,163 -9,39 1,41 69,11 l 48,-21 151,75 c 83,42 167,83 187,91 20,8 55,30 76,50 54,48 169,90 249,90 75,0 106,-18 133,-78 24,-55 98,-166 111,-166 5,0 23,-20 40,-45 17,-25 40,-50 51,-55 30,-17 82,4 140,56 27,24 56,44 64,44 7,0 35,-9 62,-21 35,-15 58,-19 83,-14 19,4 97,9 173,11 l 137,3 65,57 c 85,75 87,100 16,178 -27,30 -55,64 -61,77 -7,12 -27,42 -46,66 -36,47 -43,88 -24,137 13,35 44,52 125,71 132,30 126,31 184,-15 l 53,-42 -7,-51 c -4,-29 -16,-83 -27,-120 -22,-76 -19,-124 13,-168 31,-44 76,-54 161,-34 75,17 105,34 175,97 47,42 63,45 116,23 20,-8 48,-15 61,-15 14,0 68,-23 120,-51 72,-38 101,-59 117,-87 78,-130 127,-157 273,-150 l 96,4 72,50 c 59,41 78,61 100,105 36,72 55,126 63,173 l 6,38 77,-6 c 42,-3 97,-8 121,-12 36,-5 54,-1 102,21 58,28 58,28 111,12 40,-13 63,-14 92,-7 45,10 51,7 84,-32 29,-34 60,-36 111,-6 34,19 41,20 70,8 17,-7 51,-32 73,-56 29,-30 53,-46 77,-49 75,-12 85,-17 127,-61 39,-40 61,-50 104,-46 92,9 156,26 198,52 42,25 59,30 116,30 42,0 79,-6 99,-16 25,-13 48,-15 119,-10 83,5 88,5 117,-20 41,-34 49,-80 22,-132 -29,-57 -27,-77 17,-124 29,-31 46,-40 68,-40 191,6 187,6 239,-21 92,-48 153,-45 237,10 52,35 105,40 154,15 38,-19 107,-87 149,-146 30,-42 67,-38 118,12 53,51 119,83 226,111 110,28 172,63 210,116 30,42 61,62 79,51 15,-9 44,-143 48,-220 12,-206 10,-199 43,-228 43,-38 74,-35 127,13 22,21 188,54 213,43 9,-4 93,-10 186,-14 168,-8 170,-8 190,-35 35,-47 145,-265 145,-288 0,-12 -9,-37 -21,-56 -18,-30 -23,-32 -52,-27 -18,4 -68,9 -113,12 -65,5 -88,3 -118,-11 -52,-25 -113,-118 -139,-213 l -20,-76 29,-53 c 18,-33 42,-62 64,-75 l 35,-20 -62,-30 c -66,-31 -113,-77 -113,-109 0,-11 7,-31 16,-44 13,-20 14,-30 4,-59 -14,-45 -2,-69 48,-95 100,-52 148,-131 136,-224 -6,-39 -3,-49 18,-69 13,-14 31,-29 39,-34 8,-5 25,-24 38,-42 18,-26 22,-41 17,-70 -4,-20 -10,-65 -15,-99 -10,-74 -30,-108 -68,-118 -43,-10 -63,-34 -63,-73 0,-31 -2,-34 -22,-27 -113,34 -138,30 -158,-29 -10,-30 -8,-42 9,-82 12,-25 18,-50 15,-55 -3,-5 -33,-9 -67,-9 -41,0 -70,-6 -85,-16 -12,-8 -37,-14 -55,-12 -26,2 -35,10 -51,43 -42,91 -106,145 -171,145 -17,0 -43,16 -74,45 -56,52 -91,65 -175,65 -46,0 -75,-7 -128,-32 -41,-19 -72,-28 -78,-22 -5,5 -1,37 10,78 11,38 17,79 14,92 -8,32 -36,54 -70,56 -54,3 -196,-34 -258,-66 l -61,-33 -230,3 c -261,3 -383,-12 -438,-52 -18,-13 -56,-35 -85,-50 -66,-33 -92,-66 -92,-114 0,-51 64,-125 123,-142 23,-6 43,-12 45,-14 8,-5 -23,-104 -44,-141 -34,-59 -34,-146 1,-193 14,-19 25,-41 25,-49 0,-9 8,-26 18,-38 24,-30 144,-83 187,-83 20,0 67,-13 104,-30 42,-18 93,-31 137,-35 38,-4 86,-13 107,-21 20,-8 47,-14 59,-14 24,0 143,45 173,66 25,18 49,18 85,-1 17,-9 76,-24 132,-36 117,-22 103,-18 183,-64 107,-61 165,-87 223,-98 47,-9 61,-16 77,-41 34,-52 66,-61 158,-46 61,10 81,10 90,1 17,-17 -26,-51 -63,-51 -15,0 -86,-18 -156,-40 -157,-49 -224,-53 -275,-15 -69,51 -98,59 -159,46 -30,-7 -88,-17 -128,-23 -72,-10 -74,-10 -121,19 -55,34 -133,63 -171,63 -32,0 -98,-46 -128,-88 -18,-25 -29,-30 -81,-35 -41,-3 -71,-13 -97,-31 -21,-14 -48,-26 -59,-26 -33,0 -147,-41 -185,-67 -32,-21 -45,-23 -157,-23 h -121 l -21,33 c -20,32 -20,33 0,102 10,38 19,86 19,106 0,21 3,44 6,52 9,25 146,124 181,132 32,6 93,64 93,88 0,29 -26,45 -83,50 -36,4 -73,15 -100,31 -98,59 -127,69 -167,57 -21,-6 -43,-18 -50,-26 -24,-29 -63,-18 -114,35 -33,34 -62,53 -90,61 -22,6 -50,16 -61,23 -33,21 -62,25 -105,14 -34,-9 -48,-7 -81,8 -35,15 -45,16 -72,5 -18,-7 -54,-18 -82,-25 -55,-14 -85,-28 -130,-61 -32,-24 -129,-66 -207,-91 -26,-8 -55,-25 -65,-40 -25,-34 -50,-23 -63,27 -6,22 -21,55 -33,73 -12,19 -29,47 -38,62 -12,22 -37,38 -110,68 -123,50 -163,55 -209,24 -49,-33 -51,-62 -6,-89 31,-18 35,-25 29,-47 -12,-51 -22,-71 -41,-81 -25,-14 -44,-66 -35,-100 3,-14 15,-39 25,-56 10,-16 18,-47 18,-68 0,-61 24,-106 67,-123 32,-14 47,-14 112,-4 42,7 103,16 136,19 71,8 79,11 95,51 15,36 20,37 50,5 31,-33 107,-55 187,-55 67,0 187,-39 211,-68 18,-24 16,-89 -5,-96 -9,-4 -57,-16 -106,-27 -104,-23 -138,-38 -161,-73 -20,-31 -41,-32 -115,-7 -136,47 -171,55 -251,62 -47,3 -105,14 -129,23 -41,16 -48,16 -86,1 -23,-8 -53,-27 -66,-41 -21,-23 -24,-36 -28,-127 -3,-99 3,-143 36,-277 8,-36 19,-90 23,-120 4,-30 13,-67 19,-82 9,-24 6,-32 -25,-70 -34,-40 -36,-46 -31,-98 3,-30 9,-66 13,-79 6,-21 5,-23 -17,-18 -13,3 -43,13 -67,21 -30,11 -59,14 -91,10 -35,-4 -50,-2 -59,9 -19,23 -103,265 -112,324 -12,76 -28,117 -53,140 -26,24 -195,113 -214,113 -18,0 -26,41 -14,72 6,15 23,35 38,44 15,10 43,31 61,48 31,29 37,30 110,29 56,-1 82,3 94,14 22,19 42,115 34,162 -3,20 -10,73 -14,119 -10,94 -31,127 -89,138 -36,7 -124,-7 -205,-33 -26,-8 -66,-13 -90,-11 -42,3 -43,4 -40,35 5,46 -10,67 -77,107 -59,36 -97,44 -130,26 -10,-5 -41,-18 -69,-29 l -52,-21 -31,34 c -32,36 -90,57 -133,49 -32,-6 -90,12 -140,44 -25,16 -62,28 -102,33 -35,4 -94,21 -131,38 -37,16 -104,38 -148,47 -44,10 -97,26 -117,36 -47,24 -75,24 -113,-1 -27,-18 -41,-19 -150,-13 l -120,6 -35,38 c -49,51 -95,60 -164,28 -45,-20 -64,-22 -161,-20 -74,2 -132,-3 -178,-13 -112,-26 -119,-24 -197,49 -82,77 -102,81 -176,30 -38,-27 -82,-43 -168,-65 -64,-16 -126,-35 -139,-42 -96,-55 -257,-199 -257,-230 0,-11 4,-28 10,-38 8,-15 2,-24 -39,-53 -54,-39 -68,-65 -51,-96 11,-22 66,-41 116,-41 17,0 48,-7 68,-15 32,-14 40,-14 74,0 20,9 53,28 72,44 49,39 75,52 144,69 114,28 220,11 278,-45 39,-37 35,-58 -17,-110 -25,-24 -45,-53 -45,-64 0,-46 78,-89 162,-89 20,0 49,-5 65,-11 48,-20 337,-28 422,-12 76,14 93,22 124,61 23,27 42,30 27,3 -16,-31 -12,-81 11,-118 12,-20 18,-38 13,-43 -5,-4 -37,-19 -70,-33 -46,-18 -90,-27 -175,-32 -135,-9 -154,-15 -177,-56 -9,-18 -36,-52 -59,-76 -23,-24 -59,-78 -79,-121 -47,-100 -60,-114 -96,-106 -35,7 -49,-3 -92,-70 -47,-71 -50,-89 -30,-145 19,-55 16,-73 -19,-96 -19,-12 -30,-13 -51,-5 -15,5 -44,10 -64,10 -28,0 -44,8 -73,36 -33,32 -43,36 -95,38 -49,1 -70,8 -119,39 -67,41 -103,46 -128,19 -23,-25 -21,-60 3,-97 11,-16 27,-52 35,-79 13,-44 13,-52 0,-72 -8,-13 -15,-42 -15,-64 0,-50 37,-93 93,-108 21,-6 51,-22 68,-36 43,-36 94,-35 156,4 38,24 58,30 104,30 h 57 l 16,-47 c 21,-61 20,-75 -5,-118 -32,-53 -23,-159 20,-239 17,-32 31,-71 31,-86 0,-37 37,-156 61,-199 11,-18 18,-36 15,-38 -3,-3 -35,1 -71,8 -58,11 -70,18 -97,52 -57,72 -98,69 -162,-8 -49,-60 -50,-85 -1,-163 46,-75 42,-92 -19,-92 -72,0 -92,-35 -60,-104 21,-43 14,-70 -31,-129 -51,-67 -52,-89 -11,-179 53,-112 47,-138 -20,-89 -45,32 -154,91 -170,91 -5,0 -34,20 -63,45 -57,49 -101,75 -125,75 -8,0 -23,11 -33,25 -77,109 -77,109 -215,177 -97,48 -142,76 -160,100 -36,48 -142,99 -220,107 -64,7 -77,14 -192,101 -59,45 -95,41 -151,-17 -55,-58 -62,-81 -44,-147 7,-28 14,-96 15,-151 1,-63 7,-116 17,-143 11,-28 13,-50 8,-65 -13,-33 -111,-121 -151,-136 -81,-30 -100,-41 -106,-65 -7,-29 4,-52 69,-133 52,-67 76,-84 144,-102 33,-9 50,-8 85,3 38,14 45,14 67,-1 13,-8 47,-18 74,-22 l 50,-6 22,-68 c 18,-56 31,-76 71,-112 59,-53 100,-69 166,-63 42,4 56,12 96,51 63,60 82,65 137,33 24,-14 50,-26 58,-26 8,0 35,-11 61,-25 26,-14 79,-32 119,-40 40,-8 92,-20 117,-25 76,-17 176,6 227,53 21,18 31,19 124,13 75,-5 106,-3 117,6 9,8 45,13 86,14 39,1 96,4 126,8 50,7 62,5 132,-28 87,-41 140,-46 178,-16 41,32 50,26 50,-31 0,-29 9,-84 20,-123 11,-39 25,-88 30,-108 8,-27 24,-46 63,-74 28,-21 66,-50 82,-65 73,-68 157,-77 234,-24 55,38 109,46 132,19 7,-8 34,-27 61,-40 26,-13 77,-50 112,-82 91,-83 243,-154 324,-150 22,1 48,-4 56,-11 8,-6 29,-16 46,-21 39,-11 74,2 158,59 74,50 97,56 162,42 45,-10 58,-9 95,8 24,11 73,22 109,26 50,6 77,15 118,42 48,31 58,34 113,31 55,-4 67,-9 135,-59 100,-75 110,-79 172,-79 47,0 59,-4 91,-34 58,-53 76,-53 232,4 49,18 72,21 124,16 61,-7 66,-5 130,33 90,55 139,74 170,67 51,-12 308,-29 482,-31 160,-2 179,0 219,19 64,30 122,116 128,191 6,68 -16,129 -58,170 -25,24 -40,30 -93,33 -40,2 -74,-2 -97,-11 -30,-13 -38,-13 -61,-1 -39,20 -42,39 -23,135 17,82 17,88 1,113 -31,46 -64,60 -161,67 -158,12 -185,25 -293,135 -52,53 -91,99 -88,102 4,4 25,13 47,22 57,21 82,58 81,119 -1,84 -18,117 -82,160 -73,50 -200,100 -272,107 -41,5 -73,2 -112,-11 -35,-11 -68,-15 -89,-11 -99,19 -141,19 -213,-4 -41,-13 -83,-20 -97,-17 -38,10 -144,112 -161,156 -9,21 -27,48 -41,59 -26,20 -31,37 -20,66 9,24 21,20 72,-23 57,-47 81,-55 118,-40 16,7 59,15 95,19 48,5 80,15 114,36 90,55 86,54 123,38 45,-18 96,-18 133,2 47,24 84,10 153,-58 90,-88 115,-98 269,-98 114,0 134,-3 188,-25 33,-14 91,-48 127,-74 111,-80 115,-81 233,-72 57,5 116,14 131,20 25,9 32,7 63,-20 34,-31 35,-31 142,-28 l 108,3 54,-40 c 30,-21 66,-52 80,-69 14,-16 63,-68 107,-115 45,-47 88,-98 97,-115 29,-58 63,-78 257,-152 36,-13 108,-30 160,-37 72,-10 104,-19 133,-39 21,-14 51,-28 67,-32 20,-4 40,-21 60,-49 28,-41 47,-54 133,-90 20,-8 37,-19 37,-24 0,-18 -68,-72 -124,-96 -39,-17 -76,-26 -112,-26 -131,0 -154,-62 -49,-134 49,-34 71,-66 46,-66 -5,0 -23,-13 -40,-29 -25,-23 -31,-37 -31,-68 0,-56 23,-73 115,-86 41,-6 75,-14 75,-17 0,-3 -20,-20 -45,-38 -76,-54 -106,-118 -87,-189 11,-40 10,-48 -14,-94 -14,-28 -43,-70 -65,-93 -54,-59 -57,-88 -20,-158 18,-34 31,-73 31,-93 0,-44 37,-85 76,-85 24,0 84,50 84,70 0,12 202,102 242,107 24,4 62,-3 112,-21 42,-14 86,-26 99,-26 12,0 33,-7 46,-16 19,-14 37,-15 99,-10 95,9 128,24 186,87 38,41 51,49 81,49 52,0 73,-15 86,-62 6,-23 31,-66 56,-95 55,-64 122,-90 207,-78 28,3 83,10 122,13 59,6 80,13 117,39 53,38 87,41 126,12 17,-13 53,-24 91,-28 35,-4 65,-14 71,-22 17,-26 9,-75 -17,-110 -21,-28 -24,-41 -19,-73 3,-21 12,-51 20,-67 8,-15 15,-47 15,-71 0,-57 56,-174 101,-213 58,-49 106,-65 194,-65 58,0 92,6 124,20 63,29 118,26 186,-10 73,-38 98,-38 169,5 32,19 67,35 78,35 11,0 50,-31 89,-71 l 70,-72 62,6 c 53,5 72,1 147,-28 47,-18 95,-36 107,-39 13,-4 25,-18 28,-32 3,-13 8,-36 11,-51 8,-39 32,-63 63,-63 46,-1 107,-36 181,-106 l 73,-69 71,-5 c 70,-5 71,-5 93,-45 12,-21 30,-42 40,-46 10,-4 61,-2 114,4 94,10 97,9 190,-22 52,-18 121,-45 154,-61 33,-15 107,-47 165,-70 58,-23 117,-47 131,-52 37,-16 74,-3 88,29 8,21 11,1672 9,6445 l -3,6417 -23,23 -23,23 -8727,2 c -6987,2 -8732,0 -8752,-10 z M 9230,8982 c 73,-23 79,-27 123,-99 43,-71 46,-87 15,-77 -46,13 -75,34 -153,105 -85,77 -105,107 -64,95 13,-4 49,-15 79,-24 z m -834,-452 c 34,-13 157,-94 174,-115 23,-27 -13,-18 -58,16 -42,31 -58,37 -172,64 -30,7 -57,14 -60,15 -9,3 55,29 72,30 9,0 29,-5 44,-10 z m -193,-27 c 4,-2 -2,-16 -13,-30 -26,-33 -25,-72 1,-133 15,-34 19,-60 15,-82 -7,-36 -92,-152 -105,-143 -5,2 -12,31 -16,62 -3,32 -11,77 -17,101 -9,36 -7,49 11,92 16,36 20,61 15,85 -11,58 -1,68 54,60 26,-4 50,-9 55,-12 z m 533,-261 c 21,-16 57,-55 78,-86 l 40,-58 -30,-85 c -21,-60 -44,-103 -81,-150 -59,-74 -68,-109 -58,-213 6,-65 5,-73 -21,-117 -15,-26 -33,-66 -39,-88 -11,-35 -16,-40 -44,-43 -59,-6 -60,-2 -60,239 0,120 -2,223 -6,229 -10,16 23,75 76,135 67,77 80,105 86,191 3,41 9,74 13,74 4,0 25,-13 46,-28 z m 7845,-338 c 18,-22 64,-44 94,-44 14,0 52,8 85,17 59,16 61,16 88,-3 15,-11 35,-36 45,-56 15,-30 16,-43 7,-84 -14,-61 -6,-108 26,-158 32,-48 26,-79 -19,-102 -17,-9 -39,-22 -47,-29 -8,-7 -44,-16 -80,-20 -61,-6 -66,-5 -89,19 l -25,26 18,50 c 31,86 11,135 -104,248 -66,64 -80,84 -80,109 0,17 6,34 13,36 25,11 55,7 68,-9 z"
       id="path1" /><path
       d="m 5910,9318 c -37,-17 -71,-22 -188,-27 -135,-6 -145,-7 -163,-30 -10,-13 -19,-38 -19,-57 0,-29 -5,-36 -32,-47 -71,-30 -97,-90 -98,-223 0,-126 -3,-124 175,-109 115,9 114,8 190,75 39,33 73,60 77,60 4,0 23,-17 42,-37 35,-37 37,-38 103,-35 99,4 123,4 169,1 29,-3 57,4 95,23 30,14 71,34 92,44 48,21 61,52 46,107 -7,28 -26,56 -56,84 -35,33 -46,51 -50,83 -7,52 -41,80 -97,80 -22,0 -59,7 -81,15 -60,21 -152,19 -205,-7 z m 542,-309 c -48,-31 -51,-60 -12,-122 85,-134 79,-151 -59,-177 -95,-18 -116,-61 -60,-125 37,-41 77,-65 112,-65 13,0 48,18 78,40 84,62 129,80 219,87 70,5 89,11 162,52 75,41 83,49 86,78 7,74 -42,103 -173,103 h -86 l -63,59 c -101,94 -143,109 -204,70 z"
       id="path2" /></g><g
     fill="#0d1c35"
     id="g6"
     transform="translate(35.121181,35.000001)"><path
       d="m 9095,14575 c -16,-7 -56,-19 -88,-25 -47,-9 -67,-20 -101,-53 -38,-37 -44,-49 -50,-97 -3,-30 -2,-72 3,-92 9,-38 68,-127 134,-202 20,-24 37,-48 37,-53 0,-6 -19,-28 -41,-48 l -42,-37 -106,4 c -58,3 -123,1 -146,-4 -34,-8 -48,-5 -98,18 -55,27 -58,27 -90,12 -19,-9 -55,-34 -81,-57 -30,-26 -52,-38 -60,-34 -32,19 -127,139 -160,202 -44,84 -79,116 -146,130 -76,16 -96,14 -210,-25 -77,-26 -114,-44 -140,-69 -20,-19 -74,-51 -120,-71 -47,-20 -96,-44 -110,-53 -14,-9 -53,-30 -88,-46 l -62,-29 -45,22 c -75,36 -126,29 -151,-21 -15,-28 -15,-35 1,-88 l 18,-58 -26,-54 c -28,-57 -40,-65 -129,-96 -42,-14 -73,-18 -125,-14 -73,6 -89,13 -171,80 -80,65 -123,54 -137,-37 -4,-25 -16,-76 -26,-115 -50,-184 1,-305 128,-305 95,1 177,21 252,62 42,23 89,50 104,61 16,10 31,17 33,14 3,-3 1,-30 -6,-60 -12,-58 -12,-59 -97,-85 -17,-6 -55,-29 -83,-51 -58,-46 -63,-47 -177,-56 -46,-3 -96,-8 -113,-12 -30,-5 -30,-5 -20,21 29,76 -4,130 -86,141 -27,4 -96,18 -154,32 -108,25 -128,24 -219,-3 -41,-12 -56,-23 -81,-59 -29,-42 -34,-45 -76,-45 -25,0 -58,-7 -73,-14 -40,-21 -87,-78 -102,-123 -41,-125 -115,-156 -306,-128 -48,7 -59,4 -130,-30 -55,-27 -97,-40 -144,-44 -51,-5 -75,-13 -104,-35 -20,-16 -59,-37 -85,-47 -26,-10 -64,-29 -84,-43 -20,-13 -66,-34 -102,-46 -36,-12 -81,-36 -100,-52 -42,-37 -74,-46 -136,-38 -63,8 -70,16 -57,63 9,32 6,45 -21,106 -44,102 -46,120 -16,183 14,30 26,62 26,70 0,8 13,35 30,59 33,49 38,90 14,109 -12,11 -30,11 -86,2 -57,-8 -83,-19 -137,-55 -48,-33 -80,-47 -116,-51 -60,-7 -85,-25 -148,-102 -26,-32 -57,-60 -68,-62 -15,-3 -48,24 -123,102 -64,66 -111,106 -123,106 -11,0 -45,-11 -75,-25 l -55,-25 -63,20 c -34,11 -83,20 -109,20 -54,0 -140,45 -168,86 -14,23 -15,31 -4,67 28,93 28,90 -39,141 -34,26 -74,52 -88,58 -15,6 -52,22 -82,37 -42,20 -74,27 -135,29 -115,5 -120,0 -117,-123 3,-99 -4,-125 -37,-125 -9,0 -38,-11 -66,-25 -27,-13 -53,-25 -57,-25 -17,-1 -71,58 -93,100 -15,30 -38,56 -62,71 -21,12 -64,46 -95,76 -62,59 -78,62 -164,39 -29,-7 -63,-12 -76,-9 -49,9 -111,-17 -156,-65 l -43,-45 -27,20 c -31,23 -30,15 -12,241 l 11,143 -33,62 c -22,41 -43,66 -63,76 -16,7 -47,22 -67,32 -53,27 -79,24 -131,-17 l -46,-36 -48,18 c -26,9 -72,35 -101,57 -30,21 -67,43 -84,47 -35,11 -114,-2 -158,-25 -67,-34 -75,-35 -126,-8 -47,25 -49,25 -147,14 -115,-13 -146,-4 -185,53 -13,19 -52,61 -87,95 -63,61 -64,61 -122,61 -32,0 -75,-4 -96,-9 -57,-14 -125,10 -185,64 -58,52 -183,115 -228,115 -19,0 -38,-8 -50,-21 -18,-20 -19,-43 -19,-469 0,-526 -8,-490 106,-490 37,0 90,5 118,12 47,10 55,10 91,-11 23,-12 68,-26 101,-31 82,-12 89,-20 89,-96 0,-34 5,-75 11,-91 17,-47 78,-101 133,-119 28,-9 73,-28 100,-41 41,-21 58,-24 100,-19 81,11 177,6 208,-10 44,-23 108,-94 129,-141 20,-47 68,-83 109,-83 14,0 52,13 86,29 34,16 76,32 95,36 19,4 48,14 65,23 31,14 33,14 108,-37 l 76,-52 v -82 c 0,-96 35,-218 78,-269 19,-22 28,-48 33,-91 4,-37 15,-70 28,-86 12,-14 39,-49 61,-78 42,-55 64,-67 120,-65 50,3 89,-16 107,-52 29,-58 42,-66 101,-66 44,0 65,6 101,29 25,16 63,34 85,41 36,11 40,11 63,-12 17,-18 28,-45 37,-99 7,-41 18,-84 24,-96 22,-40 171,-70 270,-54 80,13 108,2 122,-48 5,-20 10,-41 10,-48 0,-6 24,-62 54,-125 44,-94 63,-123 114,-170 64,-61 93,-71 146,-46 25,11 41,9 212,-19 69,-11 147,31 195,106 l 15,25 54,-27 c 38,-19 69,-27 107,-27 53,0 54,0 126,-74 62,-64 80,-76 132,-91 56,-17 64,-17 125,-1 35,9 85,30 110,46 26,17 52,30 59,30 37,0 83,36 117,91 20,33 49,66 64,74 35,18 84,19 98,3 5,-7 12,-57 14,-110 3,-83 7,-102 26,-125 13,-16 31,-46 42,-69 27,-56 58,-94 87,-105 37,-14 99,7 146,50 23,20 61,51 83,69 44,33 59,62 68,127 3,25 16,50 35,69 34,34 32,34 135,-31 49,-32 62,-46 77,-87 10,-27 29,-61 42,-75 13,-14 29,-45 36,-69 19,-67 62,-109 127,-123 43,-10 63,-10 88,-1 18,7 51,12 73,12 59,0 77,24 69,92 -8,61 -8,61 103,192 84,99 100,109 193,116 62,5 83,11 111,33 20,15 46,27 59,27 14,0 53,-27 101,-70 99,-89 111,-90 205,-11 92,77 138,92 314,98 127,5 139,4 172,-16 27,-17 56,-23 133,-27 160,-9 162,-9 193,14 19,14 44,22 70,22 57,0 74,12 99,70 16,37 30,53 54,64 64,27 117,101 117,164 0,15 2,61 4,102 l 3,75 109,8 c 60,4 117,8 126,8 9,0 34,-11 55,-24 63,-41 79,-42 110,-7 94,105 119,125 198,157 44,17 105,34 135,38 184,21 188,23 216,76 21,41 17,74 -11,107 -47,56 -27,118 65,206 53,51 63,56 103,56 37,0 55,-7 104,-44 93,-68 94,-68 252,-71 123,-3 152,0 186,15 22,9 61,20 87,22 41,5 54,1 99,-28 99,-63 169,-55 245,29 l 47,52 -7,73 c -5,65 -3,78 19,122 14,27 36,57 49,66 23,14 30,14 86,-2 53,-15 69,-15 117,-5 71,16 107,9 163,-34 25,-19 62,-47 83,-62 23,-16 40,-37 44,-54 8,-43 35,-62 80,-56 21,3 77,11 124,18 128,18 172,8 233,-52 58,-57 82,-61 141,-24 51,31 83,31 145,0 62,-32 72,-31 172,5 90,33 135,37 176,16 15,-8 46,-17 67,-21 22,-3 59,-13 83,-22 38,-13 47,-23 78,-85 24,-48 45,-75 66,-86 32,-17 39,-23 99,-95 18,-21 49,-47 70,-57 62,-32 157,-171 159,-232 0,-9 18,-38 41,-65 22,-26 52,-61 65,-77 13,-15 24,-31 24,-34 0,-3 -12,-18 -26,-33 -24,-25 -25,-30 -15,-62 9,-26 9,-41 0,-60 -16,-34 -45,-45 -110,-39 -54,4 -57,3 -109,-40 -30,-24 -65,-64 -79,-90 -14,-25 -34,-58 -45,-72 -19,-27 -21,-44 -18,-138 2,-67 25,-98 70,-98 43,0 193,67 232,103 60,57 105,85 146,92 56,10 83,30 104,79 13,31 27,46 51,56 19,8 52,26 75,42 68,48 130,56 409,54 l 250,-2 75,36 c 82,41 204,70 262,63 29,-4 49,2 92,26 55,32 106,82 106,105 0,23 88,193 118,227 16,19 39,52 50,75 38,74 64,80 75,17 7,-34 -5,-55 -82,-153 -23,-29 -41,-58 -41,-66 0,-7 11,-38 24,-69 28,-61 38,-68 145,-90 80,-17 107,-36 149,-105 38,-63 38,-66 12,-80 -15,-8 -33,-5 -82,16 -87,37 -150,41 -216,15 -33,-13 -75,-21 -113,-21 -65,0 -99,-12 -99,-36 0,-10 10,-14 38,-12 95,5 107,1 169,-61 46,-46 67,-61 98,-66 66,-10 87,-26 126,-100 25,-49 45,-73 65,-82 42,-17 115,-16 143,3 16,12 36,15 69,11 53,-6 117,15 132,44 15,26 12,76 -5,109 -20,38 -6,44 46,20 90,-40 139,-19 139,61 0,38 4,46 30,61 37,21 80,113 80,170 0,22 8,62 17,88 l 17,47 -36,64 c -42,74 -123,149 -162,149 -31,0 -50,-19 -74,-73 -17,-38 -129,-158 -167,-180 -23,-12 -68,14 -83,48 -24,54 -28,59 -104,104 -112,68 -108,62 -101,141 5,63 4,70 -18,92 -14,14 -33,29 -43,35 -18,10 -18,12 3,41 34,48 51,98 56,160 7,91 55,117 117,63 51,-44 68,-50 159,-53 81,-2 87,-1 134,30 27,18 66,37 86,42 92,25 130,104 73,149 -15,12 -35,21 -46,21 -10,0 -31,12 -45,26 -23,24 -25,30 -19,82 7,56 39,125 77,163 25,25 125,26 193,3 72,-25 105,-6 151,85 19,39 35,80 35,92 0,11 -18,52 -40,90 -23,38 -57,99 -76,136 -61,116 -73,131 -110,143 -29,10 -237,26 -409,32 -53,2 -175,-21 -213,-41 l -37,-19 -13,47 c -7,25 -18,89 -23,141 -21,217 -22,222 -49,242 -34,25 -93,33 -129,18 -16,-6 -53,-38 -81,-71 -47,-54 -57,-61 -134,-84 -45,-14 -89,-25 -98,-25 -19,0 -147,-67 -174,-91 -11,-11 -25,-19 -30,-19 -5,0 -36,28 -69,61 -67,68 -143,109 -204,109 -25,0 -66,-14 -117,-40 -43,-22 -86,-40 -94,-40 -8,0 -44,14 -80,32 -61,30 -71,31 -173,31 -79,-1 -110,3 -113,12 -3,7 2,38 11,68 20,69 9,120 -38,174 -47,53 -79,63 -179,56 -71,-5 -89,-3 -111,12 -21,13 -46,17 -105,16 -67,-1 -86,-5 -143,-35 -46,-24 -87,-36 -133,-41 -66,-7 -68,-7 -99,23 -35,34 -110,71 -143,72 -12,0 -43,20 -69,45 -64,60 -123,82 -179,67 -39,-10 -42,-9 -68,19 -31,33 -39,34 -118,14 -51,-13 -62,-13 -94,0 -50,21 -79,19 -138,-11 -39,-20 -60,-24 -87,-20 -20,4 -96,11 -169,17 -142,11 -162,7 -162,-33 0,-11 9,-31 20,-45 28,-36 25,-63 -14,-146 -29,-62 -42,-77 -91,-109 -56,-37 -61,-38 -148,-38 h -90 l -34,36 c -18,20 -45,58 -58,84 -21,42 -34,53 -102,88 -43,22 -96,49 -118,61 -21,11 -52,21 -68,21 -15,0 -45,9 -67,20 -22,11 -50,20 -63,20 -25,0 -88,-41 -121,-79 -30,-33 -75,-57 -134,-71 -47,-11 -55,-10 -72,5 -25,22 -25,44 -1,120 10,33 22,94 26,135 8,86 10,81 -99,158 -49,35 -67,42 -105,41 -25,0 -59,-6 -76,-14 z"
       id="path3" /><path
       d="m 8038,11379 c -33,-8 -105,-40 -183,-83 -16,-9 -46,-16 -65,-16 -19,0 -55,-9 -79,-20 -24,-11 -48,-20 -54,-20 -26,0 -95,-43 -105,-66 -18,-39 -15,-72 8,-79 11,-4 52,-38 89,-76 67,-66 71,-69 118,-69 26,0 64,5 83,10 63,19 174,27 243,18 62,-8 72,-7 124,16 30,14 61,26 68,26 7,0 33,-20 58,-43 l 44,-44 143,-6 c 134,-6 145,-5 180,16 l 38,21 94,-22 c 51,-12 101,-22 111,-22 10,0 50,-15 90,-34 70,-33 215,-65 237,-51 16,10 12,33 -7,43 -10,5 -45,12 -78,15 -33,3 -96,19 -140,35 -44,17 -113,40 -152,52 l -73,21 -6,41 c -6,33 -21,56 -77,115 -78,82 -128,116 -197,133 -42,10 -52,9 -122,-19 -42,-17 -85,-31 -97,-31 -11,0 -47,25 -79,55 -57,53 -131,95 -162,94 -8,-1 -31,-5 -52,-10 z m 2892,-28 c -14,-5 -60,-23 -102,-40 -96,-40 -112,-62 -112,-152 -1,-75 -9,-88 -66,-114 -57,-26 -51,-51 10,-47 155,9 163,8 241,-27 l 76,-34 58,26 c 78,37 255,213 255,256 0,38 -18,51 -82,61 -29,4 -85,21 -124,38 -84,35 -120,43 -154,33 z m -3490,-283 c -25,-10 -58,-20 -135,-39 -48,-12 -69,-29 -36,-29 28,0 190,39 214,52 43,22 6,37 -43,16 z m -72,-322 c -20,-7 -56,-16 -79,-20 -47,-8 -84,-28 -170,-93 -82,-62 -82,-70 -1,-176 23,-31 42,-61 42,-66 0,-5 -15,-20 -32,-32 -65,-45 -66,-76 -3,-119 25,-17 45,-35 45,-39 0,-5 15,-16 34,-25 57,-27 99,1 140,93 19,42 23,44 99,56 24,4 50,18 72,40 26,27 43,35 69,35 28,0 41,8 71,43 44,49 65,94 65,137 0,36 -56,102 -109,130 -76,38 -189,55 -243,36 z m -802,-711 c -21,-7 -53,-26 -70,-42 -17,-16 -48,-41 -68,-56 -20,-15 -39,-36 -43,-46 -8,-27 15,-76 64,-139 24,-30 49,-69 57,-88 8,-20 25,-39 40,-44 14,-6 40,-21 57,-34 64,-48 157,-42 211,14 17,17 60,50 95,72 106,68 113,122 33,238 -42,61 -121,110 -178,110 -17,0 -51,7 -74,15 -52,18 -73,18 -124,0 z m 1096,-227 c -14,-14 -16,-84 -3,-92 4,-3 28,2 52,11 81,31 89,49 30,76 -44,20 -63,21 -79,5 z m -632,-227 c 0,-17 13,-44 31,-67 26,-33 30,-44 25,-79 -20,-136 -19,-149 8,-182 15,-18 39,-33 60,-37 46,-9 71,-38 56,-65 -6,-12 -21,-28 -34,-36 -36,-24 -50,-65 -37,-111 6,-22 11,-59 11,-84 0,-51 39,-138 81,-179 14,-14 43,-32 65,-40 57,-20 74,-38 74,-81 0,-30 -8,-47 -40,-81 -55,-60 -55,-76 -4,-159 32,-52 44,-100 26,-100 -15,0 -90,85 -110,125 -32,65 -119,140 -186,161 -68,21 -141,84 -151,129 -13,58 -13,58 -53,51 -20,-4 -71,-11 -112,-16 -136,-16 -200,-35 -237,-73 -56,-58 -123,-74 -123,-28 0,14 15,25 55,42 54,22 67,47 16,33 -14,-4 -50,-6 -79,-5 -62,3 -82,-10 -82,-50 0,-21 13,-43 48,-78 26,-27 61,-67 79,-89 37,-45 104,-82 151,-82 40,0 122,-70 122,-105 0,-22 -63,-89 -105,-113 -18,-9 -18,-13 -5,-37 8,-15 39,-41 70,-59 42,-24 64,-46 91,-92 27,-44 45,-62 70,-71 43,-15 66,-9 109,31 37,34 127,76 164,76 12,0 44,-20 73,-45 28,-25 61,-45 74,-45 27,0 91,67 120,127 17,35 19,53 14,93 -8,57 -6,58 69,38 36,-9 48,-9 60,1 23,19 20,57 -8,94 -44,60 -88,154 -82,175 12,37 38,36 71,-4 26,-31 40,-38 86,-45 77,-13 162,-33 177,-42 7,-5 12,-31 12,-65 0,-70 17,-106 51,-110 47,-6 118,75 104,119 -4,10 -16,31 -29,47 -12,15 -28,47 -35,71 -9,30 -29,60 -62,92 -57,56 -74,90 -89,184 -6,37 -24,93 -40,126 -36,71 -40,139 -10,184 23,35 25,66 8,129 -13,48 -11,55 33,124 20,30 20,34 5,57 -22,33 -45,31 -108,-7 -36,-22 -71,-34 -114,-40 -43,-5 -78,-17 -114,-39 l -51,-32 -77,39 c -84,42 -99,66 -62,99 25,23 25,49 1,89 -10,17 -22,45 -25,62 -9,40 -62,104 -87,104 -14,0 -19,-7 -19,-29 z m 3334,-111 c 9,-60 25,-75 79,-71 26,2 21,26 -9,42 -14,7 -37,27 -52,44 l -25,30 z"
       id="path4" /><path
       d="m 5260,9230 c -69,-15 -159,-39 -200,-52 -138,-46 -149,-56 -128,-115 10,-29 10,-36 -2,-43 -22,-14 -72,-12 -120,5 -106,37 -176,3 -191,-96 -5,-30 -17,-84 -27,-121 -16,-58 -17,-77 -7,-135 15,-89 26,-107 77,-128 73,-29 77,-59 13,-117 -101,-92 -84,-144 109,-333 180,-177 187,-187 197,-285 6,-66 15,-94 54,-169 40,-78 52,-93 89,-110 23,-12 47,-21 54,-21 6,0 27,-14 47,-31 40,-36 44,-63 15,-111 -27,-45 -26,-102 4,-153 18,-30 53,-60 125,-108 92,-62 101,-70 106,-105 10,-69 30,-115 58,-136 25,-18 41,-21 115,-19 106,3 137,15 163,65 11,21 26,41 33,44 8,3 34,-4 59,-15 56,-26 63,-26 108,-2 l 37,20 26,-28 c 33,-35 33,-43 -4,-64 -37,-22 -49,-63 -39,-137 11,-74 39,-100 113,-100 40,0 62,6 90,25 25,17 51,25 78,25 23,0 67,5 99,12 45,9 72,9 128,-2 39,-7 71,-18 71,-23 0,-6 -31,-43 -70,-83 -73,-75 -81,-94 -56,-142 7,-15 18,-49 25,-76 14,-58 44,-119 71,-146 32,-32 77,-25 144,20 82,56 90,54 81,-20 -9,-80 4,-99 99,-144 43,-21 77,-44 80,-54 12,-38 52,-63 113,-72 33,-4 74,-15 90,-23 25,-13 125,-119 150,-160 5,-7 32,-29 61,-50 46,-32 59,-37 110,-37 31,0 88,5 126,10 l 69,10 54,-37 c 80,-55 82,-59 45,-96 l -32,-31 -47,17 c -59,21 -86,21 -127,2 -52,-25 -73,-75 -81,-192 -7,-100 -7,-102 19,-127 30,-31 76,-34 100,-7 9,10 20,41 25,69 9,57 21,77 61,97 34,18 50,4 50,-42 0,-74 55,-134 130,-141 64,-6 94,9 126,64 28,47 30,74 9,115 -9,16 -13,34 -10,39 3,6 29,10 57,10 37,0 69,9 116,32 40,19 82,32 108,32 39,1 47,-4 116,-70 68,-67 116,-94 166,-94 7,0 19,-15 27,-34 16,-38 65,-66 116,-66 29,0 44,10 99,69 l 65,69 68,7 c 67,7 69,8 128,68 37,39 63,75 69,99 6,20 26,56 46,79 51,61 57,76 49,128 -8,58 -26,86 -68,107 -17,9 -45,27 -60,40 -15,13 -44,26 -65,29 -72,13 -106,28 -151,70 -25,23 -71,55 -101,70 -30,15 -89,51 -131,80 -42,30 -94,58 -115,64 -65,18 -144,80 -181,143 -59,102 -119,130 -232,108 -55,-10 -81,-10 -137,0 -139,25 -190,41 -240,75 -75,52 -105,48 -168,-20 -43,-47 -56,-55 -87,-55 -43,0 -55,9 -106,80 -71,97 -83,105 -176,108 -76,3 -86,1 -140,-27 -57,-31 -58,-31 -115,-17 -31,8 -73,17 -92,20 -19,4 -66,22 -105,40 l -70,33 33,19 c 78,44 86,56 107,157 9,43 40,35 81,-23 38,-52 78,-72 128,-63 15,3 48,-4 78,-17 58,-25 66,-24 193,20 56,19 107,30 135,29 25,-1 68,1 95,5 45,6 58,3 124,-29 71,-34 77,-35 175,-33 56,1 108,-2 114,-6 7,-4 39,2 72,13 71,25 114,26 153,6 28,-14 162,-127 183,-155 7,-8 14,-45 16,-82 5,-84 21,-104 139,-163 85,-43 87,-44 190,-44 85,0 110,4 137,20 18,10 51,19 74,19 24,0 55,9 75,21 l 34,21 25,-23 c 13,-12 36,-42 49,-65 14,-24 33,-49 43,-56 10,-7 52,-49 93,-94 63,-68 78,-91 92,-141 9,-33 17,-76 17,-96 0,-123 118,-200 200,-131 17,14 49,30 71,35 59,14 131,-22 236,-118 l 85,-76 -7,-58 c -6,-51 -5,-58 14,-68 11,-7 31,-9 44,-6 15,4 35,-2 60,-19 63,-43 94,-56 136,-56 59,0 71,-8 71,-45 0,-53 76,-135 125,-135 7,0 44,21 82,46 37,25 85,55 105,65 52,27 72,60 65,109 -8,61 8,75 84,72 41,-2 75,-10 97,-22 26,-16 57,-21 150,-24 152,-6 275,-42 301,-89 9,-16 31,-48 49,-70 19,-22 44,-62 58,-88 20,-41 33,-52 91,-81 81,-40 140,-43 193,-10 44,27 58,27 86,1 21,-20 22,-27 17,-115 -6,-94 -6,-95 23,-126 41,-43 83,-58 161,-58 37,0 100,-6 138,-14 39,-7 104,-19 145,-26 41,-6 121,-23 178,-36 93,-22 125,-24 335,-25 178,0 246,-3 292,-15 43,-12 77,-14 120,-9 111,14 292,3 419,-27 27,-6 110,-12 185,-13 92,-2 152,-8 185,-19 27,-9 73,-16 103,-16 30,0 89,-7 131,-16 91,-19 149,-10 248,39 l 62,30 49,-31 c 98,-63 135,-74 226,-66 45,3 131,17 191,30 60,13 120,24 132,24 13,0 41,-15 61,-34 112,-100 226,-116 393,-56 l 95,35 325,1 h 325 l 94,48 c 52,26 121,53 155,61 156,33 176,45 176,103 0,88 -28,110 -147,119 l -76,6 -64,61 c -36,34 -95,77 -131,97 -57,31 -68,41 -75,71 -12,49 -40,73 -122,102 -39,14 -95,34 -125,45 -40,15 -68,19 -102,14 l -47,-5 -68,69 c -89,91 -104,94 -208,42 l -80,-41 -65,31 c -78,37 -143,40 -209,11 -31,-14 -65,-20 -121,-20 -70,0 -81,3 -119,31 -50,36 -91,114 -91,174 0,22 -7,61 -16,86 -16,45 -16,48 4,91 33,67 30,134 -8,187 -35,48 -60,60 -113,53 -30,-3 -46,2 -77,23 -60,42 -101,39 -188,-14 -51,-31 -79,-42 -95,-37 -12,3 -49,0 -83,-6 -84,-15 -130,-5 -171,40 -18,19 -38,52 -44,71 -18,56 -45,87 -89,105 -85,34 -142,18 -215,-59 -47,-50 -54,-53 -110,-60 -44,-4 -70,-2 -97,9 -21,9 -47,16 -59,16 -13,0 -57,12 -98,26 -57,20 -87,25 -121,21 -49,-7 -185,-60 -255,-101 -24,-14 -47,-26 -52,-26 -11,0 -63,96 -63,115 0,9 19,39 41,68 41,52 89,146 89,175 0,9 -5,30 -12,48 -9,27 -9,38 2,60 16,28 101,92 178,134 74,40 82,97 18,128 -22,11 -39,10 -110,-4 -71,-15 -89,-16 -113,-5 l -28,13 35,29 c 19,16 39,29 46,29 15,0 44,33 44,52 0,24 -31,45 -82,58 -41,11 -53,10 -82,-4 -19,-9 -43,-16 -54,-16 -12,0 -33,-5 -49,-11 -15,-6 -50,-11 -78,-10 -27,1 -62,-4 -78,-10 -35,-15 -54,0 -63,47 -5,29 -1,39 29,73 44,48 52,85 33,142 -8,24 -17,59 -21,78 -5,21 -27,55 -54,85 -26,28 -55,63 -64,78 -36,57 -42,59 -342,87 -81,7 -96,12 -149,47 -32,22 -77,50 -99,64 -22,14 -42,31 -44,37 -2,6 21,22 51,36 74,34 90,61 81,135 -8,69 -49,169 -82,200 -18,16 -36,22 -72,22 -37,0 -52,5 -70,24 -32,34 -64,39 -124,22 -29,-8 -91,-16 -138,-18 l -86,-3 -74,54 c -40,30 -103,67 -139,84 -61,28 -75,31 -216,36 l -151,6 -44,40 c -24,22 -55,52 -67,67 -15,18 -44,34 -80,44 -53,16 -60,16 -107,-1 -48,-16 -55,-16 -99,-1 -58,20 -86,14 -151,-33 -41,-30 -61,-37 -120,-43 -38,-4 -82,-10 -96,-13 -21,-5 -35,1 -71,32 -56,49 -104,70 -127,56 -29,-18 -53,-72 -58,-131 -5,-55 -4,-59 26,-88 18,-16 41,-45 51,-65 26,-50 161,-165 210,-180 34,-10 49,-9 98,6 85,26 154,30 204,11 41,-16 46,-16 102,4 84,28 132,26 230,-14 107,-43 162,-86 171,-133 8,-45 -15,-71 -71,-79 -102,-15 -125,-48 -78,-115 16,-23 39,-49 53,-58 14,-9 63,-55 110,-103 56,-57 96,-89 116,-93 17,-4 50,-13 74,-21 25,-8 76,-14 115,-14 107,0 104,5 80,-166 -8,-53 13,-95 68,-134 46,-34 72,-37 125,-15 79,33 137,11 153,-60 8,-35 6,-47 -18,-95 -41,-83 -55,-87 -269,-84 -98,1 -239,7 -313,14 -74,7 -151,12 -171,13 -39,1 -116,-29 -187,-74 -42,-27 -52,-29 -102,-23 -47,5 -71,1 -147,-25 -104,-36 -125,-38 -149,-13 -39,39 -69,52 -125,52 -53,0 -62,4 -140,60 -46,33 -102,65 -124,71 -65,18 -148,6 -205,-31 -35,-22 -69,-34 -112,-40 -35,-4 -79,-15 -99,-23 -27,-12 -45,-14 -79,-6 -66,15 -113,2 -195,-52 -81,-55 -102,-58 -152,-28 -24,15 -44,20 -68,16 -43,-7 -163,34 -225,76 -25,17 -71,55 -102,84 -32,29 -64,53 -72,53 -8,0 -33,16 -56,35 -36,30 -49,35 -95,35 -44,0 -61,-6 -104,-35 -65,-45 -97,-45 -152,1 -23,19 -54,41 -68,49 -14,7 -35,24 -47,37 -29,32 -64,164 -64,240 0,87 -30,142 -81,146 -29,2 -40,-3 -67,-33 -18,-19 -42,-35 -53,-35 -11,0 -48,14 -82,32 -49,25 -73,31 -117,30 -208,-5 -267,-8 -283,-18 -12,-7 -55,-9 -116,-6 l -97,5 -36,-32 c -45,-40 -117,-55 -191,-40 -123,24 -154,32 -182,49 -16,10 -49,23 -72,29 -23,6 -55,23 -71,36 -52,44 -136,27 -207,-42 -60,-57 -98,-59 -155,-6 -50,44 -58,58 -70,125 -14,71 -31,88 -93,88 -45,0 -54,4 -83,35 -17,19 -36,35 -41,35 -6,0 -30,-13 -54,-30 -52,-35 -64,-36 -108,-9 -38,23 -64,51 -86,91 l -15,27 54,26 c 66,31 180,147 189,193 4,18 0,51 -9,79 -9,28 -17,92 -19,153 -1,58 -8,124 -15,148 -12,40 -12,44 10,67 13,14 31,25 39,25 9,0 47,-23 85,-50 79,-58 100,-65 165,-57 62,7 118,-18 187,-83 50,-47 94,-65 94,-37 -1,27 -88,108 -155,145 l -70,38 3,64 c 3,58 1,67 -21,88 -26,24 -61,30 -118,18 -34,-7 -38,-5 -105,64 -84,87 -88,93 -81,136 3,19 1,48 -5,65 -8,22 -7,42 1,70 21,70 -27,139 -97,139 -27,0 -48,-13 -106,-63 l -73,-64 -84,-6 c -46,-3 -87,-3 -91,-1 -13,9 -9,113 6,142 8,15 26,38 40,51 48,45 27,108 -48,142 -53,24 -85,23 -236,-11 z m 562,-1780 c 32,-28 51,-55 62,-87 24,-70 22,-79 -14,-56 -28,18 -130,154 -130,174 0,21 38,6 82,-31 z M 8026,6236 c 5,-14 -42,-92 -82,-136 -13,-14 -30,-41 -38,-61 -14,-33 -86,-109 -104,-109 -5,0 -32,-20 -62,-46 -29,-25 -56,-41 -60,-37 -10,11 -30,73 -30,93 0,55 130,160 197,160 40,0 70,24 78,62 8,34 57,88 81,88 8,0 17,-6 20,-14 z M 4095,9069 c -16,-5 -53,-14 -82,-19 -75,-13 -158,-71 -177,-124 -22,-62 -30,-196 -13,-220 15,-20 81,-34 171,-35 46,-1 51,-4 106,-61 69,-71 153,-130 187,-130 73,0 138,81 154,194 4,34 20,88 35,120 30,65 28,109 -6,175 -21,42 -30,47 -170,85 -100,27 -154,31 -205,15 z"
       id="path5" /><path
       d="m 6487,9003 c -14,-13 -6,-23 18,-23 16,0 25,6 25,15 0,15 -31,21 -43,8 z m -53,-48 c -7,-18 14,-47 27,-39 5,3 9,16 9,30 0,27 -27,34 -36,9 z m 409,-102 c -26,-10 -12,-22 32,-29 52,-7 64,-2 45,21 -12,14 -52,19 -77,8 z m -88,-13 c 3,-5 12,-10 20,-10 8,0 17,5 20,10 4,6 -5,10 -20,10 -15,0 -24,-4 -20,-10 z m -238,-46 c -7,-40 2,-67 19,-53 18,15 18,53 0,68 -11,9 -15,6 -19,-15 z m 3025,-141 c 2,-20 8,-28 23,-28 31,0 28,49 -3,53 -20,3 -23,0 -20,-25 z m -1522,-73 c 0,-5 5,-10 10,-10 6,0 10,5 10,10 0,6 -4,10 -10,10 -5,0 -10,-4 -10,-10 z m 15,-63 c -8,-12 -15,-37 -15,-57 0,-19 -9,-52 -20,-73 -24,-44 -25,-68 -5,-144 8,-31 15,-87 15,-123 0,-68 33,-188 65,-237 19,-29 65,-31 90,-3 18,20 18,30 0,130 -6,31 -1,42 41,95 89,114 101,166 59,265 -14,33 -25,70 -25,83 0,35 -32,60 -68,53 -18,-5 -45,0 -75,13 l -47,20 z M 1668,8284 c -91,-28 -115,-87 -83,-204 24,-90 20,-120 -26,-189 -44,-66 -53,-73 -144,-111 -69,-29 -85,-52 -85,-127 0,-44 5,-58 31,-88 30,-34 69,-52 99,-46 8,2 32,19 53,38 l 39,35 73,-7 c 65,-6 78,-5 108,14 23,14 51,21 83,21 41,0 59,7 109,41 113,76 122,79 249,79 78,0 130,-5 161,-16 66,-22 89,-16 93,22 7,74 -70,190 -222,333 -21,20 -58,55 -82,79 -47,45 -108,77 -171,87 -21,4 -73,18 -116,31 -89,27 -104,28 -169,8 z m 6949,-91 c -8,-10 -18,-30 -22,-44 -4,-15 -29,-53 -57,-85 -67,-80 -100,-137 -96,-170 5,-44 28,-51 86,-26 66,29 106,28 126,0 13,-18 16,-51 16,-158 0,-133 -1,-136 -30,-179 -17,-24 -30,-56 -30,-70 0,-34 -26,-71 -50,-71 -38,0 -50,27 -50,109 0,49 -5,84 -14,96 -13,18 -14,18 -26,-4 -8,-15 -11,-54 -8,-111 4,-103 17,-125 81,-135 23,-4 65,-14 93,-22 44,-14 55,-14 80,-2 39,19 43,57 9,89 -32,30 -31,35 6,90 29,43 30,47 28,152 l -1,109 36,46 c 34,43 36,51 36,117 0,55 -5,78 -21,101 -11,17 -36,60 -54,97 -19,37 -44,72 -54,78 -29,15 -66,12 -84,-7 z m -4942,-87 c -52,-16 -138,-61 -152,-78 -18,-22 -53,-161 -53,-210 0,-78 30,-187 61,-223 32,-36 170,-111 224,-121 19,-3 35,-12 35,-18 0,-7 -13,-48 -29,-92 -15,-43 -26,-85 -24,-91 7,-20 35,-15 75,12 42,28 68,31 106,11 60,-32 185,-86 198,-86 8,0 41,-11 72,-24 70,-30 208,-44 266,-28 35,10 44,8 95,-20 67,-37 97,-34 148,17 41,41 41,56 4,114 -43,66 -100,118 -144,129 -20,6 -60,27 -88,47 -48,36 -52,37 -108,31 -49,-6 -61,-4 -84,14 -34,27 -35,63 -5,133 26,59 30,126 9,150 -7,9 -52,38 -100,63 -163,89 -254,149 -327,217 -79,73 -97,79 -179,53 z m 12800,-120 c -71,-30 -75,-34 -75,-65 0,-55 41,-124 125,-211 45,-47 85,-95 89,-108 5,-15 1,-33 -13,-56 -34,-55 -23,-103 36,-157 45,-42 65,-48 153,-47 69,1 86,5 109,23 14,12 40,26 58,29 43,10 53,24 66,99 11,64 10,65 -22,113 -30,45 -32,53 -25,99 11,74 8,107 -16,157 -22,48 -72,89 -123,102 -16,4 -54,-1 -91,-11 -70,-18 -78,-17 -145,32 -40,30 -60,30 -126,1 z m 514,-3146 c -9,-5 -32,-24 -51,-42 -19,-18 -47,-43 -61,-55 -39,-31 -34,-57 24,-118 30,-32 49,-60 46,-69 -5,-12 -201,-96 -225,-96 -6,0 -23,10 -39,23 -15,13 -53,38 -84,55 -93,53 -270,67 -344,28 -16,-9 -35,-16 -41,-16 -7,0 -31,-9 -55,-20 -29,-13 -66,-20 -109,-20 -82,-1 -138,-25 -176,-76 -49,-68 -87,-104 -110,-104 -27,0 -109,64 -153,119 -37,46 -65,52 -128,26 -42,-18 -107,-19 -168,-4 -38,10 -54,8 -117,-12 -49,-15 -100,-23 -155,-24 -91,-1 -114,-13 -139,-71 -15,-37 -24,-44 -89,-77 -48,-23 -54,-24 -136,-14 -82,9 -87,9 -147,-18 -34,-15 -68,-25 -77,-21 -8,3 -24,26 -35,51 -23,54 -109,148 -150,165 -18,7 -64,11 -122,8 l -93,-4 -93,-57 c -51,-31 -98,-57 -105,-57 -7,0 -41,18 -77,40 -78,48 -124,53 -142,16 -9,-21 -6,-32 16,-70 26,-44 33,-76 18,-76 -22,0 -96,-78 -114,-119 -29,-70 -38,-74 -116,-44 -37,13 -70,30 -74,36 -4,7 -8,34 -8,60 0,69 -20,100 -82,128 -50,22 -64,24 -228,23 -155,0 -182,-3 -235,-22 -32,-12 -73,-22 -90,-22 -45,0 -78,-21 -101,-65 -13,-27 -35,-48 -67,-65 -25,-14 -57,-36 -69,-47 -30,-28 -89,-53 -125,-53 -15,0 -60,-7 -100,-17 -69,-16 -75,-16 -130,1 -32,10 -74,25 -93,33 -70,31 -93,33 -150,19 -126,-33 -189,-45 -260,-51 -54,-4 -82,-11 -100,-26 -29,-23 -154,-84 -192,-94 -15,-4 -44,-22 -66,-41 -22,-19 -49,-34 -59,-34 -18,0 -139,89 -155,114 -4,6 -4,30 -1,53 7,51 -8,73 -49,73 -62,0 -98,-46 -98,-124 0,-131 -39,-194 -145,-234 -73,-28 -93,-28 -135,3 -42,31 -87,32 -142,4 -56,-28 -147,-22 -242,16 -54,21 -78,26 -112,21 -24,-3 -65,-9 -91,-12 -81,-9 -90,-13 -138,-54 -25,-22 -54,-40 -64,-40 -10,0 -43,11 -72,24 -30,14 -82,30 -116,37 -61,13 -62,12 -129,-22 -37,-18 -101,-60 -142,-91 -41,-32 -82,-58 -91,-59 -9,-1 -54,0 -101,1 -63,1 -103,-5 -154,-20 -45,-14 -83,-20 -105,-16 -50,7 -110,-22 -180,-89 -34,-32 -76,-61 -102,-70 -24,-9 -80,-33 -124,-54 -148,-71 -141,-71 -227,-18 -51,32 -81,59 -96,86 -30,53 -66,75 -119,72 -72,-5 -163,-3 -259,4 -113,9 -129,2 -245,-101 -118,-105 -148,-123 -225,-140 -108,-22 -108,-22 -195,62 -68,67 -83,77 -121,81 -61,6 -124,-29 -163,-91 -27,-45 -29,-54 -28,-142 l 2,-94 -35,-27 c -36,-27 -67,-32 -116,-20 -36,9 -51,40 -49,103 1,78 -18,97 -106,102 -56,3 -84,-1 -148,-23 -71,-25 -84,-26 -128,-16 -27,6 -70,11 -95,11 -73,0 -121,17 -128,45 -3,13 -3,32 0,43 9,29 -21,98 -56,127 -32,27 -95,34 -116,13 -15,-15 -15,-60 0,-93 14,-31 1,-45 -42,-45 -51,0 -101,-22 -152,-65 -28,-25 -58,-45 -65,-45 -30,0 -123,134 -123,178 0,35 -15,72 -34,84 -27,19 -75,6 -140,-36 -60,-40 -73,-45 -120,-43 -48,2 -56,-1 -101,-41 -66,-58 -86,-61 -138,-25 -49,35 -127,63 -175,63 -76,0 -190,-88 -216,-168 -15,-44 -21,-50 -81,-80 -36,-18 -72,-32 -81,-32 -8,0 -37,12 -65,26 -32,16 -79,28 -126,34 -55,6 -81,14 -96,29 -21,21 -21,21 -3,75 31,91 7,176 -50,176 -31,0 -46,-30 -39,-77 3,-21 2,-43 -2,-49 -19,-24 -82,-63 -130,-78 -37,-12 -72,-36 -123,-83 l -71,-66 -50,11 c -62,15 -134,15 -159,2 -11,-6 -37,-36 -60,-67 -35,-50 -40,-63 -40,-112 0,-63 -11,-87 -34,-78 -23,9 -31,55 -18,104 7,24 12,57 12,73 0,17 7,47 15,67 8,19 15,52 15,73 0,31 -7,44 -40,74 -76,68 -113,62 -203,-34 -47,-49 -69,-82 -77,-112 -17,-65 -34,-93 -56,-96 -33,-5 -82,45 -113,113 -30,65 -73,107 -125,119 -42,10 -113,-18 -176,-69 -30,-25 -78,-60 -107,-79 -33,-22 -60,-50 -73,-76 -11,-23 -36,-58 -54,-78 -36,-40 -60,-82 -70,-124 -3,-16 -11,-28 -17,-28 -5,0 -31,20 -57,44 -95,87 -184,136 -250,136 -13,0 -56,10 -94,21 l -71,22 -99,-24 c -121,-28 -144,-21 -168,51 -22,64 -70,153 -89,165 -30,18 -61,23 -92,15 -43,-12 -176,-110 -189,-139 -6,-14 -8,-46 -4,-81 6,-54 4,-59 -24,-90 -29,-33 -31,-34 -138,-41 -60,-3 -122,-12 -137,-18 -40,-16 -82,-14 -137,6 -45,16 -51,16 -86,1 -22,-9 -55,-19 -75,-22 -19,-4 -73,-22 -120,-42 -46,-19 -106,-41 -132,-48 -27,-8 -61,-26 -77,-41 -27,-26 -33,-27 -77,-20 -90,16 -140,12 -165,-13 l -23,-23 V 11 l 23,-23 23,-23 h 17478 l 23,23 23,23 v 2298 c 0,2248 0,2299 -19,2320 -25,27 -97,68 -161,91 -107,39 -138,51 -183,74 -41,21 -145,57 -161,56 -3,0 -13,-5 -22,-10 z"
       id="path6" /></g><path
     fill="#202b30"
     d="m 14213.121,12376 c -113,-77 -143,-108 -162,-173 -9,-31 -16,-67 -16,-80 0,-40 36,-79 117,-128 50,-30 83,-58 92,-76 35,-73 118,-123 179,-107 47,12 197,162 228,228 14,29 34,61 45,71 26,23 25,91 -2,154 -14,33 -40,64 -81,99 -70,60 -93,67 -153,52 -30,-7 -52,-8 -70,-1 -57,22 -100,12 -177,-39 z m -1933,-848 c -23,-6 -106,-63 -150,-104 -16,-15 -66,-44 -110,-64 -44,-20 -99,-54 -123,-77 -44,-41 -113,-77 -145,-78 -11,0 -32,9 -47,20 -16,11 -50,23 -77,27 -28,3 -60,16 -76,29 -37,31 -88,39 -153,25 -95,-22 -168,-66 -241,-147 -37,-41 -74,-74 -81,-74 -7,0 -27,-14 -44,-30 -26,-26 -29,-35 -24,-66 4,-19 18,-56 32,-81 13,-25 24,-59 24,-74 0,-20 10,-35 35,-55 19,-14 35,-30 35,-35 0,-4 -14,-30 -31,-58 -22,-35 -39,-51 -53,-51 -18,0 -82,-11 -216,-38 -26,-5 -40,-16 -56,-46 -12,-21 -39,-48 -60,-60 -46,-25 -51,-42 -33,-114 14,-60 42,-87 81,-77 14,4 42,-2 68,-14 31,-14 66,-21 114,-21 71,0 131,-14 246,-56 36,-13 85,-24 109,-24 37,0 48,5 84,43 39,40 50,44 145,66 139,31 162,51 162,132 0,61 -15,104 -45,129 -43,35 -161,72 -257,79 -54,4 -104,13 -112,20 -17,14 -21,89 -8,124 8,20 103,72 169,92 23,7 61,27 83,45 26,21 64,38 103,47 34,8 72,17 83,19 12,3 36,-2 54,-11 27,-14 38,-15 80,-4 41,10 52,10 72,-3 13,-8 39,-18 59,-22 23,-4 49,-20 75,-47 76,-80 141,-92 213,-38 l 30,22 70,-42 c 39,-23 71,-46 71,-51 0,-5 -43,-46 -94,-90 -52,-44 -98,-89 -101,-99 -3,-10 -1,-31 5,-47 13,-34 4,-96 -21,-146 -23,-44 -24,-81 -5,-97 8,-7 18,-27 22,-44 12,-57 12,-57 183,-51 145,5 160,8 216,34 90,43 135,60 160,60 13,0 49,14 80,30 43,23 70,30 112,30 49,0 58,3 84,33 74,83 82,89 111,83 33,-6 81,-28 128,-58 43,-28 121,-28 242,-2 79,17 79,17 106,-5 15,-12 47,-31 71,-43 63,-29 162,-21 306,25 61,20 132,39 160,42 41,6 57,15 92,50 36,36 43,49 43,82 0,28 -6,46 -21,59 -21,19 -66,21 -209,11 -31,-2 -36,2 -53,38 -25,52 -33,57 -89,50 -53,-6 -108,12 -175,57 -23,15 -45,28 -50,28 -5,0 -26,12 -48,27 -22,15 -60,30 -85,34 -25,5 -71,13 -103,18 -32,6 -83,22 -114,36 -69,31 -81,31 -128,-1 -21,-14 -62,-34 -92,-46 -45,-17 -59,-18 -86,-8 -18,7 -66,16 -107,20 -45,5 -98,19 -134,35 -32,15 -84,31 -115,34 -88,11 -135,41 -156,98 -28,77 -30,127 -7,176 11,23 23,57 27,74 3,18 11,35 16,38 14,9 11,63 -6,94 -16,33 -33,41 -80,41 -21,0 -44,9 -63,25 -26,21 -39,25 -93,24 -35,-1 -73,-4 -84,-6 z m -3921.9998,-994 c -23,-11 -52,-33 -64,-50 -12,-17 -33,-35 -48,-41 -40,-16 -354,-11 -415,7 -102,30 -206,11 -226,-41 -15,-38 -5,-59 46,-102 25,-20 68,-67 95,-104 58,-78 111,-106 176,-93 21,4 108,9 194,11 144,3 162,6 240,34 104,39 123,50 139,89 11,27 9,36 -10,77 -23,46 -23,47 -5,80 24,44 15,101 -20,132 -31,26 -46,27 -102,1 z"
     id="path7" /><g
     fill="#172841"
     id="g11"
     transform="translate(35.121181,35.000001)"><path
       d="m 187,13544 c -4,-4 -43,-10 -88,-14 -69,-6 -85,-11 -107,-34 l -27,-26 -3,-428 c -2,-489 -4,-479 68,-474 25,1 89,5 143,8 139,8 187,-11 313,-125 117,-105 170,-141 222,-148 50,-7 76,7 108,59 24,37 28,40 60,35 49,-8 90,9 114,48 24,39 50,53 50,27 0,-9 -7,-37 -16,-62 -20,-57 -11,-185 14,-214 10,-10 44,-32 77,-48 57,-29 62,-30 105,-18 66,18 92,14 120,-20 14,-17 42,-35 63,-41 l 37,-10 -2,-57 c -1,-31 5,-88 13,-127 8,-38 13,-111 12,-161 -2,-84 -1,-93 21,-113 23,-21 47,-26 116,-21 44,3 134,-47 138,-77 2,-11 -6,-48 -17,-81 -36,-107 -33,-120 62,-215 45,-45 96,-87 112,-93 17,-6 57,-20 90,-31 33,-11 83,-31 111,-43 50,-22 51,-22 89,-5 40,20 36,21 142,-26 l 52,-22 62,28 63,28 24,-29 c 13,-16 40,-56 59,-89 49,-82 50,-138 6,-225 -41,-79 -42,-112 -4,-151 40,-40 74,-37 166,11 42,22 84,40 94,40 10,0 39,-9 65,-20 34,-16 63,-20 114,-18 65,2 72,0 126,-36 65,-43 136,-56 211,-37 54,14 54,14 177,-76 48,-34 127,-84 175,-109 49,-26 95,-52 103,-59 31,-26 61,-35 132,-41 40,-3 96,-9 123,-14 49,-8 115,-2 191,19 21,5 56,13 77,16 26,4 55,22 98,60 33,29 73,57 89,60 16,4 60,29 97,56 37,27 73,49 80,49 30,0 64,-23 136,-94 57,-55 89,-78 120,-87 23,-6 68,-20 100,-30 34,-11 86,-19 130,-19 39,0 90,-5 112,-10 26,-6 54,-5 80,1 22,6 87,14 145,18 99,8 134,13 270,42 107,22 218,10 355,-38 98,-34 128,-37 190,-18 15,4 41,-7 89,-40 37,-26 88,-56 112,-67 52,-23 56,-41 12,-59 -18,-7 -49,-28 -68,-46 -19,-17 -48,-44 -63,-58 -30,-27 -31,-42 -5,-58 23,-15 61,-1 118,44 54,42 87,50 137,31 15,-6 51,-13 78,-16 28,-3 62,-9 77,-12 64,-14 36,67 -33,94 -38,15 -38,15 -23,44 39,75 -35,112 -163,81 -18,-4 -26,4 -52,56 -38,73 -39,101 -6,129 14,12 26,30 26,39 6,89 -33,111 -241,132 -41,5 -91,15 -110,23 -37,15 -35,9 -43,153 l -2,40 60,6 c 33,3 77,12 97,19 31,11 44,11 77,0 48,-16 81,-5 145,48 72,60 87,64 201,50 96,-13 100,-14 114,-43 39,-84 71,-85 154,-7 34,32 79,69 100,81 20,13 55,37 76,55 30,25 62,38 133,55 121,29 186,59 245,114 52,48 147,91 224,101 26,3 83,25 131,50 145,75 162,73 281,-33 79,-71 91,-73 199,-35 40,15 88,27 107,26 67,-2 198,-118 218,-194 15,-58 36,-71 159,-102 55,-13 127,-36 162,-51 34,-14 86,-29 114,-32 35,-4 60,-14 82,-33 36,-32 121,-60 182,-60 24,0 48,-6 54,-12 5,-7 19,-25 31,-40 27,-37 67,-36 160,3 70,30 74,30 106,15 24,-12 63,-16 140,-16 92,0 113,3 157,25 28,13 68,27 88,30 27,4 52,20 86,53 69,67 119,101 161,108 20,4 48,13 63,20 15,8 47,14 72,14 25,0 47,4 51,9 3,5 39,26 81,45 86,41 109,75 98,145 -9,56 7,75 90,110 l 74,31 70,-24 c 38,-13 80,-29 92,-36 51,-27 190,-40 280,-25 41,6 49,4 84,-24 21,-17 46,-31 55,-32 49,-2 75,-10 102,-33 17,-14 39,-26 49,-26 28,0 127,39 176,69 63,37 69,53 54,156 l -12,87 31,43 c 17,23 35,54 40,68 5,14 25,37 43,51 28,21 44,25 93,24 40,-1 71,4 93,16 33,17 91,98 92,127 0,9 14,34 31,55 22,28 29,44 24,63 -3,13 -42,63 -85,110 -68,73 -81,94 -90,137 -7,32 -23,66 -43,90 -18,22 -45,56 -60,77 -16,20 -52,52 -81,71 -29,19 -66,54 -82,77 -16,24 -47,54 -69,66 -30,16 -46,37 -70,85 -28,58 -35,66 -94,96 -35,17 -77,32 -93,32 -48,0 -68,16 -68,55 0,65 -60,81 -76,20 -5,-19 -16,-27 -48,-36 -22,-6 -72,-22 -110,-35 l -68,-24 -63,25 c -76,30 -113,31 -165,5 -52,-27 -58,-26 -95,14 -18,20 -49,40 -76,47 -48,15 -161,18 -251,6 -57,-7 -58,-7 -73,24 -9,17 -31,37 -50,45 -18,7 -63,36 -99,63 -84,64 -131,77 -212,61 -51,-10 -70,-9 -123,5 -49,13 -70,14 -96,5 -43,-14 -91,-68 -122,-138 -22,-46 -24,-61 -18,-121 l 7,-67 -37,-32 c -45,-40 -68,-40 -130,-1 -27,17 -59,35 -71,39 -27,11 -161,-7 -190,-25 -14,-9 -59,-12 -151,-11 l -131,2 -69,46 c -81,56 -111,68 -166,68 -52,0 -81,-15 -152,-77 -101,-88 -147,-230 -95,-296 30,-37 25,-47 -22,-47 -24,-1 -54,-7 -68,-15 -14,-8 -40,-14 -57,-15 -18,0 -76,-17 -129,-37 -81,-31 -107,-48 -166,-102 l -69,-64 -51,28 c -48,26 -55,27 -95,17 -24,-7 -82,-12 -128,-12 -138,0 -189,-35 -159,-108 10,-24 12,-55 7,-109 -7,-85 -22,-109 -87,-146 -24,-13 -50,-40 -66,-67 -24,-42 -30,-45 -76,-50 -29,-3 -62,-15 -80,-28 -28,-21 -34,-22 -77,-11 -25,6 -66,9 -89,7 -32,-4 -55,1 -89,19 -41,21 -57,23 -170,22 -84,-2 -148,-8 -198,-21 -90,-23 -123,-39 -180,-89 -24,-22 -49,-39 -56,-39 -7,0 -48,29 -91,65 -71,59 -82,65 -124,65 -34,0 -54,-8 -84,-30 -33,-25 -49,-30 -98,-30 -32,0 -73,-6 -91,-14 -40,-16 -223,-209 -254,-268 -13,-22 -23,-56 -23,-73 0,-30 -4,-34 -51,-49 -87,-29 -127,-7 -150,79 -6,22 -24,54 -40,72 -15,18 -33,50 -39,72 -11,42 -48,79 -110,111 -20,10 -42,26 -50,35 -23,28 -70,47 -99,40 -15,-3 -48,-26 -74,-50 -40,-39 -48,-53 -58,-107 -10,-49 -19,-68 -42,-88 -17,-14 -49,-42 -72,-62 -61,-54 -90,-52 -116,10 -11,26 -30,57 -42,70 -19,21 -23,38 -27,137 -6,141 -17,156 -107,163 -84,5 -153,-32 -208,-112 -31,-46 -48,-62 -74,-69 -19,-4 -50,-19 -70,-33 -63,-43 -124,-58 -181,-44 -39,9 -58,22 -94,63 -102,117 -87,107 -169,107 -67,0 -78,3 -112,30 -66,52 -116,37 -159,-48 -27,-52 -74,-67 -161,-52 -38,7 -87,16 -107,21 -27,7 -47,5 -76,-7 -37,-14 -42,-14 -66,1 -13,9 -36,32 -51,50 -32,42 -115,235 -115,267 0,34 -44,93 -83,111 -30,14 -45,15 -113,5 -60,-8 -93,-8 -136,1 -68,14 -88,37 -88,96 0,55 -50,141 -94,162 -43,20 -81,13 -170,-32 -86,-43 -106,-44 -130,-5 -29,50 -89,84 -155,87 -45,2 -59,7 -71,25 -8,12 -29,41 -46,63 -22,29 -33,56 -36,91 -3,35 -15,65 -41,102 -45,66 -69,146 -65,220 l 3,57 39,6 c 21,3 42,12 47,20 17,28 10,69 -18,95 -34,32 -66,39 -103,24 -39,-16 -65,-9 -129,40 -61,46 -81,49 -136,15 -22,-14 -49,-25 -59,-25 -11,0 -48,-14 -83,-31 -35,-17 -70,-28 -79,-25 -8,3 -22,20 -32,38 -23,43 -130,156 -165,175 -42,21 -193,35 -238,21 -32,-9 -44,-7 -90,14 -30,14 -71,31 -91,37 -21,7 -49,26 -63,42 -21,26 -25,41 -25,95 0,109 -39,158 -135,169 -33,3 -81,17 -107,31 -45,23 -107,32 -121,18 z m 9814,-1874 c 11,-29 63,-70 90,-70 8,0 41,-14 74,-30 33,-16 70,-30 83,-30 27,0 29,-26 3,-54 -17,-20 -42,-83 -60,-152 -10,-36 -78,-156 -116,-201 -21,-25 -35,-33 -60,-33 -77,0 -131,-20 -191,-71 -57,-48 -61,-50 -114,-47 l -55,3 -5,40 c -4,34 -11,43 -48,63 l -42,24 6,64 7,64 -40,40 c -51,50 -90,53 -147,10 -31,-24 -50,-30 -88,-30 -60,0 -106,23 -178,89 l -54,50 11,53 c 7,34 7,62 1,80 -13,37 10,74 74,116 48,32 53,33 94,23 23,-6 64,-11 89,-11 44,0 50,-4 111,-65 35,-36 75,-67 87,-71 28,-6 107,23 161,59 21,15 52,27 67,27 38,0 115,30 164,63 51,34 64,34 76,-3 z M 6058,10551 c 25,-14 -111,-111 -156,-111 -9,0 -46,27 -81,59 l -63,60 38,4 c 51,6 245,-3 262,-12 z m 8032,2081 c -50,-24 -80,-75 -80,-131 0,-72 -34,-128 -105,-177 -45,-30 -66,-53 -86,-93 -15,-28 -37,-64 -51,-79 -25,-27 -105,-175 -132,-244 -9,-23 -29,-46 -53,-61 -63,-40 -100,-90 -123,-165 -36,-123 -21,-174 53,-174 46,0 73,9 121,41 34,22 55,27 155,34 186,14 222,12 261,-8 79,-41 152,-37 190,12 27,34 25,73 -6,135 -39,77 -109,141 -169,156 -111,28 -129,36 -139,64 -8,23 -3,35 41,95 28,37 58,85 66,105 11,27 24,39 44,44 15,4 64,33 109,66 86,61 98,65 168,46 53,-14 79,-1 126,64 41,56 41,109 0,148 -42,39 -91,60 -144,60 -36,0 -52,6 -80,31 -33,28 -82,49 -116,49 -8,0 -31,-8 -50,-18 z"
       id="path8" /><path
       d="m 7473,10436 c -28,-24 -51,-35 -87,-40 -62,-8 -90,-33 -116,-103 -24,-65 -16,-111 31,-175 16,-23 29,-49 29,-58 0,-10 18,-45 41,-78 33,-50 38,-65 30,-81 -6,-11 -11,-33 -11,-50 0,-38 29,-55 78,-47 34,5 40,2 98,-59 35,-36 69,-65 78,-65 8,0 28,11 44,25 17,14 41,25 54,25 48,0 91,41 133,128 22,45 59,101 83,125 46,47 66,96 53,131 -16,41 -37,49 -101,43 -76,-8 -96,1 -144,68 -22,30 -56,70 -78,89 -27,25 -38,43 -38,63 0,32 -13,52 -50,77 -40,26 -85,21 -127,-18 z m 2887,-215 c -39,-21 -124,-124 -147,-178 -12,-31 -12,-42 7,-110 23,-84 42,-125 76,-166 27,-32 31,-59 10,-76 -28,-24 -26,-58 9,-155 19,-52 40,-104 47,-115 17,-27 59,-41 124,-41 40,0 68,-8 118,-34 98,-51 130,-60 170,-46 31,10 46,26 46,51 0,5 -18,29 -40,52 -73,80 -79,134 -20,188 45,41 49,63 20,116 -11,21 -20,52 -20,69 0,17 -7,53 -16,80 -16,52 -29,123 -43,244 -11,93 -16,107 -52,125 -44,23 -243,20 -289,-4 z M 6813,9706 c -39,-18 -58,-47 -74,-111 -16,-69 -27,-96 -48,-124 l -18,-23 -41,21 c -60,30 -102,28 -137,-9 -23,-24 -37,-30 -71,-30 -38,0 -47,-5 -75,-39 -17,-22 -43,-42 -58,-46 -47,-11 -79,-27 -85,-42 -3,-8 -1,-45 4,-81 10,-62 14,-70 61,-114 51,-47 59,-73 29,-89 -85,-45 -124,-56 -163,-47 -26,6 -58,5 -87,-1 -25,-5 -66,-13 -93,-16 -56,-7 -99,-40 -99,-75 0,-68 19,-187 32,-206 9,-12 53,-61 98,-109 l 83,-88 64,7 c 58,6 65,5 65,-11 -1,-10 -7,-29 -15,-43 -8,-14 -14,-33 -15,-42 0,-27 36,-58 68,-58 46,-1 106,-35 179,-102 48,-43 89,-71 131,-87 77,-30 100,-22 177,61 75,81 75,105 -2,188 -63,69 -97,90 -145,90 -18,1 -43,6 -54,13 -30,17 -144,124 -144,135 0,5 25,15 55,22 137,33 170,109 96,225 -33,52 -39,75 -18,75 18,0 54,-26 119,-87 l 57,-53 h 95 c 53,0 98,-4 101,-10 3,-6 -10,-25 -29,-44 -20,-18 -36,-43 -36,-55 0,-67 121,-193 199,-206 59,-10 161,-100 161,-142 0,-21 87,-109 125,-127 38,-18 107,-21 136,-6 35,19 17,85 -57,207 -13,23 -16,37 -9,46 6,8 25,34 43,58 32,41 34,48 30,107 -5,74 -21,95 -100,127 -79,31 -113,86 -122,196 l -7,83 46,46 c 59,60 59,84 0,139 -24,22 -51,41 -59,41 -33,0 -66,23 -66,46 0,13 5,26 11,29 21,13 27,50 14,85 -7,19 -16,48 -20,64 -3,16 -17,43 -31,61 -13,17 -24,41 -24,53 0,40 -41,72 -110,88 -105,23 -133,25 -167,10 z M 3570,9103 c -13,-17 -20,-38 -18,-57 4,-41 -22,-45 -102,-17 -73,26 -93,26 -147,2 -46,-21 -178,-29 -271,-16 -74,11 -132,-8 -193,-62 -63,-57 -67,-97 -15,-149 32,-32 38,-34 105,-34 63,0 78,4 147,40 69,37 81,40 123,34 38,-6 54,-15 91,-55 54,-57 83,-70 147,-63 37,4 57,0 88,-15 21,-12 47,-21 56,-21 9,0 43,-13 74,-30 31,-16 67,-30 79,-30 44,0 126,31 140,53 8,12 18,62 21,112 6,70 12,98 31,127 42,66 33,86 -57,117 -30,10 -92,35 -137,55 -102,44 -133,46 -162,9 z m 5488,-53 c -53,-53 -50,-84 13,-125 25,-16 77,-58 115,-93 38,-34 93,-74 122,-88 29,-14 87,-47 129,-75 86,-56 117,-67 138,-49 27,23 16,50 -76,177 -50,70 -100,147 -111,171 -22,46 -63,73 -128,87 -19,4 -45,13 -57,21 -12,8 -41,14 -64,14 -35,0 -48,-6 -81,-40 z"
       id="path9" /><path
       d="m 4505,9003 c -91,-5 -99,-13 -91,-85 5,-47 1,-66 -18,-110 -14,-29 -28,-80 -31,-113 -5,-41 -17,-74 -36,-104 -32,-49 -37,-95 -14,-125 8,-11 15,-30 15,-41 0,-21 -5,-22 -67,-22 -38,1 -85,-3 -106,-7 -25,-6 -63,-4 -105,4 -49,9 -78,9 -107,2 -22,-6 -125,-12 -229,-14 l -190,-3 -12,47 c -11,46 -39,93 -69,118 -10,8 -51,13 -118,15 -89,1 -114,6 -197,37 -52,19 -111,44 -130,56 -43,27 -60,27 -110,2 -44,-22 -116,-26 -166,-8 -26,9 -48,7 -130,-12 -145,-34 -233,-31 -497,16 -48,9 -95,13 -105,9 -9,-4 -61,-10 -114,-14 -82,-6 -103,-12 -134,-33 -35,-25 -37,-26 -81,-11 -28,10 -64,14 -96,10 -46,-4 -56,-9 -89,-48 l -38,-44 h -92 c -66,0 -115,6 -168,22 -147,43 -216,55 -281,50 -35,-3 -118,-10 -184,-15 -130,-12 -424,-1 -555,19 -115,18 -147,16 -173,-9 l -22,-23 -3,-777 c -2,-545 0,-788 8,-815 12,-41 15,-43 150,-93 106,-39 146,-59 219,-109 36,-25 81,-47 105,-51 41,-7 136,-54 154,-77 5,-7 12,-34 16,-62 18,-145 25,-178 44,-197 27,-27 95,-33 165,-15 61,16 104,11 141,-18 18,-14 41,-99 30,-116 -3,-5 -32,-9 -65,-9 -41,0 -81,-8 -122,-24 -34,-14 -82,-30 -106,-36 -73,-19 -111,-56 -111,-109 0,-63 165,-251 220,-251 7,0 27,17 46,37 31,33 36,35 59,25 73,-33 170,-2 195,63 12,31 58,119 76,143 1,2 16,1 33,-3 21,-4 46,-25 77,-63 60,-73 100,-102 141,-102 33,0 41,6 97,71 9,11 29,19 46,19 16,0 55,10 86,21 55,21 63,21 158,9 104,-13 131,-24 202,-81 35,-28 44,-30 89,-25 101,11 151,24 205,49 57,28 126,35 159,17 10,-5 33,-32 50,-59 18,-28 43,-53 59,-58 15,-5 56,-20 92,-33 37,-14 88,-24 120,-24 45,-1 64,-7 105,-34 51,-34 63,-35 122,-11 29,12 37,11 62,-4 32,-19 86,-21 146,-7 22,6 69,14 105,20 57,8 69,14 101,48 22,24 49,43 70,47 19,4 48,18 65,31 31,23 33,23 100,9 38,-8 95,-15 126,-15 49,0 62,-4 92,-30 43,-38 51,-73 31,-130 -23,-66 -1,-113 59,-126 38,-8 160,-105 192,-154 13,-19 40,-48 60,-64 34,-27 36,-31 30,-73 -4,-28 -1,-56 8,-78 30,-70 113,-86 409,-78 203,5 214,6 250,29 21,14 53,49 72,79 19,29 43,56 52,59 30,10 102,83 109,110 3,13 11,27 18,29 17,7 100,-9 169,-33 31,-11 63,-20 70,-20 35,0 98,-56 123,-110 62,-132 160,-179 284,-135 23,8 69,15 102,15 33,0 106,11 162,24 136,33 213,46 272,46 49,0 188,-25 208,-38 6,-3 90,-10 186,-14 279,-12 565,-37 590,-53 15,-9 148,-26 270,-35 146,-10 240,-25 313,-50 32,-12 84,-20 120,-20 34,0 96,-9 137,-20 112,-30 224,-44 330,-42 52,1 340,5 640,8 493,5 553,3 629,-12 70,-15 92,-24 128,-56 49,-42 64,-45 116,-23 20,8 49,15 64,15 14,0 55,7 89,16 47,12 72,13 99,5 71,-19 110,2 193,107 30,38 37,42 78,42 29,0 49,-6 59,-17 8,-10 28,-34 44,-53 28,-33 32,-35 88,-33 32,2 170,5 306,9 206,4 259,3 311,-10 87,-22 101,-21 145,19 21,19 43,35 50,35 6,0 36,-23 67,-50 65,-59 88,-70 153,-70 60,0 74,15 76,83 1,29 5,80 10,115 l 8,62 -55,55 c -65,65 -91,69 -158,25 -25,-16 -54,-30 -65,-29 -36,1 -109,43 -130,76 -20,32 -33,51 -99,151 -55,80 -151,117 -351,136 -72,7 -146,20 -166,29 -21,9 -70,17 -117,19 -74,3 -82,1 -107,-22 -38,-36 -49,-59 -49,-109 -1,-41 -4,-47 -42,-70 -23,-14 -60,-39 -83,-55 -40,-28 -42,-28 -61,-11 -12,11 -20,33 -22,63 -4,61 -36,86 -108,84 -63,-1 -86,7 -150,55 -37,28 -53,48 -60,75 -8,28 -35,59 -111,130 -118,109 -193,150 -277,149 -29,0 -64,4 -78,9 -21,8 -29,6 -47,-13 -12,-13 -26,-31 -32,-41 -9,-15 -12,-15 -29,-3 -13,9 -22,37 -31,99 -18,123 -47,176 -160,293 -53,55 -103,111 -110,126 -8,14 -32,42 -54,62 -48,43 -93,49 -134,17 -15,-12 -40,-20 -61,-20 -20,0 -54,-9 -76,-20 -30,-15 -59,-20 -123,-20 -74,0 -90,3 -150,34 -99,50 -100,50 -92,117 5,43 3,63 -7,78 -27,38 -212,194 -253,212 -50,23 -124,24 -173,3 -28,-12 -67,-16 -161,-14 -117,1 -127,3 -185,32 -43,22 -74,31 -106,30 -25,0 -74,-1 -110,-2 -58,-2 -190,-32 -260,-60 -20,-9 -36,-6 -73,10 -27,12 -63,20 -86,19 -36,-3 -44,2 -99,59 -69,72 -100,79 -151,36 -28,-23 -40,-51 -56,-126 -4,-23 -18,-34 -73,-59 -60,-27 -73,-30 -122,-23 -59,8 -94,8 -239,0 -82,-4 -97,-8 -120,-29 -50,-47 -92,-41 -105,15 -6,28 14,58 40,58 22,0 54,38 54,65 0,16 -18,44 -48,78 -35,39 -55,74 -76,132 -16,44 -42,98 -58,121 -16,22 -35,63 -43,90 -30,109 -53,154 -102,199 -53,49 -135,95 -168,95 -28,0 -55,-30 -55,-61 0,-46 103,-214 170,-278 24,-22 42,-52 49,-79 7,-25 30,-63 56,-92 53,-60 59,-86 18,-76 -16,4 -51,10 -80,13 -54,6 -56,5 -117,-69 -16,-18 -111,-34 -150,-24 -13,3 -34,22 -46,41 -13,21 -49,51 -91,76 -39,23 -84,59 -102,79 -18,21 -55,49 -83,63 -28,14 -71,41 -97,61 -25,19 -60,42 -79,52 -59,30 -61,34 -28,64 17,16 30,38 30,52 -1,44 -62,140 -115,180 -27,20 -54,41 -59,46 -4,6 -46,49 -93,96 -50,52 -92,105 -103,132 -21,47 -47,64 -101,64 -36,0 -118,72 -143,125 -22,45 -20,103 4,143 18,30 23,32 76,32 54,0 60,-3 123,-54 180,-147 281,-270 281,-340 0,-38 17,-66 40,-66 28,0 43,36 37,87 -6,58 -84,173 -153,225 -49,37 -140,134 -176,187 -30,44 -23,72 28,116 39,34 47,47 51,85 6,63 -20,109 -77,137 -42,20 -46,25 -56,75 -9,45 -7,63 9,118 11,36 21,89 21,118 1,66 -24,93 -83,90 -20,-1 -67,-4 -106,-5 z M 2608,8421 c 31,-15 75,-31 97,-35 51,-9 185,-56 185,-66 0,-4 -13,-24 -30,-45 -39,-49 -39,-89 -2,-141 16,-21 36,-45 45,-53 11,-8 17,-28 17,-53 0,-63 23,-99 111,-175 46,-39 111,-95 143,-123 41,-35 77,-55 115,-66 44,-13 67,-27 104,-66 52,-56 58,-71 25,-63 -13,3 -65,-3 -117,-13 l -94,-19 -66,36 c -58,31 -75,35 -146,37 -61,1 -88,7 -116,23 -19,11 -60,29 -91,40 -69,24 -132,65 -146,95 -18,41 -3,47 74,31 92,-19 107,-19 129,5 22,24 30,151 12,185 -44,84 -96,118 -166,109 -42,-5 -53,-3 -81,17 -50,38 -73,82 -62,121 10,38 1,72 -24,86 -10,5 -61,7 -119,5 -119,-7 -187,9 -253,58 -57,42 -47,47 110,54 112,6 220,23 236,39 13,13 56,4 110,-23 z m -819,-11 c 23,-6 48,-6 78,2 38,9 49,8 78,-8 19,-10 35,-20 35,-22 0,-13 -86,-102 -99,-102 -9,0 -36,7 -61,16 -24,8 -70,16 -102,18 -45,2 -64,8 -81,25 l -22,22 33,30 c 35,31 78,37 141,19 z m 47,-209 c 32,-11 86,-27 119,-36 40,-11 69,-27 90,-49 16,-17 51,-46 76,-63 25,-18 54,-44 64,-60 10,-15 45,-54 77,-85 87,-86 85,-88 -85,-88 h -144 l -96,-60 c -76,-48 -103,-60 -137,-60 -22,0 -59,-10 -82,-21 -34,-17 -50,-20 -87,-14 -73,12 -91,9 -138,-25 -58,-40 -78,-37 -78,14 0,24 6,42 15,47 8,4 41,19 72,34 48,22 67,39 112,101 67,92 75,124 53,230 -22,106 -21,120 5,138 30,21 92,20 164,-3 z m 1991,-224 c 68,-63 168,-130 291,-194 37,-20 76,-44 86,-54 20,-18 20,-19 -5,-76 -31,-74 -32,-150 -3,-190 33,-45 101,-75 152,-68 37,6 50,2 85,-21 23,-16 69,-38 102,-49 64,-22 105,-66 105,-111 0,-34 -32,-31 -91,7 -45,29 -51,30 -86,19 -52,-18 -200,-7 -249,18 -22,10 -52,22 -69,26 -54,12 -264,116 -266,131 0,6 0,28 1,50 2,51 -22,75 -82,82 -48,6 -178,65 -203,93 -41,45 -56,188 -30,278 13,43 23,57 57,79 95,59 123,57 205,-20 z m -277,-502 c 16,-19 0,-19 -26,0 -16,12 -16,14 -3,15 9,0 22,-7 29,-15 z m 2278,-45 c 46,-33 65,-61 56,-84 -8,-20 -14,-20 -41,-1 -19,13 -73,94 -73,109 0,13 19,5 58,-24 z M 4787,7241 c 31,-20 133,-134 133,-151 0,-19 -21,-19 -111,0 -130,28 -125,25 -95,61 18,21 26,42 26,70 0,45 3,46 47,20 z m -259,-109 c 2,-7 -2,-10 -12,-6 -9,3 -16,11 -16,16 0,13 23,5 28,-10 z m 1542,-207 c 6,-8 9,-19 5,-25 -10,-16 -65,-12 -72,6 -11,30 44,46 67,19 z m 712,-334 c 40,-16 119,-39 174,-51 l 102,-23 55,32 c 44,25 66,31 114,31 66,0 74,-6 148,-109 44,-61 82,-81 155,-81 49,0 55,3 110,56 l 59,56 43,-30 c 47,-33 103,-51 245,-77 78,-14 102,-15 165,-4 96,16 124,3 174,-84 40,-70 126,-136 206,-161 25,-7 74,-34 109,-58 35,-25 89,-58 119,-73 30,-15 76,-47 101,-71 49,-45 95,-69 157,-80 44,-9 149,-77 157,-104 7,-23 -6,-50 -51,-106 -19,-22 -37,-55 -40,-71 -3,-18 -25,-49 -49,-73 -37,-37 -50,-43 -102,-49 -65,-8 -110,-35 -167,-104 -39,-47 -59,-45 -81,6 -17,41 -36,58 -67,59 -61,1 -84,13 -153,78 -90,85 -127,98 -215,75 -33,-9 -75,-25 -93,-35 -23,-15 -50,-20 -100,-20 -66,0 -104,-11 -119,-34 -14,-20 -8,-66 13,-107 19,-38 19,-42 4,-65 -18,-28 -65,-33 -86,-8 -7,9 -16,37 -21,62 -4,26 -10,61 -14,78 -5,26 0,38 35,78 40,46 50,81 35,121 -4,9 -33,34 -65,56 -73,49 -86,71 -64,105 8,13 35,36 58,50 60,37 126,103 143,143 14,32 23,45 104,144 46,55 49,83 19,137 -26,46 -57,64 -95,56 -41,-10 -122,-71 -146,-112 -11,-19 -26,-34 -34,-34 -7,0 -43,-16 -80,-37 -51,-27 -80,-53 -125,-110 -60,-76 -68,-98 -48,-135 21,-39 37,-126 26,-137 -6,-6 -36,-11 -67,-11 -43,0 -63,5 -88,24 -35,25 -125,125 -141,155 -15,26 -119,78 -181,89 -30,6 -56,15 -58,22 -10,28 -52,64 -112,93 -56,28 -65,35 -63,57 9,98 8,120 -12,139 -37,36 -95,31 -164,-14 -29,-19 -61,-35 -72,-35 -24,0 -43,38 -65,127 -15,64 -15,73 -1,93 18,26 115,110 127,110 5,0 41,-13 82,-29 z m -927,-90 c 25,-37 60,-61 92,-61 8,0 46,-16 84,-36 56,-29 81,-52 129,-111 33,-42 57,-80 54,-85 -15,-23 -122,-2 -208,40 -74,37 -90,50 -130,106 -51,72 -76,91 -138,106 -25,6 -58,22 -74,35 l -29,24 65,2 c 36,0 76,5 90,9 14,4 28,8 32,9 4,1 19,-16 33,-38 z M 7673,5483 c 9,-9 -43,-63 -60,-63 -18,0 -16,30 4,52 16,18 44,24 56,11 z m 221,3227 c -55,-22 -42,-65 38,-124 35,-26 74,-63 88,-83 50,-73 64,-78 235,-81 151,-3 154,-3 168,20 25,38 31,105 13,133 -26,39 -75,47 -154,24 -59,-17 -74,-18 -125,-8 -52,11 -62,17 -90,55 -48,65 -112,89 -173,64 z m 757,-499 c -12,-8 -9,-21 19,-78 18,-37 44,-85 57,-105 22,-37 33,-118 15,-118 -5,0 -26,13 -48,30 -46,35 -95,38 -163,12 -84,-32 -86,-40 -83,-303 3,-266 8,-289 67,-309 40,-13 140,-7 160,10 8,6 10,28 8,58 -4,41 0,54 29,97 29,44 33,57 30,105 -1,30 0,105 4,167 l 6,111 34,-5 c 30,-5 35,-2 44,21 16,42 12,91 -9,117 -10,13 -32,52 -49,85 -17,34 -45,73 -62,88 -35,29 -39,30 -59,17 z"
       id="path10" /><path
       d="m 6975,8079 c -90,-34 -111,-50 -120,-88 -14,-67 52,-137 197,-211 53,-26 125,-73 160,-102 93,-79 126,-100 149,-96 41,6 45,31 16,96 -15,33 -27,71 -27,84 0,71 -61,189 -144,276 -77,81 -108,87 -231,41 z m 5005,-25 c -52,-35 -65,-79 -35,-120 19,-27 37,-111 30,-135 -6,-18 -41,-32 -106,-43 -61,-11 -79,-56 -44,-109 19,-29 208,-161 264,-184 31,-13 106,-23 302,-40 l 66,-5 67,-73 c 52,-59 70,-87 86,-137 11,-35 20,-66 20,-70 0,-5 -15,-25 -34,-45 -18,-21 -37,-52 -40,-69 -10,-47 12,-121 49,-160 36,-38 61,-42 106,-18 19,9 41,13 59,9 17,-4 52,1 85,11 47,15 63,16 101,6 97,-26 164,-7 164,47 0,31 -21,54 -64,71 l -30,11 33,20 c 19,11 57,29 85,40 32,12 76,42 119,82 63,57 68,66 65,97 -3,34 -6,36 -90,70 -95,39 -113,50 -134,92 -14,28 -60,58 -88,58 -8,0 -37,14 -65,31 -40,25 -67,33 -133,40 -147,15 -345,95 -374,152 -9,17 -54,70 -99,117 -45,47 -92,100 -105,119 -12,18 -46,49 -74,67 -28,19 -66,46 -85,59 -40,29 -67,31 -101,9 z m 4810,-3174 c -30,-4 -68,-13 -83,-19 -15,-6 -74,-20 -130,-31 -77,-15 -128,-33 -207,-73 l -105,-52 h -270 c -300,0 -341,-4 -468,-47 -71,-23 -97,-28 -134,-22 -65,10 -130,40 -182,85 -60,53 -90,56 -234,26 -237,-49 -279,-46 -391,29 -62,42 -93,43 -160,5 -84,-48 -129,-55 -237,-37 -51,9 -110,16 -132,16 -21,0 -71,10 -109,21 -66,20 -77,21 -152,9 -87,-13 -111,-12 -311,16 -143,19 -235,22 -308,10 -40,-7 -63,-5 -123,14 -84,27 -127,21 -132,-17 -5,-38 29,-46 187,-45 80,0 160,1 176,2 84,6 335,-36 335,-55 0,-15 -77,-104 -222,-256 l -111,-116 -153,5 c -126,4 -161,2 -192,-11 -20,-8 -50,-18 -67,-22 -32,-7 -55,-22 -55,-36 0,-4 80,-8 178,-8 247,-1 282,-14 282,-103 0,-66 21,-112 56,-125 180,-67 176,-67 218,-49 29,12 42,28 68,83 27,55 43,75 85,103 29,19 58,47 64,63 11,26 14,27 60,21 46,-6 54,-4 143,50 123,73 137,78 210,70 55,-6 65,-11 107,-53 28,-28 53,-66 64,-96 26,-72 48,-89 111,-82 28,3 71,15 95,28 42,21 48,22 137,11 l 93,-12 62,34 c 72,41 101,66 122,105 18,36 37,43 91,35 32,-4 61,1 120,21 71,24 83,26 133,16 69,-14 124,-14 171,0 36,11 37,10 126,-61 49,-40 99,-77 111,-83 55,-25 135,32 220,156 l 33,47 h 62 c 35,1 81,8 103,16 66,26 144,37 252,36 113,0 141,-10 227,-74 69,-52 88,-56 166,-28 159,57 230,92 245,121 24,45 18,67 -30,113 -25,25 -45,50 -45,57 0,7 11,25 25,39 57,59 35,128 -49,149 -49,12 -64,12 -146,1 z m -538,-268 c 17,-17 3,-37 -51,-76 -41,-29 -48,-31 -150,-34 l -107,-4 -45,37 c -91,77 -121,80 -207,21 -28,-20 -61,-38 -74,-41 -25,-6 -113,33 -113,50 0,5 32,21 70,36 l 70,27 298,-2 c 216,-2 301,-6 309,-14 z m -4182,-208 c -34,-9 -110,-16 -205,-18 -137,-2 -155,-5 -215,-30 -53,-22 -80,-43 -145,-112 -94,-99 -102,-101 -205,-47 l -71,37 -67,-17 c -37,-9 -92,-17 -122,-17 -61,0 -221,30 -289,54 -60,22 -104,20 -218,-10 -171,-44 -298,-92 -376,-139 -66,-40 -81,-45 -133,-45 -50,0 -62,-4 -89,-29 -41,-40 -265,-199 -287,-204 -10,-3 -38,5 -63,18 -24,13 -62,29 -83,35 -22,5 -57,24 -78,41 -54,43 -81,56 -203,96 -101,34 -114,35 -281,40 -228,7 -237,4 -338,-96 -103,-102 -185,-144 -289,-149 -91,-5 -166,17 -249,74 -93,63 -115,68 -215,45 -46,-11 -126,-34 -177,-51 -51,-17 -124,-37 -163,-45 -68,-14 -71,-14 -112,7 -33,18 -60,23 -127,23 -108,2 -267,21 -321,40 -85,30 -124,19 -237,-68 -60,-46 -81,-79 -91,-146 l -7,-46 -51,1 c -28,1 -79,11 -114,22 -58,19 -98,21 -457,26 -374,5 -396,6 -437,26 -26,12 -52,35 -64,55 -24,41 -57,51 -114,36 -23,-7 -60,-17 -82,-22 -22,-5 -76,-34 -120,-64 -62,-42 -95,-58 -140,-66 -115,-20 -146,-29 -187,-57 -37,-24 -52,-27 -147,-30 -106,-4 -106,-4 -171,32 -114,64 -194,99 -236,104 -46,5 -111,-19 -169,-64 -39,-29 -111,-134 -142,-204 -11,-25 -26,-50 -34,-56 -22,-18 -143,-64 -167,-64 -24,0 -74,29 -136,79 -62,49 -161,94 -209,94 -46,0 -105,-25 -179,-76 -89,-61 -142,-91 -158,-90 -25,3 -231,72 -279,94 -84,39 -211,47 -493,34 -83,-4 -156,-3 -185,3 -34,8 -78,7 -149,0 l -100,-12 -90,49 c -174,94 -175,95 -229,95 -28,0 -76,-4 -106,-10 -30,-5 -83,-14 -119,-20 -41,-7 -85,-24 -121,-45 -91,-56 -242,-105 -321,-105 -48,0 -94,-9 -158,-30 -91,-30 -168,-38 -213,-21 -13,5 -48,32 -79,60 -73,66 -166,111 -234,111 -40,0 -59,6 -90,29 -45,32 -74,71 -74,99 0,50 -74,54 -87,4 -5,-15 -8,-262 -8,-549 0,-514 0,-523 21,-543 20,-21 82,-36 185,-47 52,-5 58,-3 92,27 20,17 58,38 84,45 27,7 86,29 133,48 130,53 178,61 254,46 50,-9 72,-10 107,0 24,7 94,16 154,20 136,10 182,30 221,97 23,39 26,53 21,99 -4,43 -2,59 11,74 29,33 104,81 127,81 25,0 58,-52 81,-129 17,-58 67,-107 119,-117 23,-4 67,2 126,16 89,22 93,22 147,5 30,-9 82,-21 115,-25 66,-10 116,-39 202,-120 77,-72 105,-90 140,-90 43,0 67,28 65,77 -4,72 0,84 38,126 21,23 49,61 62,85 14,24 40,53 60,64 19,12 55,40 80,61 25,22 64,48 87,59 61,27 87,12 129,-77 27,-56 46,-79 90,-112 74,-56 100,-56 158,0 24,23 47,54 50,70 3,15 8,39 11,53 6,25 99,134 115,134 4,0 18,-8 31,-19 l 23,-18 -18,-79 c -47,-205 -47,-215 -3,-280 27,-42 37,-49 69,-52 72,-6 109,40 113,140 2,44 9,68 29,97 34,48 52,53 122,35 96,-25 106,-22 193,59 64,60 88,75 141,91 61,19 63,19 76,1 8,-10 14,-22 14,-26 0,-22 93,-60 164,-68 58,-7 87,-16 124,-40 27,-17 56,-31 64,-31 23,0 202,87 220,107 9,10 21,37 27,60 12,46 76,109 120,120 33,8 109,-12 141,-38 76,-60 137,-60 218,2 39,29 62,39 90,39 39,0 104,26 153,60 35,26 45,21 53,-25 4,-20 19,-50 35,-68 15,-17 38,-49 51,-71 47,-78 124,-98 182,-47 64,55 110,81 147,81 20,0 55,9 79,20 l 42,19 20,-39 c 27,-54 56,-70 142,-81 40,-5 104,-14 141,-19 61,-9 76,-8 143,15 126,42 174,32 174,-39 0,-44 29,-101 61,-120 17,-10 59,-21 94,-24 55,-4 69,-1 114,23 83,46 86,52 86,174 0,84 4,111 18,132 18,26 56,49 83,49 8,0 50,-34 94,-75 92,-85 115,-93 217,-75 111,20 143,36 233,116 47,42 104,90 128,106 47,32 55,33 252,12 30,-3 74,-1 96,4 51,11 65,4 104,-53 17,-25 45,-52 63,-61 18,-9 49,-30 71,-47 57,-45 107,-43 226,12 52,24 131,58 175,77 60,26 89,45 117,78 47,54 93,77 140,70 24,-4 57,1 97,15 47,16 85,21 167,21 119,0 127,3 229,80 37,28 90,62 118,76 47,24 55,25 101,15 28,-6 75,-23 104,-36 86,-40 117,-34 197,35 24,20 50,28 123,39 83,13 96,12 130,-3 107,-48 228,-59 292,-26 51,26 69,25 110,-5 46,-34 94,-32 188,7 94,39 148,86 163,142 27,102 34,105 109,44 82,-67 102,-78 146,-78 32,0 49,7 82,35 22,20 80,51 129,71 48,20 102,47 120,60 34,26 111,45 145,36 11,-2 45,2 76,11 173,47 165,47 250,20 42,-14 94,-32 114,-40 38,-16 56,-15 173,7 33,6 83,16 112,21 34,7 68,23 100,47 26,20 70,48 97,62 39,20 55,35 73,72 14,29 36,54 53,63 17,9 30,19 30,24 0,10 -128,41 -169,41 -14,0 -51,16 -81,35 -129,81 -124,79 -265,82 -93,2 -146,-2 -185,-13 z"
       id="path11" /></g><g
     fill="#243c5c"
     id="g13"
     transform="translate(35.121181,35.000001)"><path
       d="m 1072,12714 c -12,-8 -22,-21 -22,-28 0,-23 -54,-112 -98,-161 l -42,-48 -41,12 c -35,10 -44,10 -66,-4 -13,-9 -31,-31 -38,-49 -32,-77 -65,-71 -178,31 -108,99 -170,144 -237,172 -47,20 -70,23 -160,22 -85,-2 -113,-6 -150,-24 -78,-38 -80,-47 -80,-382 0,-213 4,-297 13,-315 15,-30 56,-38 89,-17 13,8 41,18 63,22 22,4 54,15 70,25 34,20 150,44 166,35 5,-4 21,-32 34,-62 21,-47 23,-61 15,-98 -5,-24 -7,-51 -4,-60 4,-9 1,-40 -5,-68 -12,-50 -11,-55 17,-117 53,-112 120,-199 187,-240 66,-40 95,-79 95,-128 0,-49 24,-97 59,-118 45,-26 47,-47 12,-102 -49,-77 -55,-100 -36,-149 18,-48 54,-73 104,-73 17,0 54,-9 83,-21 33,-13 64,-18 83,-15 23,5 43,-2 88,-29 32,-19 70,-37 85,-41 15,-3 35,-8 46,-11 10,-3 46,-30 79,-60 l 60,-56 69,6 c 64,6 72,4 94,-18 15,-15 24,-36 24,-56 0,-45 25,-91 65,-117 19,-12 46,-40 60,-62 14,-22 49,-55 78,-75 44,-29 69,-37 156,-50 58,-8 121,-15 141,-15 33,0 40,-5 68,-48 44,-69 45,-73 27,-136 -13,-43 -15,-75 -10,-134 12,-122 42,-162 126,-162 53,0 214,-68 292,-123 18,-13 49,-19 118,-22 l 94,-3 122,61 122,60 88,-43 c 48,-24 102,-57 119,-73 40,-36 152,-67 245,-67 136,0 340,-101 392,-195 15,-26 24,-51 21,-56 -3,-5 -31,-9 -62,-9 -58,0 -146,-32 -184,-67 -21,-19 -23,-62 -5,-86 6,-9 62,-37 122,-63 127,-55 175,-60 295,-30 137,34 149,33 410,-42 51,-14 62,-14 150,3 111,21 158,22 220,6 55,-15 117,-8 170,19 45,23 62,55 54,99 -6,28 -4,29 73,54 109,35 290,70 328,63 17,-4 46,-22 65,-41 53,-55 98,-42 117,35 l 9,35 121,7 c 90,5 134,12 169,27 33,15 67,21 119,21 59,0 75,4 90,20 23,25 13,64 -26,101 -16,15 -29,32 -29,38 0,6 21,21 47,33 75,36 86,60 93,192 5,87 11,121 26,147 28,48 78,79 128,79 51,0 132,37 170,79 37,39 80,47 140,27 26,-9 60,-16 76,-16 36,0 78,-35 119,-98 37,-59 38,-71 6,-118 -30,-44 -31,-64 -6,-95 17,-22 29,-24 115,-27 88,-4 99,-2 140,22 24,14 58,42 76,63 18,21 39,41 45,45 41,25 211,-108 260,-202 29,-58 54,-79 98,-87 67,-11 97,56 62,140 -8,20 -15,59 -15,87 0,28 -6,63 -14,79 -16,29 -100,111 -115,111 -18,0 -41,31 -41,55 0,12 -18,44 -40,71 -21,26 -42,60 -45,76 -4,15 -24,54 -45,86 -38,57 -72,82 -109,82 -20,0 -51,30 -51,49 0,7 11,26 25,43 40,48 33,77 -36,157 -34,39 -65,71 -68,71 -3,1 -26,19 -49,40 l -44,39 21,27 c 38,48 18,106 -42,122 -24,6 -35,16 -43,42 -18,53 -50,71 -150,82 -49,6 -112,11 -140,12 -51,1 -66,-6 -182,-90 -19,-14 -28,-15 -65,-5 -37,11 -49,10 -95,-8 -32,-13 -76,-21 -112,-21 -52,0 -62,-3 -89,-31 -28,-27 -31,-37 -31,-91 v -60 l -45,7 c -25,3 -97,8 -160,10 -63,2 -123,9 -134,14 -27,15 -57,14 -91,-4 -65,-34 -45,-109 47,-172 56,-38 103,-91 103,-116 0,-19 -21,-27 -69,-27 -21,0 -60,-7 -87,-15 -27,-8 -80,-15 -117,-15 -37,0 -99,-7 -137,-16 -53,-12 -77,-13 -107,-5 -21,6 -70,11 -110,11 -45,0 -91,7 -125,19 -29,11 -66,22 -81,26 -17,3 -60,37 -107,85 -71,71 -84,79 -134,90 -69,14 -85,9 -152,-46 -30,-24 -72,-49 -94,-55 -23,-7 -58,-29 -78,-48 -66,-64 -64,-63 -246,-101 -22,-4 -88,-3 -155,4 l -116,13 -125,69 c -69,39 -170,103 -225,142 -55,40 -111,75 -123,79 -13,3 -41,1 -62,-6 -70,-21 -121,-14 -180,24 -69,44 -101,53 -171,47 -43,-3 -64,0 -94,17 -57,30 -99,26 -184,-19 -41,-21 -78,-37 -83,-34 -11,7 -10,38 1,50 5,5 19,39 31,75 19,58 20,73 11,124 -6,33 -22,72 -36,91 -14,18 -25,37 -25,41 0,21 -83,135 -106,145 -22,10 -33,7 -83,-20 -32,-18 -66,-32 -75,-32 -9,0 -49,16 -88,35 -39,19 -74,33 -77,32 -3,-2 -22,-11 -42,-21 l -36,-19 -64,31 c -35,16 -80,33 -99,37 -51,11 -84,30 -99,59 -8,14 -31,37 -53,52 -46,32 -48,56 -12,134 42,91 20,140 -95,208 -60,36 -77,42 -118,39 l -47,-2 -1,70 c 0,39 -7,106 -14,150 -7,44 -14,111 -15,148 -1,62 -4,71 -29,93 -15,13 -38,24 -50,24 -11,0 -36,14 -54,32 -26,25 -43,32 -87,36 -30,2 -68,0 -84,-6 -24,-8 -36,-6 -68,12 -73,40 -71,148 4,268 26,41 46,138 36,171 -10,33 -45,67 -69,67 -11,0 -31,-7 -43,-16 z m 5163,-2264 c 38,-11 89,-20 113,-20 47,0 130,-18 137,-30 3,-4 -4,-19 -15,-33 -11,-14 -23,-39 -26,-56 -7,-34 -12,-36 -49,-19 -19,9 -38,8 -80,-2 -54,-13 -58,-12 -143,20 -48,18 -111,36 -141,39 -57,6 -77,24 -41,36 12,4 36,20 54,36 62,54 90,58 191,29 z M 4641,9320 c 42,-23 9,-109 -55,-140 -54,-26 -95,-25 -156,1 -36,15 -60,20 -87,15 -99,-16 -131,-17 -171,-7 -23,7 -42,16 -42,21 0,16 46,22 86,11 91,-25 145,-11 234,63 51,42 59,45 113,46 32,0 67,-5 78,-10 z m 5239,2419 c -36,-22 -76,-42 -90,-45 -80,-15 -118,-28 -148,-50 -18,-14 -48,-28 -67,-31 -30,-5 -38,-1 -67,31 -63,71 -94,89 -177,98 -42,4 -93,11 -113,14 -34,5 -46,1 -108,-42 -45,-31 -81,-65 -102,-96 -29,-46 -30,-52 -19,-88 7,-23 9,-60 5,-88 -6,-48 14,-122 34,-122 4,0 33,-22 63,-50 100,-92 212,-114 312,-61 48,25 58,27 74,16 16,-12 17,-16 1,-63 -19,-61 -10,-86 45,-121 25,-16 37,-32 37,-47 0,-79 47,-107 164,-94 70,8 83,13 123,47 74,62 80,65 159,73 69,7 79,11 114,45 21,20 50,60 66,89 15,28 35,62 45,74 10,13 30,63 45,110 19,64 35,96 60,122 22,23 34,46 34,64 0,38 -47,83 -96,91 -21,4 -52,15 -69,25 -16,10 -47,23 -68,30 -27,8 -41,20 -51,45 -33,77 -106,86 -206,24 z m 468,-1036 c -9,-10 -30,-51 -48,-92 -28,-65 -31,-81 -26,-125 17,-124 17,-131 4,-148 -9,-13 -32,-19 -87,-22 -72,-5 -74,-6 -116,-49 -23,-25 -52,-48 -63,-51 -25,-8 -72,-99 -72,-138 0,-54 25,-95 67,-108 21,-7 73,-31 116,-53 86,-44 107,-71 107,-137 0,-118 88,-182 152,-111 41,46 37,80 -17,141 -44,50 -78,132 -78,191 0,31 85,145 117,156 11,4 60,6 108,4 128,-4 153,7 189,83 16,33 29,77 29,97 0,26 8,42 31,65 44,41 53,71 34,101 -14,21 -23,24 -57,21 -39,-3 -43,0 -73,42 -38,54 -113,107 -163,115 -20,3 -50,12 -65,20 -38,20 -71,19 -89,-2 z M 3120,8920 c -14,-4 -47,-21 -74,-39 -39,-24 -61,-31 -100,-31 -61,0 -119,-15 -135,-34 -7,-8 -14,-37 -18,-65 -6,-49 -8,-52 -48,-70 -44,-20 -61,-46 -50,-80 13,-41 124,-54 208,-24 45,16 49,16 77,-1 17,-9 58,-26 93,-36 34,-10 87,-28 117,-39 44,-17 68,-20 121,-15 97,9 108,0 138,-112 20,-74 16,-73 276,-62 127,6 257,9 290,8 33,-1 83,-2 110,-2 254,5 279,10 291,58 15,59 -41,157 -95,169 -38,8 -113,62 -155,111 -19,22 -51,52 -73,67 -33,23 -49,27 -123,28 -63,1 -101,-4 -147,-20 -79,-27 -86,-26 -158,9 -33,17 -65,30 -73,30 -7,0 -31,9 -53,20 -28,15 -56,20 -100,19 -61,-2 -61,-2 -100,44 -22,25 -54,50 -72,55 -48,15 -119,21 -147,12 z m 5283,-355 c -28,-20 -45,-72 -35,-110 6,-22 28,-44 89,-85 118,-81 118,-81 143,-130 12,-25 33,-57 47,-71 41,-45 123,-199 123,-234 0,-36 15,-55 45,-55 30,0 49,24 79,99 33,81 40,120 27,153 -18,48 -101,146 -159,189 -35,26 -74,67 -96,102 -30,45 -56,70 -115,108 -80,51 -113,59 -148,34 z m -5938,-47 c -34,-18 -74,-24 -252,-36 -203,-15 -214,-14 -253,3 -35,16 -49,17 -93,8 -31,-6 -63,-7 -82,-2 -79,23 -144,5 -214,-60 -51,-47 -53,-77 -10,-126 43,-49 78,-65 142,-65 30,0 84,-9 121,-20 37,-12 76,-18 90,-14 13,3 43,26 65,50 49,54 83,58 150,15 61,-39 151,-61 250,-61 h 81 v -33 c 0,-45 49,-117 111,-163 46,-34 54,-36 105,-32 51,4 57,3 80,-25 20,-23 24,-39 22,-71 -3,-40 -4,-41 -38,-39 -19,0 -55,4 -80,8 -89,14 -133,-61 -90,-151 26,-53 106,-111 193,-140 29,-9 70,-27 93,-40 34,-20 55,-24 120,-24 74,0 84,-3 134,-35 62,-39 88,-42 199,-21 82,16 88,15 148,-26 56,-38 162,-66 200,-52 24,8 28,16 31,49 4,59 -24,95 -104,138 -38,20 -100,66 -137,102 -54,51 -80,68 -124,81 -30,9 -72,30 -92,48 -20,18 -49,42 -66,55 -16,12 -60,51 -97,86 -66,62 -68,65 -68,112 0,44 -5,55 -45,102 -25,29 -45,57 -45,63 0,5 23,31 50,58 28,27 50,55 50,64 0,34 -46,64 -153,100 -59,20 -118,36 -131,36 -12,0 -57,18 -99,40 -86,45 -106,48 -162,18 z m 1979,-239 c -47,-75 -55,-105 -48,-172 8,-77 37,-129 108,-194 56,-51 85,-63 160,-63 22,0 59,-7 81,-15 22,-8 56,-14 76,-15 26,0 43,-8 65,-31 85,-90 154,-75 154,32 0,59 -21,112 -66,171 -32,41 -297,294 -323,307 -9,5 -53,12 -98,16 l -82,7 z m 1238,-721 c -16,-16 -15,-61 2,-103 19,-45 101,-159 130,-183 28,-21 41,-46 50,-90 3,-21 28,-59 61,-96 30,-35 55,-68 55,-74 0,-22 -23,-23 -71,-2 -43,18 -55,19 -85,10 -35,-12 -64,-52 -64,-88 0,-40 33,-60 150,-92 97,-27 125,-31 178,-25 67,7 102,29 102,63 0,10 -21,43 -46,72 -65,76 -72,89 -89,156 -9,32 -29,78 -45,101 -17,23 -33,57 -36,75 -3,18 -15,61 -26,95 -20,64 -52,99 -152,167 -41,28 -94,34 -114,14 z m -1146,-94 c -31,-31 -20,-69 43,-139 75,-85 88,-109 71,-130 -18,-22 -46,-19 -88,10 -45,31 -83,31 -142,2 -57,-28 -64,-57 -23,-99 54,-57 96,-71 238,-79 72,-4 173,-17 225,-28 120,-26 135,-26 161,0 26,26 20,54 -23,118 -80,117 -161,193 -291,271 -23,14 -62,40 -86,58 -50,36 -63,39 -85,16 z M -11,6971 -35,6952 V 5701 l 22,-23 c 19,-19 38,-23 125,-30 169,-12 330,-34 378,-52 25,-9 72,-20 105,-23 33,-3 92,-19 132,-35 39,-15 90,-28 113,-28 22,0 57,-8 78,-19 58,-29 144,-51 229,-57 79,-6 131,-17 258,-52 39,-10 90,-25 115,-31 25,-7 101,-16 170,-20 96,-6 143,-14 201,-34 86,-31 163,-34 224,-11 103,39 339,55 720,49 297,-4 337,-7 388,-25 47,-17 82,-20 206,-20 90,0 161,-5 178,-12 15,-6 78,-15 138,-20 61,-4 169,-13 240,-19 72,-6 172,-12 224,-13 90,-1 95,0 113,25 15,19 20,44 21,94 2,66 1,68 -32,94 -19,14 -44,37 -55,51 -54,64 -175,172 -215,190 -37,18 -42,24 -36,43 15,50 16,66 5,105 -24,91 -110,151 -215,152 -33,0 -89,7 -125,16 -73,17 -101,13 -146,-21 -17,-13 -44,-27 -59,-31 -15,-4 -43,-22 -62,-42 -29,-28 -50,-38 -116,-53 -98,-22 -143,-23 -177,-4 -30,17 -90,19 -123,4 -21,-10 -32,-6 -78,26 -49,34 -58,36 -104,31 -38,-5 -67,-1 -120,18 -59,20 -75,30 -100,66 -51,72 -75,85 -163,85 -61,0 -86,-5 -122,-24 -25,-13 -65,-27 -90,-32 -117,-23 -110,-24 -183,25 -37,25 -82,47 -100,50 -17,2 -62,9 -98,15 -93,15 -128,13 -178,-9 -24,-11 -56,-20 -72,-20 -43,0 -93,-24 -116,-55 -29,-40 -62,-29 -103,35 -23,36 -47,58 -82,76 -27,14 -51,31 -55,39 -3,8 -36,31 -74,51 -54,28 -70,43 -74,63 -15,74 -31,104 -73,135 -46,33 -69,35 -242,24 l -45,-3 -7,45 c -4,25 -11,75 -16,112 -6,49 -15,74 -31,92 -33,35 -137,94 -180,102 -48,9 -85,28 -148,76 -29,22 -71,46 -95,53 -24,7 -73,25 -111,39 -81,31 -107,32 -138,7 z m 1018,-832 c 36,-14 73,-48 72,-68 0,-9 -12,-41 -27,-71 -32,-65 -55,-72 -139,-44 -52,18 -53,18 -82,-4 -17,-12 -37,-22 -44,-22 -24,0 -107,96 -107,124 0,26 24,46 57,46 10,0 43,11 73,24 60,26 150,33 197,15 z m 4230,676 c -9,-9 -17,-28 -17,-42 0,-31 60,-93 90,-93 14,0 48,-26 94,-72 133,-134 207,-187 309,-222 54,-19 66,-28 102,-79 73,-104 211,-177 352,-185 81,-4 83,-4 113,26 49,49 42,74 -50,183 -62,72 -97,104 -152,136 -40,23 -87,44 -106,48 -24,4 -38,15 -50,37 -48,87 -82,104 -137,68 -42,-28 -103,-26 -146,4 -19,14 -53,37 -77,53 -24,15 -62,43 -85,60 -101,78 -206,112 -240,78 z M 5123,5546 c -12,-9 -25,-31 -28,-49 -8,-37 -35,-69 -82,-98 -34,-21 -133,-158 -133,-184 0,-31 42,-45 140,-45 56,0 115,-6 145,-15 40,-13 59,-13 96,-5 34,8 58,8 85,1 52,-14 222,-14 265,0 76,26 89,71 39,134 -16,21 -30,42 -30,47 0,53 -96,141 -179,165 -25,7 -77,21 -114,32 -102,30 -177,36 -204,17 z m 5372,-383 c -32,-8 -53,-27 -96,-84 -46,-62 -59,-69 -113,-57 -99,22 -148,-43 -90,-119 58,-76 127,-91 204,-47 25,15 86,37 135,51 50,14 102,32 118,39 24,13 34,13 77,0 59,-18 73,-14 118,27 57,55 38,87 -52,87 -69,0 -73,2 -105,49 -13,18 -39,40 -57,47 -33,14 -99,17 -139,7 z"
       id="path12" /><path
       d="m 11474,5075 c -28,-30 -54,-63 -56,-73 -3,-11 4,-41 15,-66 12,-27 16,-50 11,-55 -5,-5 -62,-20 -126,-34 -75,-17 -131,-35 -156,-52 -21,-14 -65,-30 -96,-35 -31,-5 -72,-14 -89,-21 -27,-9 -44,-7 -112,16 -44,15 -100,28 -125,28 -84,1 -326,-30 -356,-45 -16,-9 -58,-18 -94,-22 -74,-8 -165,-32 -195,-51 -12,-7 -57,-23 -100,-35 -75,-21 -82,-21 -130,-7 -114,36 -186,42 -477,40 -411,-2 -454,-2 -539,0 -72,2 -78,0 -130,-35 -50,-35 -60,-38 -124,-38 -39,0 -92,7 -120,16 -32,9 -103,16 -195,19 -132,3 -151,1 -215,-20 -131,-45 -295,-56 -605,-44 -41,1 -100,-1 -130,-5 -52,-8 -58,-6 -87,18 -18,15 -35,37 -39,49 -12,41 -55,77 -91,77 -28,0 -47,-14 -127,-89 l -94,-90 -62,20 c -75,23 -108,24 -205,4 -69,-15 -78,-14 -147,4 -101,27 -325,47 -369,32 -19,-6 -63,-10 -99,-9 -50,1 -74,-3 -105,-20 -22,-12 -50,-22 -63,-22 -33,0 -84,-24 -107,-50 -11,-12 -38,-31 -60,-42 -35,-19 -50,-20 -150,-14 -61,4 -119,13 -130,20 -54,35 -168,77 -194,71 -15,-3 -66,-36 -113,-74 -182,-144 -248,-181 -323,-181 -25,0 -65,-4 -88,-9 -161,-36 -155,-36 -263,3 -54,20 -130,49 -169,64 -64,25 -80,27 -215,27 h -146 l -80,-51 c -43,-29 -97,-57 -119,-64 -22,-7 -81,-30 -132,-51 -51,-22 -104,-39 -118,-39 -30,0 -162,76 -217,126 -44,39 -91,48 -217,42 -76,-3 -94,-8 -137,-35 -86,-53 -112,-58 -195,-43 -119,23 -211,-3 -409,-113 -77,-43 -105,-45 -206,-12 -98,32 -186,35 -239,7 -22,-11 -80,-32 -130,-47 -49,-15 -107,-36 -127,-46 -38,-19 -98,-26 -98,-11 0,5 11,19 25,32 30,28 33,70 6,94 -30,27 -118,46 -214,46 -68,0 -97,5 -127,20 -54,28 -100,69 -140,128 -19,28 -50,60 -70,70 -56,32 -158,54 -215,48 -27,-3 -144,-10 -260,-15 -166,-8 -223,-14 -273,-30 -34,-11 -91,-25 -124,-31 -107,-17 -103,-3 -106,-342 -4,-372 2,-405 86,-492 66,-68 102,-86 172,-86 63,0 117,-26 189,-92 65,-59 97,-76 155,-84 54,-8 160,10 218,36 31,14 66,20 123,20 45,1 97,7 120,16 22,8 63,22 90,30 28,9 87,35 131,60 66,36 100,47 185,61 145,24 179,21 248,-21 32,-20 93,-52 136,-72 l 78,-37 101,12 c 78,10 112,10 148,1 31,-8 91,-10 185,-5 271,13 405,5 468,-27 17,-8 64,-25 105,-38 41,-12 102,-33 134,-47 69,-29 88,-26 166,24 30,19 87,55 125,79 39,25 80,47 92,50 28,7 142,-44 197,-90 66,-53 130,-86 167,-86 42,0 193,61 225,91 13,12 34,46 49,76 46,97 91,158 140,191 71,47 97,44 244,-35 l 126,-67 125,-1 h 125 l 67,38 c 41,23 79,37 101,37 60,0 157,37 229,86 46,32 91,53 135,64 l 66,17 26,-30 c 14,-16 49,-41 76,-55 45,-23 66,-26 210,-33 88,-4 273,-8 411,-8 201,-1 260,-4 295,-17 24,-8 73,-21 109,-29 53,-11 70,-11 96,0 45,18 64,51 64,108 0,54 18,77 106,138 48,32 80,36 145,15 52,-17 215,-39 314,-41 48,-2 85,-9 118,-24 l 48,-22 97,22 c 53,12 128,32 167,46 118,41 230,64 256,54 13,-5 48,-25 76,-44 92,-62 155,-81 268,-81 84,0 109,3 155,23 76,33 172,102 215,155 53,65 68,69 272,64 173,-5 181,-6 281,-41 70,-24 122,-51 163,-81 34,-26 69,-46 79,-46 10,0 42,-13 72,-28 76,-40 102,-45 145,-27 32,14 245,160 298,205 12,11 45,20 82,23 51,4 74,12 125,46 35,23 83,48 108,57 25,9 68,25 95,35 69,27 254,71 290,70 17,0 50,-7 74,-16 71,-25 234,-55 297,-55 32,0 84,7 117,17 l 59,16 68,-36 c 37,-21 82,-37 99,-37 50,0 105,34 168,106 89,101 130,117 318,120 98,2 167,9 200,19 33,10 92,15 171,15 h 122 l 52,-36 c 112,-77 133,-84 249,-84 69,1 120,6 146,16 111,42 319,58 421,33 65,-17 106,5 182,96 34,40 79,83 101,95 25,15 45,36 57,61 19,43 94,118 142,143 39,20 56,49 43,74 -18,34 -41,45 -109,53 -37,4 -125,15 -197,25 -71,10 -152,16 -180,14 -115,-7 -214,-4 -280,9 -38,8 -160,16 -270,18 -166,3 -217,8 -300,28 -55,13 -134,29 -175,35 -41,6 -106,18 -144,26 -38,8 -96,14 -130,14 -33,0 -81,7 -106,15 -25,8 -67,17 -94,21 -40,5 -58,14 -100,53 -108,101 -129,104 -202,26 z m 4171,-381 c -72,-20 -230,-76 -242,-85 -40,-34 6,-103 99,-144 89,-40 131,-39 205,8 34,20 70,37 82,37 11,0 35,-13 53,-29 57,-49 66,-51 189,-42 209,16 331,94 311,199 -10,50 -27,53 -364,57 -172,2 -322,2 -333,-1 z"
       id="path13" /></g><path
     fill="#335377"
     d="m 297.12118,12109 c -34,-7 -79,-22 -100,-33 -20,-10 -54,-21 -74,-25 -45.999999,-8 -95.999999,-49 -113.9999988,-93 -17,-40 -20.0000002,-553 -4,-600 5.9999998,-16 23.9999998,-40 39.9999998,-51 21,-16 30,-33 35,-67 4,-25 22.999999,-70 40.999999,-101 27,-45 34,-67 34,-109 0,-47 4,-56 31,-79 17,-14 35,-26 40,-26 21,0 7,-38 -22,-59 -18,-14 -44,-52 -66,-99 -31,-66 -36,-88 -37,-152 -1,-41 6,-96 14,-123 12,-40 12,-52 1,-80 -24.999999,-58 -24.999999,-103 -2,-126 36,-36 65,-24 86,35 11,31 20,41 53,52 22,7 87,53 148,103 59,50 116,95 126,100 14,8 36,5 81,-10 33,-12 77,-21 96,-21 19,0 63,-10 99,-22 57,-19 70,-20 125,-10 60,11 63,11 86.00002,-13 l 24,-24 -17,-75 c -10,-41 -15,-80 -11,-86 4,-7 11,-55 15,-108 l 7,-96 42,-37 c 63,-56 97,-69 199,-71 84,-3 94,-1 145,27 75,40 97,30 126,-56 11,-35 21,-78 21,-96 0,-19 7,-48 16,-65 16,-31 16,-50 -2,-161 -7,-44 18,-136 44,-161 9,-9 39,-31 67,-49 28,-18 59,-49 72,-71 23,-42 72,-75 113,-76 14,0 42,11 62,25 47,32 73,32 94,0 9,-13 31,-34 50,-46 19,-11 42,-35 50,-52 9,-18 50,-65 93,-104 l 76,-73 h 88 c 110,0 149,-16 188,-78 16,-25 58,-74 94,-109 70,-69 78,-93 49,-138 -21,-32 -12,-71 18,-78 25,-7 82,4 113,21 46,24 53,43 59,150 8,156 20,163 242,155 140,-5 152,-4 202,17 l 54,23 66,-22 c 138,-44 227,-10 207,81 -8,36 5,53 66,84 42,21 63,24 181,26 110,3 149,-1 227,-19 105,-25 148,-28 204,-12 31,8 48,7 98,-10 83,-29 124,-27 200,12 57,28 68,39 96,92 40,74 42,113 8,148 -42,42 -86,57 -166,57 h -73 l -74,-57 c -72,-55 -77,-57 -131,-55 -102,4 -145,3 -218,-3 -97,-10 -115,-3 -156,54 -75,104 -303,211 -451,211 -89,0 -164,21 -197,56 -13,14 -67,46 -119,71 -113,54 -160,59 -217,21 -21,-13 -58,-32 -83,-42 -25,-10 -51,-22 -58,-28 -7,-6 -48,-10 -92,-9 -67,2 -86,6 -117,26 -19,14 -42,25 -50,25 -8,0 -57,20 -110,45 -60,29 -108,45 -133,45 -21,0 -43,6 -50,15 -21,26 -24,129 -6,195 20,72 15,104 -24,156 -16,22 -30,46 -30,55 0,9 -10,29 -22,44 -20,25 -25,27 -77,22 -31,-3 -94,0 -141,5 -99,11 -157,40 -190,93 -12,19 -42,51 -66,71 -31,26 -44,44 -44,63 -1,37 -32,101 -65,131 -24,23 -34,25 -103,23 l -77,-3 -45,44 c -50,49 -97,76 -132,76 -12,0 -50,17 -83,37 -48,30 -69,37 -104,36 -24,-1 -55,3 -70.00002,9 -14,6 -51,16 -81,22 -48,10 -55,15 -58,37 -2,15 11,48 33,84 50,84 48,114 -15,175 -43,42 -50,53 -50,87 0,59 -47,125 -122,173 -43,27 -74,57 -101,97 -49,74 -88,154 -80,167 6,9 15,145 15,211 0,35 -52,154 -75,173 -24,20 -83,22 -155,6 z M 10656.121,11070 c -18,-8 -53,-15 -78,-15 -24,0 -61,-9 -83,-20 -22,-11 -49,-20 -60,-20 -26,0 -57,-16 -90,-45 -14,-13 -35,-26 -47,-29 -12,-4 -36,-24 -52,-45 -24,-30 -40,-40 -72,-45 -22,-4 -57,-15 -77,-25 -21,-10 -68,-21 -104.9998,-24 -76,-5 -100,-20 -117,-71 -6,-18 -24,-42 -40,-55 -34,-24 -40,-61 -14,-82 26,-21 209.9998,-25 270.9998,-6 26,8 78,21 115,28 64,12 71,11 112,-9 24,-12 47,-22 51,-22 4,0 22,16 39,34 31,34 32,35 88,27 65,-9 119,-44 144,-94 26,-51 55,-77 86,-77 37,0 84,24 98,50 16,30 1,183 -21,228 -24,46 -24,51 5,81 24,25 56,125 56,173 0,14 -11,35 -25,48 -32,31 -132,39 -184,15 z M 7307.1212,9938 c -7,-3 -37,-38 -67,-78 -58,-78 -100,-115 -158,-140 -66,-27 -48,-59 78,-133 86,-50 116,-62 162,-62 28,0 44,-8 70,-35 19,-19 44,-36 56,-36 12,-1 31,-2 42,-3 11,-1 37,-5 57,-10 49,-11 79,-3 111,30 34,34 34,55 -2,96 -15,18 -36,49 -45,69 -20,42 -165,186 -214,211 -25,13 -32,24 -32,46 0,42 -22,60 -58,45 z m -5757,-1088 c -44,-8 -109,-19 -144,-25 -35,-6 -82,-20 -104,-31 -39,-21 -160,-118 -184,-148 -40,-51 16,-118 127,-152 61,-18 87,-21 161,-16 96,6 138,22 159,61 17,34 53,42 104,27 86,-26 102,-25 143,8 33,28 45,31 103,31 42,0 77,6 100,18 30,15 35,22 38,57 1,22 -3,51 -10,65 -18,34 -92,88 -136,99 -68,17 -272,20 -357,6 z m 3174,-905 c -9,-5 -22,-23 -28,-39 -18,-41 2,-74 105,-177 46,-46 84,-89 84,-94 0,-5 27,-27 59,-50 66,-44 91,-73 91,-106 0,-17 -8,-23 -37,-29 -49,-9 -63,-21 -63,-54 0,-35 36,-69 125,-117 39,-21 82,-48 97,-60 15,-12 53,-37 85,-55 32,-18 81,-54 109,-80 88,-82 193,-121 224,-84 17,21 7,101 -16,127 -11,11 -54,43 -96,70 -120,77 -149,123 -112,176 25,36 33,78 23,116 -12,44 -85,111 -138,127 -50,15 -66,32 -111,117 -23,44 -46,74 -69,87 -18,11 -56,40 -83,65 -43,38 -58,45 -106,51 -32,4 -73,10 -92,13 -19,4 -42,2 -51,-4 z m 3941,-2840 c -14,-4 -56,-9 -95,-10 -88,-2 -101,-7 -134,-55 -30,-45 -58,-55 -206,-75 -293,-39 -460,-52 -566,-46 -106,7 -135,0 -210,-47 l -47,-29 -149,4 c -120,4 -161,9 -218,28 -75,25 -104,23 -205,-15 -43,-16 -47,-15 -150,10 l -105,26 -75,-25 c -41,-13 -92,-31 -112,-40 -53,-23 -160,-21 -234,4 -49,17 -74,35 -146,105 -103,101 -115,104 -238,61 -57,-21 -74,-22 -138,-14 -78,9 -104,2 -122,-32 -10,-19 -108,-70 -175,-92 -66,-21 -139,-25 -198,-12 -77,18 -196,34 -337,44 -63,4 -133,11 -156,15 -29,5 -63,1 -120,-15 -91,-26 -153,-36 -314,-49 -63,-5 -144,-17 -180,-26 -48,-13 -118,-18 -270,-19 -235,-3 -234,-3 -320,-91 -71,-73 -95,-85 -172,-85 -62,0 -65,1 -103,41 -68,71 -154,97 -203,63 -12,-8 -64,-29 -115,-46 -89,-29 -94,-29 -162,-17 -62,11 -76,19 -120,60 -60,56 -88,69 -158,69 -29,0 -79,7 -112,15 -78,19 -182,19 -275,0 -90,-19 -113,-39 -108,-99 l 3,-40 -106,-1 c -101,0 -108,-1 -158,-32 -58,-36 -79,-39 -161,-19 -64,15 -104,34 -169,81 -45,32 -75,41 -211,59 -19,2 -64,15 -99,27 -63.00002,22 -65.00002,22 -130.00002,6 -76,-20 -182,-22 -247,-6 -44,11 -70,8 -149,-20 -31,-10 -175,-37 -186,-34 -3,1 -63,12 -133,24 l -126.999999,23 -22,-22 C 1.1211812,4735 0.12118119,4727 0.12118119,4556 c 0,-200 4.00000001,-214 70.99999981,-227 31.999999,-6 146.999999,15 200.999999,38 15,6 118,15 228,19 110,5 222,11 249,15 58,7 158,-12 190,-37 13,-10 43,-46 67.00002,-79 33,-45 62,-72 114,-103 63,-38 77,-42 140,-43 114,-1 135,-4 135,-13 0,-5 -16,-25 -35,-44 -61,-61 -43,-89 70,-113 91,-18 146,-14 207,17 22,11 77,32 122,45 44,13 99,33 122,44 49,24 86,21 207,-16 106,-33 138,-30 227,16 222,116 278,133 379,112 89,-19 111,-15 204,33 86,44 90,45 182,45 89,0 96,-1 127,-29 18,-15 71,-52 118,-82 111,-70 153,-72 282,-16 48,21 109,44 135,52 26,8 84,37 128,65 l 80,51 125,-3 c 133,-4 129,-3 383,-101 83,-32 89,-32 222,-2 38,8 91,15 116,15 25,0 66,6 91,14 49,14 189,107 283,186 33,28 69,50 82,50 13,0 62,-18 110,-39 78,-34 100,-40 195,-46 129,-8 185,6 254,66 28,24 55,39 72,39 15,0 52,12 82,26 42,19 63,24 92,19 21,-4 60,-2 86,5 63,15 262,-2 367,-31 l 75,-20 92,20 91,20 76,-25 c 42,-13 84,-24 94,-24 10,0 58,38 107,85 49,47 93,85 99,85 6,0 25,-22 42,-49 41,-68 100,-97 172,-85 29,4 90,7 137,5 325,-11 462,-2 608,43 68,21 93,24 212,21 88,-1 158,-8 200,-20 43,-11 91,-16 141,-13 68,3 80,6 132,42 l 56,39 78,-8 c 43,-4 101,-7 128,-6 638,15 678,14 826,-32 l 67,-20 92.9998,25 c 52,14 121,38 155,52 35,15 96,29 147,35 47,6 99,17 115,25 16,8 69,18 118,21 49,4 113,11 142,17 59,11 130,-1 194,-33 42,-21 89,-24 119,-8 11,5 48,15 82,20 34,6 85,23 112,38 53,30 122,50 242,71 126,22 145,71 71,182 -40,58 -48,65 -108,85 -59,20 -84,22 -280,22 -189,1 -220,-2 -256,-18 -23,-10 -45,-24 -49,-31 -5,-8 -30,-9 -84,-4 -61,5 -84,3 -108,-10 -17,-8 -66,-25 -110,-37 -43,-12 -98,-32 -123,-45 -25,-13 -53,-24 -62,-24 -10,0 -40,20 -68,45 -49,43 -53,45 -115,45 -36,0 -85,-5 -109,-12 -43,-11 -45,-11 -78.9998,19 -25,21 -54,35 -94,43 -32,6 -74,16 -93,21 -43,11 -1095,10 -1130,-1 z"
     id="path14" /><path
     fill="#426486"
     d="m 24.121181,11356 -23.99999981,-19 -2.99999999,-599 c -2,-329 0,-617 2.99999999,-639 3.00000001,-23 11.99999981,-50 18.99999981,-60 14,-18 16,-18 50,-1 61.999999,29 81.999999,24 285.999999,-66 19,-8 63,-47 98,-86 54,-60 68,-71 96,-71 18,0 41,7 52,15 24,18 139,20 173,2 14,-6 33,-28 44,-47 11,-19 33,-50 49,-68 27,-31 28,-38 23,-90 -6,-53 -4,-60 23,-99 39,-53 82,-67 170.00002,-58 137,14 141,13 183,-33 51,-54 50,-79 -2,-127 -58,-54 -89,-125 -87,-201 2,-50 -2,-66 -26,-104 -29,-46 -133,-135 -184.00002,-157 -15,-7 -41,-12 -57,-13 -17,0 -62,-9 -100,-20 -38,-11 -97,-20 -130,-20 -33,0 -87,-4 -120,-10 -50,-8 -64,-15 -85,-41 -14,-17 -42,-52 -63,-76 -47,-57 -49,-100 -3,-122 38,-18 369,-19 448,-1 35,8 80,10 124,6 38.00002,-4 94.00002,-8 124.00002,-9 54,-2 55,-1 73,35 20,41 124,133 173,154 17,7 64,18 105,23 41,5 102,15 136,21 41,7 105,7 185,2 138,-9 164,-20 205,-85 29,-47 80,-71 178,-86 297,-47 348,-50 387,-30 9,5 49,16 88,24 40,8 86,25 102,36 43,31 88,97 88,130 0,31 -49,101 -119,169 -25,25 -60,66 -78,92 -47,69 -97,92 -205,94 l -87,2 -60,53 c -36,31 -67,69 -76,92 -9,23 -27,45 -47,55 -17,9 -50,37 -73,61 -51,53 -91,57 -160,17 -36,-22 -49,-25 -65,-16 -11,6 -20,15 -20,20 0,18 -61,78 -110,110 -66,42 -79,81 -60,181 11,59 11,79 0,118 -7,25 -13,55 -13,66 1,43 -59,193 -88,221 -41,40 -114,40 -181,0 -45,-26 -52,-27 -123,-21 -60,6 -83,13 -115,36 l -40,29 v 70 c 0,38 -5,81 -12,95 -9,21 -8,36 5,79 28,87 24,109 -31,166 -53,55 -69.00002,59 -147.00002,38 -41,-11 -53,-10 -108,10 -34,12 -80,22 -102,22 -23,0 -67,9 -99,21 -37,13 -69,18 -88,14 -16,-4 -83,-52 -150,-106 -81,-67 -127,-99 -141,-97 -28,4 -69,118 -61,168 11,66 62,163 100,188 41,26 54,56 54,118 0,44 -1,46 -45,65 -44,19 -45,21 -45,64 0,34 -9,58 -36,101 -29,45 -36,66 -36,103 2,58 -18,87 -64.999999,100 -49,14 -47,14 -74,-8 z M 6331.1212,9970 c -92,-33 -147,-128 -153,-265 -6,-125 -7,-126 -66,-156 -74,-37 -97,-61 -97,-101 0,-27 7,-38 42,-63 23,-17 52,-46 65,-65 38,-56 85,-70 141,-41 15,7 53,19 85,26 46,9 62,18 83,46 24,31 30,33 64,28 35,-6 42,-3 76,30 20,20 38,36 39,36 1,0 19,-13 40,-30 71,-56 107,-38 165,83 30,63 32,72 21,108 -14,45 -35,59 -90,59 -28,0 -48,7 -70,26 -39,32 -150,166 -185,222 -17,27 -41,49 -61,58 -41,17 -49,17 -99,-1 z M 45.121181,5752 c -48.9999998,-25 -49.9999998,-31 -49.9999998,-513 0,-284 3.99999999,-462 10,-481 5.9999998,-16 22.9999998,-36 37.9999998,-45 37,-22 244.999999,-61 290.999999,-55 140,20 185,28 213,43 28,14 41,15 94,5 87,-16 175,-14 249,6 64,17 65,17 121.00002,-7 33,-13 91,-26 141,-31 79,-7 89,-11 161,-58 42,-29 93,-55 112,-60 19,-4 65,-15 102,-24 88,-22 89,-22 138,17 60,47 114,61 180,47 81,-18 115,-14 150,16 29,24 31,30 25,69 -6,43 -6,43 32,53 48,14 193,14 227,1 15,-5 63,-13 108,-16 79,-7 84,-9 128,-49 25,-23 54,-47 66,-53 39,-20 159,-43 193,-37 53,10 193,57 218,73 36,23 76,7 131,-54 l 50,-54 h 78 c 119,0 145,11 236,98 l 80,76 196,2 c 145,2 214,7 262,19 36,9 117,21 180,26 163,13 234,24 324,49 58,16 92,20 125,15 25,-3 96,-10 156,-15 149,-12 258,-26 330,-43 87,-21 228,3 308,52 18,10 47,22 65,26 18,4 46,18 63,32 27,23 36,25 91,20 48,-4 73,-1 124,19 36,13 75,24 87,24 15,0 50,-27 102,-80 74,-75 84,-81 162,-106 71,-22 96,-26 166,-22 54,3 97,12 127,26 25,11 69,28 97,36 51,16 56,15 156,-10 l 104,-26 77,26 c 42,14 83,26 91,26 8,0 54,-11 101,-25 74,-21 107,-25 226,-25 h 140 l 68,41 69,41 93,-6 c 109,-8 438,19 533,43 22,6 59,11 83,11 128,0 252,67 238,127 -4,16 -20,41 -35,57 -23,23 -41,29 -97,36 -38,4 -107,17 -154,29 -47,11 -111,21 -143,21 -32,0 -74,7 -93,15 -51,21 -200,46 -334,55 -117,8 -255,26 -269,34 -25,16 -301,42 -581,55 -110,5 -197,15 -259,29 -140,33 -200,29 -418,-23 -55,-14 -128,-25 -161,-25 -34,0 -73,-5 -89,-12 -60,-24 -418,-45 -490,-27 -41,9 -62,10 -91,1 -28,-9 -47,-9 -73,-1 -22,8 -169,12 -414,14 -358,2 -383,3 -436,23 -58,22 -178,39 -369,53 -268,19 -337,27 -363,37 -17,7 -87,12 -175,12 -122,0 -158,4 -204,20 -51,18 -90,20 -385,24 -398,6 -646,-11 -735,-48 -47,-20 -128,-20 -175,-1 -65,28 -163,45 -250,45 -48,0 -109,7 -137,14 -28,8 -80,23 -116,32 -36,10 -87,24 -115,31 -27,8 -92,18 -143,23 -98,10 -168,27 -220.00002,54 -18,9 -60,19 -94,23 -35,3 -87,17 -117,30 -30,13 -89,28 -130,33 -42,5 -98,18 -126,28 -27,11 -90,22 -140,25 -49,4 -106,11 -125,17 -49,14 -179.999999,12 -209.999999,-3 z"
     id="path15" /><path
     fill="#467697"
     d="m 59.121181,10121 c -59.99999981,-26 -58.99999981,-19 -58.99999981,-793 0,-816 -13.00000019,-733 119.99999881,-757 269,-50 259,-52 360,56 l 76,82 112,7 c 62,3 124,11 140,18 15,6 58,16 95,21 89,15 134.00002,36 212.00002,101 82,68 85,71 121,144 24,49 28,68 23,102 -9,60 10,104 66,155 83,75 80,158 -9,241 -59,56 -114,74 -177,58 -60,-15 -127,-14 -150.00002,3 -15,12 -19,27 -20,84 0,62 -4,74 -30,108 -16,20 -40,58 -54,83 -36,66 -79,84 -194,85 -50,0 -105,-4 -123,-8 -29,-8 -33,-5 -70,43 -31,41 -55,59 -130,96 -50,25 -95,45 -101,45 -5,0 -29,9 -53,20 -51,23 -111,25 -154.999999,6 z"
     id="path16" /><g
     id="g16"
     transform="matrix(5.9644964,0,0,5.9644964,6665.2562,11206.118)"><g
       inkscape:label="Layer 1"
       id="layer1"
       transform="translate(-35.477954,-382.24677)" /><g
       id="layer2"
       inkscape:label="Big X"
       transform="translate(-35.477954,-382.24677)"><g
         inkscape:groupmode="layer"
         id="layer3"
         inkscape:label="X_Shadow" /><g
         inkscape:groupmode="layer"
         id="layer4"
         inkscape:label="X_Path" /><g
         inkscape:groupmode="layer"
         id="layer14"
         inkscape:label="X_Gloss" /></g><g
       id="layer5"
       inkscape:label="Xfce"
       transform="translate(-35.477954,-382.24677)"><g
         inkscape:groupmode="layer"
         id="layer7"
         inkscape:label="Xfce_Shadow" /><g
         inkscape:groupmode="layer"
         id="layer6"
         inkscape:label="Xfce_Path" /><g
         inkscape:groupmode="layer"
         id="layer13"
         inkscape:label="Xfce_Gloss" /></g><g
       id="layer8"
       inkscape:label="Mouse"
       transform="translate(-35.477954,-382.24677)"><g
         inkscape:groupmode="layer"
         id="layer12"
         inkscape:label="Mouse_Shadow" /><g
         inkscape:groupmode="layer"
         id="layer10"
         inkscape:label="Mouse_Path"><path
           inkscape:connector-curvature="0"
           d="m 686.01129,438.94339 c -3.353,-2.77349 -29.64674,38.71236 -23.83256,43.01749 3.49603,2.61546 25.33033,-41.53853 23.83256,-43.01749 z"
           id="path13-5"
           style="fill:#020202;fill-opacity:1;fill-rule:evenodd;stroke:none;stroke-width:3.77953;stroke-linecap:butt;stroke-linejoin:miter;stroke-miterlimit:4;stroke-dasharray:none;stroke-opacity:1"
           inkscape:export-filename="/home/knome/Stuff/xubuntu-mouse-draft-2.png"
           inkscape:export-xdpi="1026.8827"
           inkscape:export-ydpi="1026.8827" /><path
           inkscape:connector-curvature="0"
           d="m 655.78463,433.1306 c -1.65949,-1.92678 -10.46548,42.78039 -6.39371,44.75985 3.49601,2.61546 9.58499,-42.43418 6.39371,-44.75985 z"
           id="path18"
           style="fill:#020202;fill-opacity:1;fill-rule:evenodd;stroke:none;stroke-width:3.77953;stroke-linecap:butt;stroke-linejoin:miter;stroke-miterlimit:4;stroke-dasharray:none;stroke-opacity:1"
           inkscape:export-filename="/home/knome/Stuff/xubuntu-mouse-draft-2.png"
           inkscape:export-xdpi="1026.8827"
           inkscape:export-ydpi="1026.8827" /><path
           inkscape:connector-curvature="0"
           style="fill:#020202;fill-opacity:1;fill-rule:evenodd;stroke:none;stroke-width:3.77953;stroke-linecap:butt;stroke-linejoin:miter;stroke-miterlimit:4;stroke-dasharray:none;stroke-opacity:1"
           d="m 37.625,384.15853 c -3.443355,1.88538 27.552632,22.09367 85.46875,45.9375 57.91987,23.84382 137.92965,84.27698 131.65625,94.03125 -18.81237,26.49691 -29.90817,58.18792 -22.25,112.46875 1.38111,9.55483 -28.31634,26.14558 -26.15625,40.5625 1.80637,10.9698 33.19295,-10.87512 36.625,-6.5625 2.0999,7.74098 -16.79186,46.91895 -9.15625,49.71875 5.58462,1.6596 54.67873,-46.58659 57.53125,-45.78125 80.96219,24.47603 186.3041,5.99395 188.34375,5.21875 -0.19196,-0.42524 75.80178,35.72642 82.40625,31.40625 16.65983,-18.04093 -31.57326,-43.46801 -23.53125,-53.625 3.52614,-5.31744 58.74796,19.9643 61.46875,13.0625 3.95898,-11.94824 -25.64187,-37.03634 -30.09375,-44.46875 -3.87242,-6.85285 -4.71239,-17.9194 5.21875,-24.84375 9.9349,-6.92434 111.50996,-45.77552 107.25,-75.84375 -7.36468,-54.63458 -128.82052,-58.18257 -130.78125,-62.78125 -0.92191,-2.1601 5.3446,-78.12685 -30.09375,-64.09375 -21.81925,8.12105 -4.00496,56.52301 -2.59375,62.78125 1.30204,5.7615 -9.70773,5.15389 -11.78125,2.625 -4.6287,-5.65237 -19.9116,-56.10291 -37.9375,-47.09375 -25.28137,13.939 -1.48853,57.43256 -6.53125,58.84375 -9.36668,5.23466 -8.83606,18.02087 -16.34375,28.4375 -12.38092,17.74363 -105.021,-8.31111 -134.96875,-10.125 -21.92462,-1.29455 -42.8956,16.69428 -44.875,14.40625 -26.69638,-26.73399 -81.9285,-73.2869 -142.4375,-88.75 C 90.129469,410.48114 39.649614,383.81985 37.625,384.15853 Z m 529.46875,102.21875 c 5.78951,-10e-6 10.46875,5.34579 10.46875,11.9375 2e-5,6.59167 -4.67924,11.9375 -10.46875,11.9375 -5.78954,0 -10.5,-5.34583 -10.5,-11.9375 10e-6,-6.59171 4.71046,-11.9375 10.5,-11.9375 z m -23.53125,7.25 c 4.45553,19.23387 11.41036,25.36339 32.28125,24.75 -26.56462,24.35939 -42.70923,-17.37781 -32.28125,-24.75 z M 601,543.90853 c 1.08692,0.0412 1.92367,0.28894 2.46875,0.8125 10.46545,3.79336 -44.97502,23.75615 -45.34375,20.9375 -0.57648,-2.01216 32.36808,-22.14821 42.875,-21.75 z m 5.625,12.78125 c 0.57282,-0.0444 1.07711,0.032 1.5,0.25 9.87845,9.8145 -31.27532,31.57642 -30.8125,30.8125 -3.31635,-2.00393 20.72016,-30.39586 29.3125,-31.0625 z"
           id="path14-6" /></g><g
         inkscape:groupmode="layer"
         id="layer15"
         inkscape:label="Mouse_Gloss" /></g></g></svg>
