<?xml version="1.0" encoding="UTF-8" standalone="no"?>
<!-- Created with Inkscape (http://www.inkscape.org/) -->

<svg
   width="2560"
   height="1440"
   viewBox="0 0 677.33332 381"
   version="1.1"
   id="svg1"
   inkscape:version="1.4 (86a8ad7, 2024-10-11)"
   sodipodi:docname="xfce.svg"
   xml:space="preserve"
   inkscape:export-filename="xfceef.png"
   inkscape:export-xdpi="96"
   inkscape:export-ydpi="96"
   xmlns:inkscape="http://www.inkscape.org/namespaces/inkscape"
   xmlns:sodipodi="http://sodipodi.sourceforge.net/DTD/sodipodi-0.dtd"
   xmlns:xlink="http://www.w3.org/1999/xlink"
   xmlns="http://www.w3.org/2000/svg"
   xmlns:svg="http://www.w3.org/2000/svg"><sodipodi:namedview
     id="namedview1"
     pagecolor="#505050"
     bordercolor="#eeeeee"
     borderopacity="1"
     inkscape:showpageshadow="0"
     inkscape:pageopacity="0"
     inkscape:pagecheckerboard="0"
     inkscape:deskcolor="#505050"
     inkscape:document-units="mm"
     inkscape:zoom="0.09415237"
     inkscape:cx="1035.5555"
     inkscape:cy="785.96003"
     inkscape:current-layer="layer1"
     inkscape:window-width="1304"
     inkscape:window-height="745"
     inkscape:window-x="-8"
     inkscape:window-y="-8"
     inkscape:window-maximized="1"
     showguides="false" /><defs
     id="defs1"><linearGradient
       id="linearGradient355"
       inkscape:collect="always"><stop
         style="stop-color:#3f1652;stop-opacity:1;"
         offset="0"
         id="stop355" /><stop
         style="stop-color:#66377f;stop-opacity:1;"
         offset="1"
         id="stop356" /></linearGradient><pattern
       inkscape:collect="always"
       xlink:href="#DiamondPlate"
       preserveAspectRatio="xMidYMid"
       id="pattern3"
       patternTransform="matrix(-0.07071068,-0.07071068,0.07071068,-0.07071068,0,0)"
       x="0"
       y="0" /><pattern
       patternUnits="userSpaceOnUse"
       width="83"
       height="84"
       preserveAspectRatio="xMidYMid"
       id="DiamondPlate"
       inkscape:stockid="Diamond Plate"
       style="fill:#58581a"
       patternTransform="matrix(0.35355339,0.35355339,-0.35355339,0.35355339,0,0)"
       x="0"
       y="0"
       inkscape:label="Diamondplate"
       inkscape:collect="always"
       inkscape:isstock="true"><path
         id="rect22"
         style="fill-opacity:1;stroke:none"
         d="m 29.441406,0 c -0.485427,1.590892 -0.802734,3.4057 -0.802734,5.466797 0,5.423014 2.298575,9.285029 3.939453,11.560547 1.640878,-2.275518 3.939453,-6.137533 3.939453,-11.560547 0,-2.061091 -0.315357,-3.875908 -0.800781,-5.466797 z m 42,0 c -0.485427,1.590892 -0.802734,3.4057 -0.802734,5.466797 0,5.423014 2.298575,9.285029 3.939453,11.560547 1.640878,-2.275518 3.939453,-6.137533 3.939453,-11.560547 C 78.517578,3.405706 78.202221,1.590889 77.716797,0 Z M 11.578125,1.527344 c -5.423017,0 -9.283074,2.29858 -11.558594,3.939453 2.27552,1.640874 6.135577,3.939453 11.558594,3.939453 5.451291,0 9.197845,-2.20152 11.560547,-3.939453 C 20.77597,3.728865 17.029416,1.527344 11.578125,1.527344 Z m 42,0 c -5.423019,0 -9.283075,2.29858 -11.558594,3.939453 2.275519,1.640874 6.135575,3.939453 11.558594,3.939453 5.451291,0 9.197845,-2.20152 11.560547,-3.939453 C 62.77597,3.728865 59.029416,1.527344 53.578125,1.527344 Z m -42,13.378906 C 9.840198,17.268958 7.638672,21.0155 7.638672,26.4668 c 0,5.42301 2.298575,9.28503 3.939453,11.56054 1.640878,-2.27551 3.939453,-6.13753 3.939453,-11.56054 0,-5.4513 -2.201525,-9.197842 -3.939453,-11.56055 z m 42,0 c -1.737928,2.362708 -3.939453,6.10925 -3.939453,11.56055 0,5.42301 2.298575,9.28503 3.939453,11.56054 1.640878,-2.27551 3.939453,-6.13753 3.939453,-11.56054 0,-5.4513 -2.201525,-9.197842 -3.939453,-11.56055 z m -21,7.62109 c -5.423019,0 -9.283075,2.29858 -11.558594,3.93946 2.275519,1.64087 6.135575,3.93945 11.558594,3.93945 5.451291,0 9.197845,-2.20152 11.560547,-3.93945 -2.362702,-1.73793 -6.109256,-3.93946 -11.560547,-3.93946 z m 41,0 c -5.423015,0 -9.283076,2.29858 -11.558594,3.93946 2.275518,1.64087 6.135579,3.93945 11.558594,3.93945 4.031903,0 7.125505,-1.20476 9.421875,-2.53516 V 25.0625 C 80.70363,23.7321 77.610028,22.52734 73.578125,22.52734 Z M 0,25.0625 v 2.80859 C 0.808414,27.40274 1.523479,26.91931 2.138672,26.4668 1.523479,26.01428 0.808414,25.53085 0,25.0625 Z m 32.578125,10.84375 c -1.737928,2.36271 -3.939453,6.10925 -3.939453,11.56055 0,5.42301 2.298575,9.28503 3.939453,11.56054 1.640878,-2.27551 3.939453,-6.13753 3.939453,-11.56054 0,-5.4513 -2.201525,-9.19784 -3.939453,-11.56055 z m 42,0 c -1.737928,2.36271 -3.939453,6.10925 -3.939453,11.56055 0,5.42301 2.298575,9.28503 3.939453,11.56054 1.640878,-2.27551 3.939453,-6.13753 3.939453,-11.56054 0,-5.4513 -2.201525,-9.19784 -3.939453,-11.56055 z m -63,7.62109 c -5.423018,0 -9.283075,2.29858 -11.558594,3.93946 2.275519,1.64087 6.135576,3.93945 11.558594,3.93945 5.451291,0 9.197845,-2.20152 11.560547,-3.93945 -2.362702,-1.73793 -6.109256,-3.93946 -11.560547,-3.93946 z m 42,0 c -5.423019,0 -9.283075,2.29858 -11.558594,3.93946 2.275519,1.64087 6.135575,3.93945 11.558594,3.93945 5.451291,0 9.197845,-2.20152 11.560547,-3.93945 -2.362702,-1.73793 -6.109256,-3.93946 -11.560547,-3.93946 z m -42,13.37891 C 9.840198,59.26896 7.638672,63.0155 7.638672,68.4668 c 0,5.42301 2.298575,9.28503 3.939453,11.56054 1.640878,-2.27551 3.939453,-6.13753 3.939453,-11.56054 0,-5.4513 -2.201525,-9.19784 -3.939453,-11.56055 z m 42,0 c -1.737928,2.36271 -3.939453,6.10925 -3.939453,11.56055 0,5.42301 2.298575,9.28503 3.939453,11.56054 1.640878,-2.27551 3.939453,-6.13753 3.939453,-11.56054 0,-5.4513 -2.201525,-9.19784 -3.939453,-11.56055 z m -21,7.62109 c -5.423019,0 -9.283075,2.29858 -11.558594,3.93946 2.275519,1.64087 6.135575,3.93945 11.558594,3.93945 5.451291,0 9.197845,-2.20152 11.560547,-3.93945 -2.362702,-1.73793 -6.109256,-3.93946 -11.560547,-3.93946 z m 41,0 c -5.423015,0 -9.283076,2.29858 -11.558594,3.93946 2.275518,1.64087 6.135579,3.93945 11.558594,3.93945 4.031903,0 7.125505,-1.20476 9.421875,-2.53516 V 67.0625 C 80.70363,65.7321 77.610028,64.52734 73.578125,64.52734 Z M 0,67.0625 v 2.80859 C 0.808414,69.40274 1.523479,68.91931 2.138672,68.4668 1.523479,68.01428 0.808414,67.53085 0,67.0625 Z M 32.578125,77.90625 C 31.497295,79.37563 30.239861,81.38322 29.441406,84 h 6.275391 c -0.798455,-2.61679 -2.05784,-4.62436 -3.138672,-6.09375 z m 42,0 C 73.497295,79.37563 72.239861,81.38322 71.441406,84 h 6.275391 c -0.798455,-2.61679 -2.05784,-4.62436 -3.138672,-6.09375 z" /></pattern><linearGradient
       inkscape:collect="always"
       xlink:href="#linearGradient355"
       id="linearGradient356"
       x1="1.9870557"
       y1="382.51367"
       x2="676.60211"
       y2="4.9727828e-06"
       gradientUnits="userSpaceOnUse" /></defs><g
     inkscape:label="Слой 1"
     inkscape:groupmode="layer"
     id="layer1"><rect
       style="opacity:1;fill:url(#linearGradient356);fill-opacity:1;stroke-width:0.264583"
       id="rect1"
       width="677.33331"
       height="381"
       x="1.0172526e-05"
       y="0" /><rect
       style="fill:url(#pattern3);stroke-width:0.264583;fill-opacity:1;opacity:0"
       id="rect2"
       width="677.33331"
       height="381"
       x="0"
       y="0" /><path
       id="path2557"
       style="fill:#e53d71;fill-opacity:1;stroke:none;stroke-width:0.499999;stroke-dasharray:none;stroke-opacity:1"
       d="m 134.37995,134.39171 -12.21035,11.83112 -1.06562,1.03277 h 23.76119 c -1.63879,-2.01243 -3.74004,-4.59875 -4.82689,-5.93048 z m 55.49883,1.04431 c -0.21359,0.0207 -3.75481,4.29259 -9.89951,11.81958 h 21.98827 l -0.89797,-0.89882 c -6.01541,-6.02007 -11.05113,-10.93456 -11.19079,-10.92076 z m 186.08642,2.20333 c -0.78274,-0.78272 -20.68378,5.70131 -29.58375,9.61625 h 31.67022 c -0.93844,-4.45414 -2.00568,-9.53503 -2.08647,-9.61581 z m 26.0584,2.76433 v 6.85192 h 59.9004 v -6.85192 h -29.95105 z m 74.46852,0 v 6.85192 h 22.14314 v -6.85192 z m 36.71128,0 v 6.85192 h 59.90039 v -6.85192 h -29.95105 z m -286.8898,1.99688 v 4.85504 h 60.40079 v -4.85504 h -30.20018 z m 119.6805,5.00905 c -2.82372,1.26001 -5.47369,2.58792 -8.03913,3.94683 2.56544,-1.35891 5.21541,-2.68682 8.03913,-3.94683 z m -8.03913,3.94683 c -1.75739,0.93089 -3.45309,1.88352 -5.08754,2.85859 h 46.66153 c -0.27267,-1.32547 -0.29577,-1.4147 -0.59169,-2.85859 z m -5.08754,2.85859 c -2.07503,1.23791 -4.05958,2.50663 -5.93391,3.81246 1.88258,-1.30254 3.8591,-2.57468 5.93391,-3.81246 z m -215.99483,-2.85859 -2.94946,2.85859 h 36.60633 c -0.84885,-1.04385 -1.4689,-1.80439 -2.32664,-2.85859 z m 59.76176,0 c -0.90176,1.1086 -1.30105,1.58944 -2.33176,2.85859 h 34.61926 l -2.85647,-2.85859 z m 49.67924,0 v 2.85859 h 60.40079 v -2.85859 z m 175.71,0 v 2.85859 h 59.9004 v -1.58222 -1.27637 z m 74.46852,0 v 2.85859 h 22.14314 v -2.85859 z m 36.71128,0 v 1.27637 1.58222 h 59.90039 v -2.85859 z m -186.47507,6.80969 c -1.88981,1.32412 -3.69692,2.67479 -5.37804,4.06458 1.68127,-1.38991 3.47952,-2.74354 5.37804,-4.06458 z m -5.37804,4.06458 c -5.65378,4.67398 -10.08306,9.71615 -13.30287,15.03866 h 41.1521 c 2.86957,-1.85073 6.16635,-3.52641 9.89651,-4.9907 5.29542,-2.07877 13.95759,-4.48686 19.58741,-5.44545 3.06704,-0.52227 3.34439,-0.66906 3.11669,-1.64623 -0.0286,-0.12272 -0.4897,-2.3758 -0.61173,-2.95628 z m -207.33159,0 c 2.04214,2.10425 8.21688,8.61576 14.27293,15.03866 h 64.46152 c 2.65635,-2.76019 4.02432,-4.19547 7.04688,-7.32544 l 7.44788,-7.71322 h -39.53872 c -2.85815,3.43685 -5.14458,6.12715 -5.28804,6.12715 -0.15779,0 -2.48118,-2.72367 -5.30979,-6.12715 z m 112.2949,0 v 15.03866 h 31.94751 v -0.92571 -8.48535 h 14.22601 14.22727 v -5.6276 z m 175.71,0 v 15.03866 h 31.44712 v -4.66863 -7.73753 h 14.22727 14.22601 v -2.6325 z m 74.46852,0 v 2.6325 h 22.14314 v -2.6325 z m 36.71128,0 v 2.6325 h 14.226 14.22599 v 7.73753 4.66863 h 31.4484 v -15.03866 z m -205.15768,15.04164 c -1.04237,1.72338 -1.96836,3.47305 -2.74768,5.25435 0.77934,-1.78129 1.70531,-3.53098 2.74768,-5.25435 z m -174.78984,5.25776 6.24361,6.62839 h 41.85511 l 2.79332,-2.94349 c 0.42924,-0.4523 2.65092,-2.75259 3.54457,-3.6849 z m 93.05772,0 v 6.62839 h 58.90302 v -4.32864 h -13.47817 -13.47734 v -2.29975 z m 78.98274,0 c -0.94874,2.16901 -1.68254,4.38162 -2.23493,6.62839 h 34.98954 c 0.0766,-0.15657 0.11315,-0.25037 0.19708,-0.4202 1.08552,-2.19619 2.616,-4.26186 4.48946,-6.20819 z m -2.23493,6.62839 c -0.27548,1.12049 -0.50565,2.24854 -0.68127,3.38672 0.17903,-1.13726 0.40585,-2.26644 0.68127,-3.38672 z m 98.96219,-6.62839 v 6.62839 h 55.90664 v -6.62839 z m 70.30371,0 v 6.62839 h 30.47277 v -6.62839 z m 44.86856,0 v 6.62839 h 55.90792 v -6.62839 z m -180.04161,8.59412 c -0.0232,0.0581 -0.0336,0.11279 -0.0555,0.16979 0.0223,-0.0582 0.0316,-0.11033 0.0555,-0.16979 z m -34.78818,1.52081 c -0.16938,1.11684 -0.30467,2.23902 -0.37712,3.37178 0.077,-1.13185 0.2043,-2.25564 0.37712,-3.37178 z m -0.38352,3.56887 c -0.134,2.27338 -0.0975,4.57351 0.16339,6.9044 -0.26092,-2.3311 -0.30648,-4.63265 -0.16339,-6.9044 z m 0.16339,6.9044 c 0.0115,0.10271 0.008,0.20348 0.0209,0.3063 0.0685,0.57448 0.17586,1.11919 0.25893,1.68247 h 35.46135 c -0.37185,-0.76512 -0.65254,-1.41473 -0.86128,-1.98877 z m 0.27984,1.98877 c 0.29709,2.01438 0.66948,3.9703 1.15138,5.84048 -0.4819,-1.87018 -0.85429,-3.8261 -1.15138,-5.84048 z m 1.15138,5.84048 c 0.68779,2.66923 1.55294,5.19872 2.61373,7.57073 h 79.35898 v -2.31938 l -1.37235,0.28667 c -4.08402,0.8547 -15.65367,1.28078 -21.38721,0.78707 -9.4027,-0.80975 -15.92878,-2.85489 -20.23627,-6.32509 z m 32.91245,-10.40715 c 0.012,0.13195 0.0326,0.2946 0.0473,0.41849 -0.0158,-0.13674 -0.0352,-0.27189 -0.0473,-0.41849 z m -206.5859,2.5779 -1.98835,1.98877 h 67.19129 c -0.44857,-0.4756 -0.82195,-0.85345 -1.24992,-1.30878 -0.28,-0.29791 -0.36012,-0.38196 -0.64031,-0.67999 z m 96.40988,0 v 1.98877 h 58.90302 v -1.98877 z m 175.71,0 v 1.98877 h 31.44712 v -0.31013 h 12.2304 12.22912 v -1.67864 z m 70.30371,0 v 1.67864 h 30.47277 v -1.67864 z m 44.86856,0 v 1.67864 h 12.23041 12.22911 v 0.31013 h 31.4484 v -1.98877 z M 339.91303,208.327 c 0.0615,0.0755 0.13157,0.14558 0.19452,0.22012 -0.0619,-0.0754 -0.13405,-0.14371 -0.19452,-0.22012 z m -217.83642,2.62056 -7.56861,7.57073 h 38.25083 c 3.62239,-4.30866 6.29351,-7.42878 6.54052,-7.57073 z m 37.51282,0 c 0.25658,0.14318 3.09838,3.27283 6.93554,7.57073 h 41.39524 l -0.11986,-0.122 c -1.47703,-1.50508 -4.52601,-4.73766 -7.11471,-7.44873 z m 66.72417,0 v 7.57073 h 31.94751 v -7.57073 z m 175.71,0 v 7.57073 h 31.44712 v -6.23336 -1.33737 z m 139.63179,0 v 1.33737 6.23336 h 31.4484 v -7.57073 z M 306.19175,218.52 c 0.27116,0.60626 0.58214,1.18026 0.8775,1.76695 -0.29574,-0.58635 -0.6063,-1.16073 -0.8775,-1.76695 z m -193.46435,1.77931 -1.33566,1.33609 h 38.77 c 0.36824,-0.44112 0.7614,-0.91561 1.1134,-1.33609 z m 55.37468,0 c 0.37626,0.42316 0.78974,0.89218 1.18337,1.33609 h 41.69343 l -1.31091,-1.33609 z m 58.21152,0 v 1.33609 h 31.94751 v -1.33609 z m 80.76206,0 c 0.22429,0.44517 0.4341,0.90225 0.6723,1.33609 h 77.80192 v -1.33609 z m 0.6723,1.33609 c 1.39021,2.53203 3.0322,4.85781 4.89259,7.00081 -1.86039,-2.143 -3.50238,-4.46878 -4.89259,-7.00081 z m 4.89259,7.00081 c 2.83827,3.26945 6.20608,6.09419 10.12133,8.44056 h 62.788 v -7.36939 -1.07117 z m 89.38305,-8.3369 v 1.33609 h 60.39951 v -1.33609 z m 74.96764,0 v 1.33609 h 21.14491 v -1.33609 z m 35.71305,0 v 1.33609 h 60.3995 v -1.33609 z m -402.07316,8.3369 7.48627,7.48627 c 0.52485,0.52487 0.4784,0.44932 0.98585,0.95429 h 18.10885 c 2.67594,-3.18127 3.24594,-3.74398 7.01532,-8.31984 0.0387,-0.0471 0.062,-0.0738 0.10067,-0.12072 z m 64.85228,0 7.39242,8.44056 h 16.91738 l 2.13339,-2.14107 6.2773,-6.29949 z m 50.83019,0 v 8.44056 h 31.94751 v -8.44056 z m 175.71,0 v 8.44056 h 60.39951 v -4.32607 -4.11449 z m 74.96764,0 v 8.44056 h 21.14491 v -8.44056 z m 35.71305,0 v 4.11449 4.32607 h 60.3995 v -8.44056 z m -189.94156,8.44098 c 1.04781,0.62792 2.13689,1.21977 3.26088,1.7806 -1.12399,-0.56084 -2.21307,-1.15268 -3.26088,-1.7806 z m 3.26088,1.7806 c 4.80462,2.39739 10.28887,4.19264 16.46603,5.34478 2.95492,0.55112 6.27161,1.097 7.36982,1.21237 1.09817,0.11537 6.82553,0.13967 12.72823,0.0554 9.38577,-0.13414 16.92007,-0.82038 21.8394,-1.98962 l 1.12279,-0.26662 v -4.35637 z m -205.08004,0 c 3.79377,3.73898 7.98769,7.86936 8.13085,7.86936 0.0845,0 4.45534,-5.29613 6.63565,-7.86936 z m 63.49231,0 6.3541,7.25463 7.2286,-7.25463 z m 41.87772,0 v 7.37024 h 15.9746 15.97291 v -7.37024 z m 175.71,0 v 6.8707 h 30.1989 30.20061 v -6.8707 z m 74.96764,0 v 6.8707 h 21.14491 v -6.8707 z m 35.71305,0 v 6.8707 h 30.19889 30.20061 v -6.8707 z" /><path
       id="path274"
       style="opacity:1;fill:#f89f5b;fill-opacity:1;stroke:none;stroke-width:0.499999;stroke-linecap:round;stroke-linejoin:round;stroke-dasharray:none;stroke-opacity:1"
       d="m 109.82403,237.07677 c 0.94718,0.94254 0.98167,0.93477 1.84032,1.78102 h 14.76649 c 0.49349,-0.58242 0.92916,-1.09996 1.50203,-1.78102 z m 63.77258,0 1.56005,1.78102 h 13.5827 l 1.77463,-1.78102 z m 43.43777,0 v 1.78102 h 31.94751 v -1.78102 z m 96.44828,0 c 1.04806,0.62809 2.13745,1.22004 3.26173,1.78102 h 59.52627 v -1.78102 z m 79.26171,0 v 1.78102 h 60.39952 v -1.78102 z m 74.96765,0 v 1.78102 h 21.1449 v -1.78102 z m 35.71304,0 v 1.78102 h 60.3995 v -1.78102 z" /><path
       id="path267"
       style="opacity:1;fill:#9d3488;fill-opacity:1;stroke:none;stroke-width:0.499999;stroke-linecap:round;stroke-linejoin:round;stroke-dasharray:none;stroke-opacity:1"
       d="m 113.5447,221.6354 -3.88028,3.88114 3.11967,3.11967 h 33.69697 c 2.24216,-2.72131 3.90418,-4.68948 5.83364,-7.00081 z m 57.89372,0 c 2.00726,2.26365 3.70981,4.16035 6.03371,6.81354 l 0.16424,0.18727 h 32.72049 l 4.85931,-4.8768 -2.08432,-2.12401 z m 57.02815,0 v 7.00081 h 31.9475 v -1.37661 -5.6242 z m 81.43436,0 c 1.39021,2.53203 3.03218,4.85781 4.89259,7.00081 h 72.90932 v -7.00081 z m 94.27564,0 v 7.00081 h 60.3995 v -7.00081 z m 74.96764,0 v 7.00081 h 21.1449 v -7.00081 z m 35.71303,0 v 7.00081 h 60.39952 v -7.00081 z" /><path
       id="path260"
       style="opacity:1;fill:#9d3488;fill-opacity:1;stroke:none;stroke-width:0.499999;stroke-linecap:round;stroke-linejoin:round;stroke-dasharray:none;stroke-opacity:1"
       d="m 109.57841,218.51829 -1.7806,1.78102 h 38.54775 c 0.46916,-0.56041 1.04659,-1.26111 1.48369,-1.78102 z m 52.01697,0 c 0.46709,0.52317 1.07561,1.21703 1.57711,1.78102 h 41.56589 l -1.74776,-1.78102 z m 59.78864,0 v 1.78102 h 31.9475 v -1.78102 z m 79.87729,0 c 0.2733,0.61114 0.58685,1.1898 0.88476,1.78102 h 78.47422 v -1.78102 z m 95.8327,0 v 1.78102 h 60.39951 v -0.52768 h -14.47556 -14.47683 v -1.25334 z m 139.6318,0 v 1.25334 H 522.25026 507.7747 v 0.52768 h 60.3995 v -1.78102 z m -64.66415,1.25334 v 0.52768 h 21.1449 v -0.52768 z" /><path
       id="path253"
       style="opacity:1;fill:#f89f5b;fill-opacity:1;stroke:none;stroke-width:0.499999;stroke-linecap:round;stroke-linejoin:round;stroke-dasharray:none;stroke-opacity:1"
       d="m 135.30975,205.10708 -3.35258,3.35388 -2.48618,2.4866 h 37.22275 c 0.006,-0.004 0.13735,-0.16041 0.14076,-0.16041 0.004,0 0.14255,0.15663 0.14932,0.16041 h 41.09621 c -2.02986,-2.1258 -3.577,-3.71786 -5.57898,-5.84048 z m 98.39824,0 v 5.84048 h 31.9475 v -2.6564 h 13.47734 13.47818 v -3.18408 z m 76.11219,0 c 0.2971,2.01438 0.66947,3.9703 1.15137,5.84048 h 38.9769 c -1.93118,-1.5558 -3.46097,-3.36933 -4.527,-5.53589 -0.0591,-0.12019 -0.085,-0.19144 -0.13993,-0.30459 z m 99.5978,0 v 5.84048 h 31.44712 v -5.84048 z m 139.63181,0 v 5.84048 h 31.44839 v -5.84048 z" /><path
       id="path248"
       style="opacity:1;fill:#f89f5b;fill-opacity:1;stroke:none;stroke-width:0.499999;stroke-linecap:round;stroke-linejoin:round;stroke-dasharray:none;stroke-opacity:1"
       d="m 143.4712,189.1585 2.11462,2.24515 -11.71038,11.71466 h 63.3127 c -4.49671,-4.78322 -9.11796,-9.6919 -10.27661,-10.9131 l -2.2379,-2.35904 0.65268,-0.68767 z m 86.81411,0 v 5.15621 8.8036 h 58.90303 v -6.55844 -7.40137 z m 76.74781,0 c -1.11115,4.51954 -1.45046,9.17987 -0.91546,13.95981 h 34.8799 c -0.55014,-1.51282 -0.6433,-2.76564 -0.6433,-5.8264 0,-4.29721 0.13613,-5.00072 1.6684,-8.13341 z m 98.96219,0 v 3.90843 10.05138 h 55.90664 v -10.55049 -3.40932 z m 70.30371,0 v 13.95981 H 506.7718 V 189.1585 Z m 44.86856,0 v 3.40932 10.55049 h 55.90792 v -10.05138 -3.90843 z" /><path
       id="path242"
       style="opacity:1;fill:#9d3488;fill-opacity:1;stroke:none;stroke-width:0.499999;stroke-linecap:round;stroke-linejoin:round;stroke-dasharray:none;stroke-opacity:1"
       d="m 119.30238,177.26937 c 0.49903,0.52927 0.67968,0.71212 1.17611,1.23924 l 3.78814,4.0215 h 54.43661 c 1.27585,-1.33107 3.15302,-3.27853 5.06066,-5.26074 z m 98.02198,0 v 5.26074 h 31.9475 v -5.26074 z m 81.73382,0 c -1.04379,1.72544 -1.97099,3.47723 -2.7511,5.26074 h 37.44117 c 1.81009,-1.8805 3.9546,-3.64359 6.46202,-5.26074 z m 93.97618,0 v 5.26074 h 55.90663 v -2.19312 h -12.22912 -12.23041 v -3.06762 z m 139.63179,0 v 3.06762 h -12.22913 -12.2304 v 2.19312 h 55.90793 v -5.26074 z m -69.32809,3.06762 v 2.19312 h 30.47278 v -2.19312 z" /><path
       id="path236"
       style="opacity:1;fill:#f89f5b;fill-opacity:1;stroke:none;stroke-width:0.499999;stroke-linecap:round;stroke-linejoin:round;stroke-dasharray:none;stroke-opacity:1"
       d="m 111.74832,154.21503 -3.96261,3.84062 3.68106,3.77789 c 0.0482,0.0496 0.32317,0.34159 0.37711,0.39717 h 43.09266 c -1.08021,-1.29974 -2.01026,-2.39556 -3.25107,-3.92295 -1.08203,-1.33195 -2.11556,-2.59826 -3.33083,-4.09273 z m 60.37946,0 c -0.82476,1.01558 -0.95433,1.16388 -1.86592,2.28739 -1.80975,2.23053 -3.24142,3.94133 -4.72749,5.72829 h 39.53871 l 4.75865,-4.92843 -3.08469,-3.08725 z m 52.011,0 v 8.01568 h 60.40079 v -7.10191 -0.91377 z m 106.55383,0 c -4.24952,2.53516 -8.11571,5.2037 -11.51715,8.01568 h 59.83812 c -0.33086,-1.57395 -0.89487,-4.29892 -1.65945,-8.01568 z m 69.15617,0 v 8.01568 h 59.9004 v -8.01568 z m 74.46853,0 v 8.01568 h 22.14313 v -8.01568 z m 36.71126,0 v 8.01568 h 59.9004 v -8.01568 z" /><path
       id="path229"
       style="opacity:1;fill:#9d3488;fill-opacity:1;stroke:none;stroke-width:0.499999;stroke-linecap:round;stroke-linejoin:round;stroke-dasharray:none;stroke-opacity:1"
       d="m 135.86713,147.2556 -4.23137,4.10084 h 31.33023 c -1.23047,-1.5123 -2.20447,-2.70927 -3.33766,-4.10084 z m 58.8753,0 c -1.04674,1.28222 -2.05129,2.51052 -3.34491,4.10084 h 29.43104 l -4.09785,-4.10084 z m 46.33434,0 v 4.10084 h 60.40078 v -4.10084 z m 120.06784,0 c -0.68557,1.27888 -3.36055,0.92847 -3.463,0.97419 -0.6489,0.75255 -4.13789,2.49269 -4.96347,3.12665 h 40.9823 c -0.0391,-0.19089 -0.0387,-0.1858 -0.0781,-0.37796 -0.41303,-2.01636 -0.44421,-1.99843 -0.80753,-3.72288 z m 55.64216,0 v 4.10084 h 59.90039 v -4.10084 z m 74.46852,0 v 4.10084 h 22.14314 v -4.10084 z m 36.71126,0 v 4.10084 h 59.90041 v -4.10084 z"
       sodipodi:nodetypes="ccccccccccccccccccccccccccccccccccccc" /><path
       id="path13"
       style="fill:#9d3488;fill-opacity:1;fill-rule:evenodd;stroke:none;stroke-width:0.00145466pt;stroke-linecap:butt;stroke-linejoin:miter;stroke-opacity:1"
       d="m 350.27219,183.89716 c -0.20327,0.11129 1.62654,1.30427 5.0456,2.71188 3.41929,1.40762 8.1427,4.9753 7.77235,5.55114 -1.11059,1.56425 -1.76562,3.43502 -1.31352,6.63948 0.0816,0.56407 -1.67164,1.54351 -1.54412,2.3946 0.10665,0.64761 1.95955,-0.64189 2.16216,-0.38729 0.12397,0.45699 -0.99139,2.76978 -0.54062,2.93506 0.32969,0.098 3.228,-2.75016 3.3964,-2.70261 4.7796,1.44494 10.99841,0.35378 11.11882,0.30801 -0.0113,-0.0251 4.47488,2.10919 4.86478,1.85414 0.9835,-1.06503 -1.86385,-2.56618 -1.3891,-3.16581 0.20817,-0.31392 3.46823,1.17867 3.62885,0.77121 0.23371,-0.70536 -1.51373,-2.18641 -1.77655,-2.62519 -0.2286,-0.40455 -0.27827,-1.0579 0.30801,-1.46669 0.58651,-0.40877 6.58296,-2.70241 6.33147,-4.47748 -0.43477,-3.22535 -7.60481,-3.43479 -7.72056,-3.70627 -0.0544,-0.12752 0.31537,-4.61214 -1.77672,-3.7837 -1.2881,0.47943 -0.2363,3.33682 -0.153,3.70628 0.0769,0.34012 -0.57324,0.3043 -0.69564,0.15501 -0.27327,-0.33369 -1.17544,-3.31206 -2.23959,-2.78021 -1.49248,0.82288 -0.0879,3.39052 -0.38561,3.47384 -0.55296,0.30902 -0.52164,1.06377 -0.96485,1.67871 -0.73091,1.04749 -6.19988,-0.49055 -7.96785,-0.59764 -1.29432,-0.0764 -2.53229,0.98557 -2.64914,0.8505 -1.57602,-1.57824 -4.83665,-4.32657 -8.40879,-5.23942 -2.00322,-0.54364 -4.98325,-2.11755 -5.10278,-2.09755 z m 36.32811,2.96355 c -0.10912,-0.0286 -0.60923,2.53074 -0.37261,2.64578 0.20639,0.1544 0.56591,-2.5051 0.37751,-2.6424 -0.002,-0.002 -0.004,-0.004 -0.005,-0.004 z m 1.76695,0.33855 c -0.27068,-0.005 -1.71706,2.30122 -1.38454,2.54743 0.20639,0.15441 1.49522,-2.45219 1.40681,-2.5395 -0.006,-0.005 -0.0135,-0.007 -0.0223,-0.008 z m -6.83802,2.7323 c 0.34179,0 0.61805,0.31561 0.61805,0.70476 0,0.38914 -0.27626,0.70475 -0.61805,0.70475 -0.34178,0 -0.61973,-0.31561 -0.61973,-0.70475 0,-0.38915 0.27795,-0.70476 0.61973,-0.70476 z m -1.3891,0.42812 c 0.26304,1.13547 0.67366,1.49733 1.90577,1.46111 -1.56824,1.43806 -2.52138,-1.0259 -1.90577,-1.46111 z m 3.39085,2.96829 c 0.0642,0.003 0.11355,0.017 0.14574,0.0479 0.61782,0.22395 -2.65522,1.40251 -2.67698,1.23611 -0.034,-0.11879 1.91097,-1.30751 2.53124,-1.284 z m 0.33196,0.75452 c 0.0338,-0.003 0.0635,0.002 0.0885,0.0149 0.58317,0.5794 -1.84622,1.86399 -1.8189,1.81889 -0.19578,-0.1183 1.22309,-1.79438 1.73034,-1.83373 z" /><path
       style="fill:#ff467b;fill-opacity:1;stroke:none;stroke-width:0.499999;stroke-dasharray:none;stroke-opacity:1"
       d="m 512.70429,238.85779 v 0.86982 h 60.3995 v -0.86982 z"
       id="path396" /><path
       style="fill:#ff467b;fill-opacity:1;stroke:none;stroke-width:0.499999;stroke-dasharray:none;stroke-opacity:1"
       d="m 476.99124,238.85779 v 0.86982 h 21.14491 v -0.86982 z"
       id="path395" /><path
       style="fill:#ff467b;fill-opacity:1;stroke:none;stroke-width:0.499999;stroke-dasharray:none;stroke-opacity:1"
       d="m 402.0236,238.85779 v 0.86982 h 60.39951 v -0.86982 z"
       id="path394" /><path
       style="fill:#ff467b;fill-opacity:1;stroke:none;stroke-width:0.499999;stroke-dasharray:none;stroke-opacity:1"
       d="m 326.02361,238.85779 c 0.62021,0.30947 1.2836,0.58051 1.92648,0.86982 h 57.59979 v -0.86982 z"
       id="path393" /><path
       style="fill:#ff467b;fill-opacity:1;stroke:none;stroke-width:0.499999;stroke-dasharray:none;stroke-opacity:1"
       d="m 226.3136,238.85779 v 0.86982 h 31.94751 v -0.86982 z"
       id="path392" /><path
       style="fill:#ff467b;fill-opacity:1;stroke:none;stroke-width:0.499999;stroke-dasharray:none;stroke-opacity:1"
       d="m 184.43588,238.85779 0.76189,0.86982 h 11.95398 l 0.86683,-0.86982 z"
       id="path391" /><path
       style="fill:#ff467b;fill-opacity:1;stroke:none;stroke-width:0.499999;stroke-dasharray:none;stroke-opacity:1"
       d="m 120.94357,238.85779 c 0.41936,0.41331 0.47571,0.45306 0.89883,0.86982 h 13.13436 c 0.28574,-0.3401 0.49233,-0.58541 0.73331,-0.86982 z"
       id="path390" /><path
       style="fill:#ff467b;fill-opacity:1;stroke:none;stroke-width:0.499999;stroke-dasharray:none;stroke-opacity:1"
       d="m 512.70429,228.63621 v 0.86983 h 60.3995 v -0.86983 z"
       id="path389" /><path
       style="fill:#ff467b;fill-opacity:1;stroke:none;stroke-width:0.499999;stroke-dasharray:none;stroke-opacity:1"
       d="m 476.99124,228.63621 v 0.86983 h 21.14491 v -0.86983 z"
       id="path388" /><path
       style="fill:#ff467b;fill-opacity:1;stroke:none;stroke-width:0.499999;stroke-dasharray:none;stroke-opacity:1"
       d="m 402.0236,228.63621 v 0.86983 h 60.39951 v -0.86983 z"
       id="path387" /><path
       style="fill:#ff467b;fill-opacity:1;stroke:none;stroke-width:0.499999;stroke-dasharray:none;stroke-opacity:1"
       d="m 312.64055,228.63621 c 0.26067,0.30027 0.54901,0.57708 0.81863,0.86983 h 72.0907 v -0.86983 z"
       id="path386" /><path
       style="fill:#ff467b;fill-opacity:1;stroke:none;stroke-width:0.499999;stroke-dasharray:none;stroke-opacity:1"
       d="m 226.3136,228.63621 v 0.86983 h 31.94751 v -0.86983 z"
       id="path385" /><path
       style="fill:#ff467b;fill-opacity:1;stroke:none;stroke-width:0.499999;stroke-dasharray:none;stroke-opacity:1"
       d="m 175.48341,228.63621 0.7619,0.86983 h 31.09176 l 0.86683,-0.86983 z"
       id="path384" /><path
       style="fill:#ff467b;fill-opacity:1;stroke:none;stroke-width:0.499999;stroke-dasharray:none;stroke-opacity:1"
       d="m 110.63113,228.63621 0.86982,0.86983 h 32.09468 c 0.29141,-0.3518 0.29237,-0.33707 0.63179,-0.74911 0.0387,-0.0471 0.062,-0.0738 0.10067,-0.12072 z"
       id="path383" /><path
       style="fill:#ff467b;fill-opacity:1;stroke:none;stroke-width:0.499999;stroke-dasharray:none;stroke-opacity:1"
       d="m 512.70429,220.29931 h 60.3995 v 0.86983 h -60.3995 z"
       id="path382" /><path
       style="fill:#ff467b;fill-opacity:1;stroke:none;stroke-width:0.499999;stroke-dasharray:none;stroke-opacity:1"
       d="m 476.99124,221.6354 h 21.14491 v 0.86983 h -21.14491 z"
       id="path381" /><path
       style="fill:#ff467b;fill-opacity:1;stroke:none;stroke-width:0.499999;stroke-dasharray:none;stroke-opacity:1"
       d="m 402.0236,221.6354 h 60.39951 v 0.86983 H 402.0236 Z"
       id="path380" /><path
       style="fill:#ff467b;fill-opacity:1;stroke:none;stroke-width:0.499999;stroke-dasharray:none;stroke-opacity:1"
       d="m 307.07566,221.16915 h 0.43768 c 0.078,0.15556 0.15148,0.31485 0.23462,0.46625 h 77.80192 v 0.86983 h -77.80192 c -0.2382,-0.43385 -0.44801,-0.89092 -0.6723,-1.33608 z"
       id="path379" /><path
       style="fill:#ff467b;fill-opacity:1;stroke:none;stroke-width:0.499999;stroke-dasharray:none;stroke-opacity:1"
       d="m 226.3136,220.29931 v 0.86984 h 31.94751 v -0.86984 z"
       id="path378" /><path
       style="fill:#ff467b;fill-opacity:1;stroke:none;stroke-width:0.499999;stroke-dasharray:none;stroke-opacity:1"
       d="m 168.10208,220.29931 c 0.24496,0.27549 0.50967,0.57505 0.77044,0.86984 h 40.79545 l 0.45731,0.46625 h 0.8536 l -1.31091,-1.33609 z"
       id="path377" /><path
       style="fill:#ff467b;fill-opacity:1;stroke:none;stroke-width:0.499999;stroke-dasharray:none;stroke-opacity:1"
       d="m 112.7274,220.29931 -1.33566,1.33609 h 0.8694 l 0.46626,-0.46625 h 37.82297 c 0.2458,-0.29542 0.49562,-0.5961 0.72477,-0.86984 z"
       id="path376" /><path
       style="fill:#ff467b;fill-opacity:1;stroke:none;stroke-width:0.499999;stroke-dasharray:none;stroke-opacity:1"
       d="m 306.19175,219.38983 c 0.2712,0.6062 0.58176,1.18059 0.8775,1.76694 -0.29536,-0.58668 -0.60634,-1.16069 -0.8775,-1.76694 z"
       id="path375" /><path
       style="fill:#ff467b;fill-opacity:1;stroke:none;stroke-width:0.499999;stroke-dasharray:none;stroke-opacity:1"
       d="m 541.65539,210.94756 v 0.86982 h 31.4484 v -0.86982 z"
       id="path374" /><path
       style="fill:#ff467b;fill-opacity:1;stroke:none;stroke-width:0.499999;stroke-dasharray:none;stroke-opacity:1"
       d="m 402.0236,210.94756 v 0.86982 h 31.44712 v -0.86982 z"
       id="path373" /><path
       style="fill:#ff467b;fill-opacity:1;stroke:none;stroke-width:0.499999;stroke-dasharray:none;stroke-opacity:1"
       d="m 303.57717,210.94756 c 0.0768,0.29791 0.17944,0.57542 0.26064,0.86982 h 38.71624 c 4.30749,3.47019 10.83357,5.51535 20.23627,6.32509 5.73354,0.49371 17.30319,0.0676 21.38721,-0.78707 l 1.37235,-0.28666 v -0.86983 l -1.37235,0.28667 c -4.08402,0.8547 -15.65367,1.28078 -21.38721,0.78707 -9.4027,-0.80975 -15.92878,-2.85489 -20.23627,-6.32509 z"
       id="path372" /><path
       style="fill:#ff467b;fill-opacity:1;stroke:none;stroke-width:0.499999;stroke-dasharray:none;stroke-opacity:1"
       d="m 226.3136,210.94756 v 0.86982 h 31.94751 v -0.86982 z"
       id="path371" /><path
       style="fill:#ff467b;fill-opacity:1;stroke:none;stroke-width:0.499999;stroke-dasharray:none;stroke-opacity:1"
       d="m 159.58943,210.94756 c 0.0294,0.0165 0.70155,0.77729 0.79688,0.86982 h 40.29933 c 2.32884,2.43892 4.80635,5.0553 6.40059,6.70091 h 0.83398 l -0.11986,-0.122 c -1.47703,-1.50508 -4.52601,-4.73766 -7.11471,-7.44873 z"
       id="path370" /><path
       style="fill:#ff467b;fill-opacity:1;stroke:none;stroke-width:0.499999;stroke-dasharray:none;stroke-opacity:1"
       d="m 122.07661,210.94756 -7.56861,7.57073 h 0.8694 l 6.69921,-6.70091 h 36.47108 c 0.0902,-0.0922 0.72328,-0.85352 0.75166,-0.86982 z"
       id="path369" /><path
       style="fill:#ff467b;fill-opacity:1;stroke:none;stroke-width:0.499999;stroke-dasharray:none;stroke-opacity:1"
       d="m 339.91303,209.19682 c 0.0604,0.0764 0.13261,0.14475 0.19452,0.22012 -0.063,-0.0746 -0.13302,-0.14459 -0.19452,-0.22012 z"
       id="path368" /><path
       style="fill:#ff467b;fill-opacity:1;stroke:none;stroke-width:0.499999;stroke-dasharray:none;stroke-opacity:1"
       d="m 339.91303,208.327 c 0.0615,0.0755 0.13157,0.14558 0.19452,0.22012 -0.0619,-0.0754 -0.13405,-0.14371 -0.19452,-0.22012 z"
       id="path367" /><path
       style="fill:#ff467b;fill-opacity:1;stroke:none;stroke-width:0.499999;stroke-dasharray:none;stroke-opacity:1"
       d="m 517.19587,203.11831 v 0.86982 h 55.90792 v -0.86982 z"
       id="path366" /><path
       style="fill:#ff467b;fill-opacity:1;stroke:none;stroke-width:0.499999;stroke-dasharray:none;stroke-opacity:1"
       d="m 472.32731,203.11831 v 0.86982 h 30.47277 v -0.86982 z"
       id="path365" /><path
       style="fill:#ff467b;fill-opacity:1;stroke:none;stroke-width:0.499999;stroke-dasharray:none;stroke-opacity:1"
       d="m 402.0236,203.11831 v 0.86982 h 55.90664 v -0.86982 z"
       id="path364" /><path
       style="fill:#ff467b;fill-opacity:1;stroke:none;stroke-width:0.499999;stroke-dasharray:none;stroke-opacity:1"
       d="m 226.3136,203.11831 v 0.86982 h 58.90302 v -0.86982 z"
       id="path363" /><path
       style="fill:#ff467b;fill-opacity:1;stroke:none;stroke-width:0.499999;stroke-dasharray:none;stroke-opacity:1"
       d="m 129.90372,203.11831 -1.98835,1.98877 h 0.86982 l 1.11853,-1.11895 h 63.31271 c 0.28019,0.29803 0.36031,0.38207 0.64031,0.67999 0.14356,0.15274 0.28318,0.29704 0.41935,0.43896 h 0.83057 c -0.44857,-0.4756 -0.82195,-0.85345 -1.24992,-1.30878 -0.28,-0.29791 -0.36012,-0.38196 -0.64031,-0.67999 z"
       id="path362" /><path
       style="fill:#ff467b;fill-opacity:1;stroke:none;stroke-width:0.499999;stroke-dasharray:none;stroke-opacity:1"
       d="m 336.48962,201.41023 c 0.0122,0.14661 0.0315,0.28176 0.0473,0.41848 -0.0149,-0.12388 -0.0354,-0.28653 -0.0473,-0.41848 z"
       id="path361" /><path
       style="fill:#ff467b;fill-opacity:1;stroke:none;stroke-width:0.499999;stroke-dasharray:none;stroke-opacity:1"
       d="m 336.48962,200.54041 c 0.012,0.13195 0.0326,0.2946 0.0473,0.41849 -0.0158,-0.13674 -0.0352,-0.27189 -0.0473,-0.41849 z"
       id="path360" /><path
       style="fill:#ff467b;fill-opacity:1;stroke:none;stroke-width:0.499999;stroke-dasharray:none;stroke-opacity:1"
       d="m 301.92924,199.84165 c 7e-5,0.0123 -8.3e-4,0.0245 -8.3e-4,0.0367 0.0307,1.07398 0.0959,2.15312 0.21757,3.23997 -0.12305,-1.09932 -0.18784,-2.19061 -0.21672,-3.27666 z m 0.21671,3.27666 c 0.0115,0.10271 0.008,0.20348 0.0209,0.3063 0.0229,0.1924 0.0573,0.37597 0.0866,0.56352 h 34.77241 c 0.11745,0.32298 0.31818,0.74102 0.4846,1.11895 h 0.37668 c -0.37185,-0.76512 -0.65254,-1.41473 -0.86128,-1.98877 z"
       id="path359" /><path
       style="fill:#ff467b;fill-opacity:1;stroke:none;stroke-width:0.499999;stroke-dasharray:none;stroke-opacity:1"
       d="m 301.98256,196.21391 c -0.0757,1.20211 -0.0902,2.41367 -0.0563,3.63244 -6e-5,-0.0121 8.3e-4,-0.0241 8.3e-4,-0.0362 -0.0311,-1.2061 -0.0148,-2.40532 0.0554,-3.59616 z"
       id="path358" /><path
       style="fill:#ff467b;fill-opacity:1;stroke:none;stroke-width:0.499999;stroke-dasharray:none;stroke-opacity:1"
       d="m 302.36608,193.51486 c -0.17282,1.11614 -0.30018,2.23994 -0.37712,3.37179 0.0725,-1.13276 0.20774,-2.25496 0.37712,-3.37179 z"
       id="path357" /><path
       style="fill:#ff467b;fill-opacity:1;stroke:none;stroke-width:0.499999;stroke-dasharray:none;stroke-opacity:1"
       d="m 302.36608,192.64504 c -0.16938,1.11684 -0.30467,2.23902 -0.37712,3.37178 0.077,-1.13185 0.2043,-2.25564 0.37712,-3.37178 z"
       id="path356" /><path
       style="fill:#ff467b;fill-opacity:1;stroke:none;stroke-width:0.499999;stroke-dasharray:none;stroke-opacity:1"
       d="m 337.15426,191.99406 c -0.0238,0.0594 -0.0331,0.11158 -0.0555,0.16978 0.0219,-0.057 0.0323,-0.11167 0.0555,-0.16978 z"
       id="path355" /><path
       style="fill:#ff467b;fill-opacity:1;stroke:none;stroke-width:0.499999;stroke-dasharray:none;stroke-opacity:1"
       d="m 337.15426,191.12423 c -0.0232,0.0581 -0.0336,0.11279 -0.0555,0.16979 0.0223,-0.0582 0.0316,-0.11033 0.0555,-0.16979 z"
       id="path354" /><path
       style="fill:#ff467b;fill-opacity:1;stroke:none;stroke-width:0.499999;stroke-dasharray:none;stroke-opacity:1"
       d="m 258.26111,184.82986 v 0.86983 h 13.47734 13.47817 v -0.86983 h -13.47817 z"
       id="path353" /><path
       style="fill:#ff467b;fill-opacity:1;stroke:none;stroke-width:0.499999;stroke-dasharray:none;stroke-opacity:1"
       d="m 517.19587,182.53011 v 0.86981 h 55.90792 v -0.86981 z"
       id="path352" /><path
       style="fill:#ff467b;fill-opacity:1;stroke:none;stroke-width:0.499999;stroke-dasharray:none;stroke-opacity:1"
       d="m 472.32731,182.53011 v 0.86981 h 30.47277 v -0.86981 z"
       id="path351" /><path
       style="fill:#ff467b;fill-opacity:1;stroke:none;stroke-width:0.499999;stroke-dasharray:none;stroke-opacity:1"
       d="m 402.0236,182.53011 v 0.86981 h 55.90664 v -0.86981 z"
       id="path350" /><path
       style="fill:#ff467b;fill-opacity:1;stroke:none;stroke-width:0.499999;stroke-dasharray:none;stroke-opacity:1"
       d="m 305.29634,182.53011 c -0.94874,2.16901 -1.68254,4.38162 -2.23493,6.62839 h 0.25212 c 0.52209,-1.94662 1.1575,-3.87172 1.98281,-5.75858 h 36.70699 c 0.25605,-0.28622 0.46349,-0.5886 0.73416,-0.86981 h -36.98641 z"
       id="path349" /><path
       style="fill:#ff467b;fill-opacity:1;stroke:none;stroke-width:0.499999;stroke-dasharray:none;stroke-opacity:1"
       d="m 226.3136,182.53011 v 0.86981 h 31.94751 v -0.86981 z"
       id="path348" /><path
       style="fill:#ff467b;fill-opacity:1;stroke:none;stroke-width:0.499999;stroke-dasharray:none;stroke-opacity:1"
       d="m 133.25588,182.53011 0.81949,0.86981 h 52.78056 c 0.31787,-0.33018 0.62564,-0.64976 0.83656,-0.86981 z"
       id="path347" /><path
       style="fill:#ff467b;fill-opacity:1;stroke:none;stroke-width:0.499999;stroke-dasharray:none;stroke-opacity:1"
       d="m 308.04572,177.27235 c -1.04237,1.72338 -1.96836,3.47305 -2.74768,5.25435 0.77934,-1.78129 1.70531,-3.53098 2.74768,-5.25435 z"
       id="path346" /><path
       style="fill:#ff467b;fill-opacity:1;stroke:none;stroke-width:0.499999;stroke-dasharray:none;stroke-opacity:1"
       d="m 513.2034,162.23071 v 0.86981 h 59.90039 v -0.86981 z"
       id="path345" /><path
       style="fill:#ff467b;fill-opacity:1;stroke:none;stroke-width:0.499999;stroke-dasharray:none;stroke-opacity:1"
       d="m 476.49212,162.23071 v 0.86981 h 22.14314 v -0.86981 z"
       id="path344" /><path
       style="fill:#ff467b;fill-opacity:1;stroke:none;stroke-width:0.499999;stroke-dasharray:none;stroke-opacity:1"
       d="m 402.0236,162.23071 v 0.86981 h 59.9004 v -0.86981 z"
       id="path343" /><path
       style="fill:#ff467b;fill-opacity:1;stroke:none;stroke-width:0.499999;stroke-dasharray:none;stroke-opacity:1"
       d="m 321.35029,162.23071 c -5.65378,4.67398 -10.08306,9.71615 -13.30287,15.03866 h 0.58359 c 3.16824,-4.99908 7.37772,-9.75296 12.71928,-14.16885 h 59.83811 c 0.11429,0.54371 0.49773,2.41554 0.57292,2.76902 0.0888,-0.17761 0.10815,-0.38499 0.0388,-0.68255 -0.0286,-0.12272 -0.4897,-2.3758 -0.61173,-2.95628 z"
       id="path342" /><path
       style="fill:#ff467b;fill-opacity:1;stroke:none;stroke-width:0.499999;stroke-dasharray:none;stroke-opacity:1"
       d="m 226.3136,162.23071 v 0.86981 h 60.40079 v -0.86981 z"
       id="path341" /><path
       style="fill:#ff467b;fill-opacity:1;stroke:none;stroke-width:0.499999;stroke-dasharray:none;stroke-opacity:1"
       d="m 114.0187,162.23071 c 0.11811,0.1217 0.68052,0.7195 0.82546,0.86981 h 42.2672 c 2.82861,3.40349 5.152,6.12716 5.30979,6.12716 0.14346,0 2.42989,-2.6903 5.28804,-6.12716 h 38.69876 l 0.83996,-0.86981 h -39.53872 c -2.85815,3.43685 -5.14458,6.12715 -5.28804,6.12715 -0.15779,0 -2.48118,-2.72367 -5.30979,-6.12715 z"
       id="path340" /><path
       style="fill:#ff467b;fill-opacity:1;stroke:none;stroke-width:0.499999;stroke-dasharray:none;stroke-opacity:1"
       d="m 513.2034,151.35644 v 0.86982 h 59.90039 v -0.86982 z"
       id="path339" /><path
       style="fill:#ff467b;fill-opacity:1;stroke:none;stroke-width:0.499999;stroke-dasharray:none;stroke-opacity:1"
       d="m 476.49212,151.35644 v 0.86982 h 22.14314 v -0.86982 z"
       id="path338" /><path
       style="fill:#ff467b;fill-opacity:1;stroke:none;stroke-width:0.499999;stroke-dasharray:none;stroke-opacity:1"
       d="m 402.0236,151.35644 v 0.86982 h 59.9004 v -0.86982 z"
       id="path337" /><path
       style="fill:#ff467b;fill-opacity:1;stroke:none;stroke-width:0.499999;stroke-dasharray:none;stroke-opacity:1"
       d="m 337.95497,151.35644 c -1.75739,0.93089 -3.45309,1.88352 -5.08754,2.85859 h 1.5481 c 1.16306,-0.66891 2.31681,-1.34114 3.53944,-1.98877 h 40.9823 c 0.20587,1.00454 0.29398,1.42314 0.41167,1.98877 h 0.18002 c -0.27267,-1.32547 -0.29577,-1.4147 -0.59169,-2.85859 z"
       id="path336" /><path
       style="fill:#ff467b;fill-opacity:1;stroke:none;stroke-width:0.499999;stroke-dasharray:none;stroke-opacity:1"
       d="m 226.3136,151.35644 v 0.86982 h 60.40079 v -0.86982 z"
       id="path335" /><path
       style="fill:#ff467b;fill-opacity:1;stroke:none;stroke-width:0.499999;stroke-dasharray:none;stroke-opacity:1"
       d="m 176.63436,151.35644 c -0.90176,1.1086 -1.30105,1.58944 -2.33176,2.85859 h 0.70943 c 0.5228,-0.64045 0.99495,-1.21749 1.62233,-1.98877 h 29.43103 l 1.98751,1.98877 h 0.86896 l -2.85647,-2.85859 z"
       id="path334" /><path
       style="fill:#ff467b;fill-opacity:1;stroke:none;stroke-width:0.499999;stroke-dasharray:none;stroke-opacity:1"
       d="m 116.8726,151.35644 -2.94946,2.85859 h 0.89755 l 2.05191,-1.98877 h 31.33023 c 0.59671,0.73339 1.09478,1.34537 1.61849,1.98877 h 0.70815 c -0.84885,-1.04385 -1.4689,-1.80439 -2.32664,-2.85859 z"
       id="path333" /><path
       style="fill:#ff467b;fill-opacity:1;stroke:none;stroke-width:0.499999;stroke-dasharray:none;stroke-opacity:1"
       d="m 226.3136,142.40056 v 0.86982 h 30.20061 30.20018 v -0.86982 h -30.20018 z"
       id="path332" /><path
       style="fill:#ff467b;fill-opacity:1;stroke:none;stroke-width:0.499999;stroke-dasharray:none;stroke-opacity:1"
       d="m 513.2034,140.40368 v 0.86982 h 29.94934 29.95105 v -0.86982 h -29.95105 z"
       id="path331" /><path
       style="fill:#ff467b;fill-opacity:1;stroke:none;stroke-width:0.499999;stroke-dasharray:none;stroke-opacity:1"
       d="m 476.49212,140.40368 v 0.86982 h 22.14314 v -0.86982 z"
       id="path330" /><path
       style="fill:#ff467b;fill-opacity:1;stroke:none;stroke-width:0.499999;stroke-dasharray:none;stroke-opacity:1"
       d="m 402.0236,140.40368 v 0.86982 h 29.94935 29.95105 v -0.86982 h -29.95105 z"
       id="path329" /><path
       style="fill:#ff467b;fill-opacity:1;stroke:none;stroke-width:0.499999;stroke-dasharray:none;stroke-opacity:1"
       d="m 375.9652,137.63935 c -0.78274,-0.78272 -20.68378,5.70131 -29.58375,9.61625 h 2.20292 c 9.55041,-3.93288 26.65024,-9.47701 27.38083,-8.74641 v 4.2e-4 c 0.0735,0.0735 1.03146,4.6335 1.89792,8.74599 h 0.18855 c -0.93844,-4.45414 -2.00568,-9.53503 -2.08647,-9.61581 z"
       id="path328" /><path
       style="fill:#ff467b;fill-opacity:1;stroke:none;stroke-width:0.499999;stroke-dasharray:none;stroke-opacity:1"
       d="m 189.87878,135.43602 c -0.21359,0.0207 -3.75481,4.29259 -9.89951,11.81958 h 0.72863 c 5.33382,-6.52417 8.973,-10.93057 9.17088,-10.94977 0.13966,-0.0138 5.17538,4.9007 11.19079,10.92076 l 0.029,0.029 h 0.86895 l -0.89796,-0.89883 C 195.05415,140.3367 190.01841,135.42221 189.87875,135.436 Z"
       id="path327" /><path
       style="fill:#ff467b;fill-opacity:1;stroke:none;stroke-width:0.499999;stroke-dasharray:none;stroke-opacity:1"
       d="m 134.37995,134.39171 -12.21035,11.83112 -1.06562,1.03277 h 0.89754 l 0.16808,-0.16295 12.21035,-11.83112 5.65833,6.93341 c 0.92743,1.13638 2.63169,3.23333 4.11874,5.06066 h 0.70815 c -1.63879,-2.01243 -3.74004,-4.59875 -4.82689,-5.93048 z"
       id="path320" /><path
       id="path321"
       style="opacity:1;fill:#ffcb84;fill-opacity:1;stroke:none;stroke-width:0.499999;stroke-linecap:round;stroke-linejoin:round;stroke-dasharray:none;stroke-opacity:1"
       d="m 111.74837,154.21503 -3.96261,3.84062 0.44493,0.45688 3.51768,-3.40933 h 36.60632 c 1.21527,1.49445 2.24881,2.76078 3.33084,4.09273 0.95991,1.18162 1.71384,2.07551 2.51519,3.03478 h 0.73587 c -1.08021,-1.29974 -2.01025,-2.39556 -3.25106,-3.92295 -1.08203,-1.33195 -2.11557,-2.59826 -3.33084,-4.09273 z m 60.37947,0 c -0.82476,1.01558 -0.95434,1.16388 -1.86591,2.28739 -1.80976,2.23053 -3.24143,3.94133 -4.72751,5.72829 h 0.7329 c 1.25018,-1.50207 2.46543,-2.95543 3.99461,-4.84012 0.91157,-1.12352 1.04115,-1.27182 1.86591,-2.28739 h 34.61925 l 2.64871,2.65085 0.43598,-0.45177 -3.08469,-3.08725 z m 52.011,0 v 0.88817 h 60.40079 v -0.88817 z m 106.55381,0 c -4.24952,2.53516 -8.11569,5.2037 -11.51713,8.01568 h 1.17526 c 3.12276,-2.48073 6.55134,-4.86617 10.34187,-7.12751 h 46.66154 c 0.67985,3.30493 1.1358,5.50288 1.47558,7.12751 h 0.18386 c -0.33085,-1.57395 -0.89487,-4.29892 -1.65944,-8.01568 z m 69.15618,0 v 0.88817 h 59.9004 v -0.88817 z m 74.46854,0 v 0.88817 h 22.14312 v -0.88817 z m 36.71125,0 v 0.88817 h 59.9004 v -0.88817 z m -367.55755,34.94347 0.83654,0.88816 h 40.55615 l -0.19026,-0.20049 0.65268,-0.68767 z m 86.81411,0 v 0.88816 h 58.90303 v -0.88816 z m 76.74781,0 c -0.8508,3.46056 -1.23966,7.00516 -1.13942,10.6213 -0.0171,-3.30788 0.35854,-6.55698 1.13942,-9.73314 h 34.58428 c 0.13805,-0.29764 0.23413,-0.5383 0.40526,-0.88816 z m 98.96219,0 v 0.88816 h 55.90663 v -0.88816 z m 70.3037,0 v 0.88816 h 30.47278 v -0.88816 z m 44.86856,0 v 0.88816 h 55.90793 v -0.88816 z m -336.07248,1.13175 -0.42146,0.44408 2.2379,2.35906 c 1.06434,1.1218 5.31255,5.63547 9.44006,10.02492 h 0.83655 c -4.49671,-4.78322 -9.11797,-9.6919 -10.27661,-10.9131 z m -39.94013,1.54427 -11.27953,11.28379 h 0.88773 l 10.82265,-10.82649 z m 195.20911,5.7607 c -8.3e-4,0.21673 -0.01,0.34714 -0.01,0.58486 0,2.47817 0.12713,3.73284 0.44239,4.93823 h 0.20092 c -0.52627,-1.44716 -0.6251,-2.7416 -0.63349,-5.52309 z m -205.05401,7.51186 -3.35259,3.35388 -2.48619,2.4866 h 0.88817 l 1.59802,-1.59845 3.35259,-3.35386 h 67.19128 c 1.69753,1.79981 3.11544,3.26658 4.7305,4.95231 h 0.84849 c -2.02986,-2.1258 -3.577,-3.71786 -5.57899,-5.84048 z m 98.39822,0 v 0.88817 h 58.90304 v -0.88817 z m 76.11219,0 c 0.0452,0.30632 0.12613,0.58466 0.17491,0.88817 h 35.28644 c 0.055,0.11315 0.0808,0.1844 0.13992,0.30458 0.8796,1.78766 2.14576,3.28723 3.62177,4.64773 h 0.90523 c -1.93116,-1.5558 -3.46096,-3.36933 -4.527,-5.53589 -0.0591,-0.12019 -0.085,-0.19144 -0.13992,-0.30459 z m 99.59781,0 v 0.88817 h 31.44712 v -0.88817 z m 139.63181,0 v 0.88817 h 31.44839 v -0.88817 z m -439.22594,31.96969 c 0.4723,0.46999 0.68382,0.66705 0.9176,0.88817 h 16.44215 c 0.24163,-0.28665 0.46339,-0.54853 0.74909,-0.88817 z m 63.77258,0 0.77809,0.88817 h 15.25409 l 0.88519,-0.88817 z m 43.43776,0 v 0.88817 h 31.94751 v -0.88817 z m 96.44828,0 c 0.52266,0.31322 1.08418,0.59228 1.62659,0.88817 h 61.16142 v -0.88817 z m 79.26172,0 v 0.88817 h 60.39952 v -0.88817 z m 74.96765,0 v 0.88817 h 21.1449 v -0.88817 z m 35.71303,0 v 0.88817 h 60.39952 v -0.88817 z" /><path
       id="path324"
       style="opacity:1;fill:#d948bb;fill-opacity:1;stroke:none;stroke-width:0.499999;stroke-linecap:round;stroke-linejoin:round;stroke-dasharray:none;stroke-opacity:1"
       d="m 135.86706,147.2556 -4.23137,4.10084 h 0.8728 l 3.35857,-3.2549 h 23.7612 c 0.89942,1.10451 1.74243,2.14059 2.64913,3.2549 h 0.68852 c -1.23047,-1.5123 -2.20447,-2.70927 -3.33765,-4.10084 z m 58.87529,0 c -1.04673,1.28222 -2.05128,2.51052 -3.34491,4.10084 h 0.6898 c 0.94334,-1.15781 1.82428,-2.23715 2.65511,-3.2549 h 21.98828 l 3.25234,3.2549 h 0.84551 l -4.09785,-4.10084 z m 46.33434,0 v 0.84594 h 60.40079 v -0.84594 z m 120.06784,0 c -0.68557,1.27888 -3.36063,0.92862 -3.46308,0.97434 -0.6489,0.75256 -4.13781,2.49254 -4.9634,3.1265 h 1.41885 c 1.35803,-0.78476 3.07633,-1.73753 3.54455,-2.28056 0.10245,-0.0457 2.77751,0.30453 3.46308,-0.97434 h 31.67022 c 0.31766,1.50768 0.41896,1.88697 0.70601,3.2549 h 0.17959 c -0.0391,-0.19089 -0.0387,-0.1858 -0.0781,-0.37796 -0.41304,-2.01636 -0.44422,-1.99843 -0.80754,-3.72288 z m 55.64215,0 v 0.84594 h 59.9004 v -0.84594 z m 74.46853,0 v 0.84594 h 22.14314 v -0.84594 z m 36.71126,0 v 0.84594 h 59.9004 v -0.84594 z m -408.664,30.01377 c 0.34066,0.36128 0.5572,0.58778 0.80285,0.84594 h 62.84474 c 0.30284,-0.31457 0.50716,-0.52717 0.81394,-0.84594 z m 98.02197,0 v 0.84594 h 31.94751 v -0.84594 z m 81.73383,0 c -1.04378,1.72544 -1.97099,3.47723 -2.7511,5.26074 h 0.44238 c 0.6937,-1.48827 1.43278,-2.96682 2.30872,-4.4148 h 39.98536 c 0.39873,-0.27815 0.74789,-0.57581 1.16673,-0.84594 z m 93.97618,0 v 0.84594 h 31.44711 v -0.84594 z m 139.63179,0 v 0.84594 h 31.4484 v -0.84594 z m -108.18468,3.06762 v 0.84594 h 12.2304 12.22912 v -0.84594 h -12.22912 z m 38.85659,0 v 0.84594 h 30.47278 v -0.84594 z m 44.86856,0 v 0.84594 h 12.23041 12.22912 v -0.84594 h -12.22912 z m -398.62841,38.1813 -1.7806,1.78102 h 0.84593 l 0.93467,-0.93508 h 37.54611 c 0.24428,-0.29412 0.4971,-0.59899 0.70473,-0.84594 z m 52.01698,0 c 0.22185,0.2485 0.49004,0.55264 0.74908,0.84594 h 40.64615 l 0.9176,0.93508 h 0.83016 l -1.74776,-1.78102 z m 59.78862,0 v 0.84594 h 31.9475 v -0.84594 z m 79.87729,0 c 0.12981,0.29028 0.27822,0.5655 0.4202,0.84594 h 78.93878 v -0.84594 z m 95.83271,0 v 0.84594 h 31.44711 v -0.84594 z m 139.6318,0 v 0.84594 h 31.44839 v -0.84594 z m -108.18469,1.25334 v 0.52768 h 28.9524 v -0.52768 h -14.47556 z m 43.52054,0 v 0.52768 h 21.1449 v -0.52768 z m 35.71303,0 v 0.52768 h 28.95112 v -0.52768 h -14.47556 z m -394.22983,1.86377 -3.88028,3.88114 0.42275,0.42275 3.45753,-3.45795 h 38.06527 c 0.22681,-0.27118 0.47161,-0.56668 0.70474,-0.84594 z m 57.89371,0 c 0.24921,0.28104 0.50751,0.57406 0.7491,0.84594 h 40.94433 l 1.66627,1.69783 0.41807,-0.41976 -2.08434,-2.12401 z m 57.02816,0 v 0.84594 h 31.9475 v -0.84594 z m 81.43435,0 c 0.16129,0.29376 0.35883,0.55769 0.52685,0.84594 h 77.27507 v -0.84594 z m 94.27564,0 v 0.84594 h 60.39951 v -0.84594 z m 74.96765,0 v 0.84594 h 21.1449 v -0.84594 z m 35.71303,0 v 0.84594 h 60.39951 v -0.84594 z" /></g></svg>
