<?xml version="1.0" encoding="UTF-8"?>
<!DOCTYPE svg PUBLIC "-//W3C//DTD SVG 1.1//EN" "http://www.w3.org/Graphics/SVG/1.1/DTD/svg11.dtd">
<svg version="1.2" width="677.33mm" height="381mm" viewBox="0 0 67733 38100" preserveAspectRatio="xMidYMid" fill-rule="evenodd" stroke-width="28.222" stroke-linejoin="round" xmlns="http://www.w3.org/2000/svg" xmlns:ooo="http://xml.openoffice.org/svg/export" xmlns:xlink="http://www.w3.org/1999/xlink" xmlns:presentation="http://sun.com/xmlns/staroffice/presentation" xmlns:smil="http://www.w3.org/2001/SMIL20/" xmlns:anim="urn:oasis:names:tc:opendocument:xmlns:animation:1.0" xmlns:svg="urn:oasis:names:tc:opendocument:xmlns:svg-compatible:1.0" xml:space="preserve">
 <defs class="ClipPathGroup">
  <clipPath id="presentation_clip_path" clipPathUnits="userSpaceOnUse">
   <rect x="0" y="0" width="67733" height="38100"/>
  </clipPath>
  <clipPath id="presentation_clip_path_shrink" clipPathUnits="userSpaceOnUse">
   <rect x="67" y="38" width="67598" height="38024"/>
  </clipPath>
 </defs>
 <defs class="TextShapeIndex">
  <g ooo:slide="id1" ooo:id-list="id3 id4 id5 id6 id7 id8 id9 id10"/>
 </defs>
 <defs class="EmbeddedBulletChars">
  <g id="bullet-char-template-57356" transform="scale(0.00048828125,-0.00048828125)">
   <path d="M 580,1141 L 1163,571 580,0 -4,571 580,1141 Z"/>
  </g>
  <g id="bullet-char-template-57354" transform="scale(0.00048828125,-0.00048828125)">
   <path d="M 8,1128 L 1137,1128 1137,0 8,0 8,1128 Z"/>
  </g>
  <g id="bullet-char-template-10146" transform="scale(0.00048828125,-0.00048828125)">
   <path d="M 174,0 L 602,739 174,1481 1456,739 174,0 Z M 1358,739 L 309,1346 659,739 1358,739 Z"/>
  </g>
  <g id="bullet-char-template-10132" transform="scale(0.00048828125,-0.00048828125)">
   <path d="M 2015,739 L 1276,0 717,0 1260,543 174,543 174,936 1260,936 717,1481 1274,1481 2015,739 Z"/>
  </g>
  <g id="bullet-char-template-10007" transform="scale(0.00048828125,-0.00048828125)">
   <path d="M 0,-2 C -7,14 -16,27 -25,37 L 356,567 C 262,823 215,952 215,954 215,979 228,992 255,992 264,992 276,990 289,987 310,991 331,999 354,1012 L 381,999 492,748 772,1049 836,1024 860,1049 C 881,1039 901,1025 922,1006 886,937 835,863 770,784 769,783 710,716 594,584 L 774,223 C 774,196 753,168 711,139 L 727,119 C 717,90 699,76 672,76 641,76 570,178 457,381 L 164,-76 C 142,-110 111,-127 72,-127 30,-127 9,-110 8,-76 1,-67 -2,-52 -2,-32 -2,-23 -1,-13 0,-2 Z"/>
  </g>
  <g id="bullet-char-template-10004" transform="scale(0.00048828125,-0.00048828125)">
   <path d="M 285,-33 C 182,-33 111,30 74,156 52,228 41,333 41,471 41,549 55,616 82,672 116,743 169,778 240,778 293,778 328,747 346,684 L 369,508 C 377,444 397,411 428,410 L 1163,1116 C 1174,1127 1196,1133 1229,1133 1271,1133 1292,1118 1292,1087 L 1292,965 C 1292,929 1282,901 1262,881 L 442,47 C 390,-6 338,-33 285,-33 Z"/>
  </g>
  <g id="bullet-char-template-9679" transform="scale(0.00048828125,-0.00048828125)">
   <path d="M 813,0 C 632,0 489,54 383,161 276,268 223,411 223,592 223,773 276,916 383,1023 489,1130 632,1184 813,1184 992,1184 1136,1130 1245,1023 1353,916 1407,772 1407,592 1407,412 1353,268 1245,161 1136,54 992,0 813,0 Z"/>
  </g>
  <g id="bullet-char-template-8226" transform="scale(0.00048828125,-0.00048828125)">
   <path d="M 346,457 C 273,457 209,483 155,535 101,586 74,649 74,723 74,796 101,859 155,911 209,963 273,989 346,989 419,989 480,963 531,910 582,859 608,796 608,723 608,648 583,586 532,535 482,483 420,457 346,457 Z"/>
  </g>
  <g id="bullet-char-template-8211" transform="scale(0.00048828125,-0.00048828125)">
   <path d="M -4,459 L 1135,459 1135,606 -4,606 -4,459 Z"/>
  </g>
  <g id="bullet-char-template-61548" transform="scale(0.00048828125,-0.00048828125)">
   <path d="M 173,740 C 173,903 231,1043 346,1159 462,1274 601,1332 765,1332 928,1332 1067,1274 1183,1159 1299,1043 1357,903 1357,740 1357,577 1299,437 1183,322 1067,206 928,148 765,148 601,148 462,206 346,322 231,437 173,577 173,740 Z"/>
  </g>
 </defs>
 <g>
  <g id="id2" class="Master_Slide">
   <g id="bg-id2" class="Background"/>
   <g id="bo-id2" class="BackgroundObjects"/>
  </g>
 </g>
 <g class="SlideGroup">
  <g>
   <g id="container-id1">
    <g id="id1" class="Slide" clip-path="url(#presentation_clip_path)">
     <g class="Page">
      <g class="com.sun.star.drawing.CustomShape">
       <g id="id3">
        <rect class="BoundingBox" stroke="none" fill="none" x="-2" y="-1" width="33904" height="38103"/>
        <path fill="rgb(97,117,127)" stroke="none" d="M 16950,38100 L -1,38100 -1,0 33900,0 33900,38100 16950,38100 Z"/>
        <path fill="none" stroke="rgb(97,117,127)" d="M 16950,38100 L -1,38100 -1,0 33900,0 33900,38100 16950,38100 Z"/>
       </g>
      </g>
      <g class="Group">
       <g class="com.sun.star.drawing.ClosedBezierShape">
        <g id="id4">
         <rect class="BoundingBox" stroke="none" fill="none" x="-4802" y="16195" width="10952" height="5712"/>
         <path fill="rgb(38,55,66)" stroke="none" d="M -4797,16196 C -4855,16228 -4329,16571 -3346,16976 -2363,17381 -1005,18407 -1111,18573 -1431,19023 -1619,19560 -1489,20482 -1466,20644 -1970,20926 -1933,21171 -1902,21357 -1370,20986 -1311,21059 -1276,21191 -1596,21856 -1467,21904 -1372,21932 -539,21112 -490,21126 883,21542 2671,21228 2706,21215 2702,21207 3992,21821 4104,21748 4387,21442 3568,21010 3705,20837 3765,20747 4702,21176 4748,21059 4816,20856 4313,20430 4238,20304 4172,20188 4158,20000 4326,19882 4495,19765 6219,19105 6146,18595 6021,17667 3960,17607 3927,17529 3911,17492 4017,16202 3416,16440 3046,16578 3348,17400 3372,17507 3394,17604 3207,17594 3172,17551 3093,17455 2834,16598 2528,16751 2099,16988 2503,17727 2417,17751 2258,17840 2267,18057 2140,18234 1930,18535 358,18093 -150,18062 -522,18040 -878,18345 -912,18306 -1365,17852 -2303,17062 -3330,16799 -3906,16643 -4762,16190 -4797,16196 Z M 4189,17932 C 4288,17932 4367,18023 4367,18134 4367,18246 4288,18337 4189,18337 4091,18337 4011,18246 4011,18134 4011,18023 4091,17932 4189,17932 Z M 3790,18055 C 3865,18381 3984,18486 4338,18475 3887,18889 3613,18180 3790,18055 Z M 4765,18909 C 4783,18909 4797,18914 4807,18923 4984,18987 4043,19325 4037,19277 4027,19243 4586,18902 4765,18909 Z M 4860,19125 C 4870,19124 4879,19125 4886,19129 5053,19296 4355,19665 4363,19652 4306,19618 4714,19136 4860,19125 Z"/>
        </g>
       </g>
       <g class="com.sun.star.drawing.ClosedBezierShape">
        <g id="id5">
         <rect class="BoundingBox" stroke="none" fill="none" x="5980" y="17167" width="422" height="737"/>
         <path fill="rgb(38,55,66)" stroke="none" d="M 6399,17170 C 6342,17123 5895,17828 5994,17901 6054,17945 6424,17195 6399,17170 Z"/>
        </g>
       </g>
       <g class="com.sun.star.drawing.ClosedBezierShape">
        <g id="id6">
         <rect class="BoundingBox" stroke="none" fill="none" x="5759" y="17069" width="144" height="766"/>
         <path fill="rgb(38,55,66)" stroke="none" d="M 5886,17071 C 5857,17039 5708,17798 5777,17832 5836,17876 5940,17111 5886,17071 Z"/>
        </g>
       </g>
      </g>
      <g class="com.sun.star.drawing.CustomShape">
       <g id="id7">
        <rect class="BoundingBox" stroke="none" fill="none" x="33899" y="-1" width="33904" height="38103"/>
        <path fill="rgb(38,55,66)" stroke="none" d="M 50851,38100 L 33900,38100 33900,0 67801,0 67801,38100 50851,38100 Z"/>
        <path fill="none" stroke="rgb(38,55,66)" d="M 50851,38100 L 33900,38100 33900,0 67801,0 67801,38100 50851,38100 Z"/>
       </g>
      </g>
      <g class="Group">
       <g class="com.sun.star.drawing.ClosedBezierShape">
        <g id="id8">
         <rect class="BoundingBox" stroke="none" fill="none" x="61198" y="16195" width="10952" height="5712"/>
         <path fill="rgb(97,117,127)" stroke="none" d="M 61203,16196 C 61145,16228 61671,16571 62654,16976 63637,17381 64995,18407 64889,18573 64569,19023 64381,19560 64511,20482 64534,20644 64030,20926 64067,21171 64098,21357 64630,20986 64689,21059 64724,21191 64404,21856 64533,21904 64628,21932 65461,21112 65510,21126 66883,21542 68671,21228 68706,21215 68702,21207 69992,21821 70104,21748 70387,21442 69568,21010 69705,20837 69765,20747 70702,21176 70748,21059 70816,20856 70313,20430 70238,20304 70172,20188 70158,20000 70326,19882 70495,19765 72219,19105 72146,18595 72021,17667 69960,17607 69927,17529 69911,17492 70017,16202 69416,16440 69046,16578 69348,17400 69372,17507 69394,17604 69207,17594 69172,17551 69093,17455 68834,16598 68528,16751 68099,16988 68503,17727 68417,17751 68258,17840 68267,18057 68140,18234 67930,18535 66358,18093 65850,18062 65478,18040 65122,18345 65088,18306 64635,17852 63697,17062 62670,16799 62094,16643 61238,16190 61203,16196 Z M 70189,17932 C 70288,17932 70367,18023 70367,18134 70367,18246 70288,18337 70189,18337 70091,18337 70011,18246 70011,18134 70011,18023 70091,17932 70189,17932 Z M 69790,18055 C 69865,18381 69984,18486 70338,18475 69887,18889 69613,18180 69790,18055 Z M 70765,18909 C 70783,18909 70797,18914 70807,18923 70984,18987 70043,19325 70037,19277 70027,19243 70586,18902 70765,18909 Z M 70860,19125 C 70870,19124 70879,19125 70886,19129 71053,19296 70355,19665 70363,19652 70306,19618 70714,19136 70860,19125 Z"/>
        </g>
       </g>
       <g class="com.sun.star.drawing.ClosedBezierShape">
        <g id="id9">
         <rect class="BoundingBox" stroke="none" fill="none" x="71980" y="17167" width="422" height="737"/>
         <path fill="rgb(97,117,127)" stroke="none" d="M 72399,17170 C 72342,17123 71895,17828 71994,17901 72054,17945 72424,17195 72399,17170 Z"/>
        </g>
       </g>
       <g class="com.sun.star.drawing.ClosedBezierShape">
        <g id="id10">
         <rect class="BoundingBox" stroke="none" fill="none" x="71759" y="17069" width="144" height="766"/>
         <path fill="rgb(97,117,127)" stroke="none" d="M 71886,17071 C 71857,17039 71708,17798 71777,17832 71836,17876 71940,17111 71886,17071 Z"/>
        </g>
       </g>
      </g>
     </g>
    </g>
   </g>
  </g>
 </g>
</svg>