<?xml version="1.0" encoding="UTF-8"?>
<!DOCTYPE svg PUBLIC "-//W3C//DTD SVG 1.1//EN" "http://www.w3.org/Graphics/SVG/1.1/DTD/svg11.dtd">
<svg version="1.2" width="677.33mm" height="381mm" viewBox="0 0 67733 38100" preserveAspectRatio="xMidYMid" fill-rule="evenodd" stroke-width="28.222" stroke-linejoin="round" xmlns="http://www.w3.org/2000/svg" xmlns:ooo="http://xml.openoffice.org/svg/export" xmlns:xlink="http://www.w3.org/1999/xlink" xmlns:presentation="http://sun.com/xmlns/staroffice/presentation" xmlns:smil="http://www.w3.org/2001/SMIL20/" xmlns:anim="urn:oasis:names:tc:opendocument:xmlns:animation:1.0" xmlns:svg="urn:oasis:names:tc:opendocument:xmlns:svg-compatible:1.0" xml:space="preserve">
 <defs class="ClipPathGroup">
  <clipPath id="presentation_clip_path" clipPathUnits="userSpaceOnUse">
   <rect x="0" y="0" width="67733" height="38100"/>
  </clipPath>
  <clipPath id="presentation_clip_path_shrink" clipPathUnits="userSpaceOnUse">
   <rect x="67" y="38" width="67598" height="38024"/>
  </clipPath>
 </defs>
 <defs class="TextShapeIndex">
  <g ooo:slide="id1" ooo:id-list="id3 id4 id5 id6 id7"/>
 </defs>
 <defs class="EmbeddedBulletChars">
  <g id="bullet-char-template-57356" transform="scale(0.00048828125,-0.00048828125)">
   <path d="M 580,1141 L 1163,571 580,0 -4,571 580,1141 Z"/>
  </g>
  <g id="bullet-char-template-57354" transform="scale(0.00048828125,-0.00048828125)">
   <path d="M 8,1128 L 1137,1128 1137,0 8,0 8,1128 Z"/>
  </g>
  <g id="bullet-char-template-10146" transform="scale(0.00048828125,-0.00048828125)">
   <path d="M 174,0 L 602,739 174,1481 1456,739 174,0 Z M 1358,739 L 309,1346 659,739 1358,739 Z"/>
  </g>
  <g id="bullet-char-template-10132" transform="scale(0.00048828125,-0.00048828125)">
   <path d="M 2015,739 L 1276,0 717,0 1260,543 174,543 174,936 1260,936 717,1481 1274,1481 2015,739 Z"/>
  </g>
  <g id="bullet-char-template-10007" transform="scale(0.00048828125,-0.00048828125)">
   <path d="M 0,-2 C -7,14 -16,27 -25,37 L 356,567 C 262,823 215,952 215,954 215,979 228,992 255,992 264,992 276,990 289,987 310,991 331,999 354,1012 L 381,999 492,748 772,1049 836,1024 860,1049 C 881,1039 901,1025 922,1006 886,937 835,863 770,784 769,783 710,716 594,584 L 774,223 C 774,196 753,168 711,139 L 727,119 C 717,90 699,76 672,76 641,76 570,178 457,381 L 164,-76 C 142,-110 111,-127 72,-127 30,-127 9,-110 8,-76 1,-67 -2,-52 -2,-32 -2,-23 -1,-13 0,-2 Z"/>
  </g>
  <g id="bullet-char-template-10004" transform="scale(0.00048828125,-0.00048828125)">
   <path d="M 285,-33 C 182,-33 111,30 74,156 52,228 41,333 41,471 41,549 55,616 82,672 116,743 169,778 240,778 293,778 328,747 346,684 L 369,508 C 377,444 397,411 428,410 L 1163,1116 C 1174,1127 1196,1133 1229,1133 1271,1133 1292,1118 1292,1087 L 1292,965 C 1292,929 1282,901 1262,881 L 442,47 C 390,-6 338,-33 285,-33 Z"/>
  </g>
  <g id="bullet-char-template-9679" transform="scale(0.00048828125,-0.00048828125)">
   <path d="M 813,0 C 632,0 489,54 383,161 276,268 223,411 223,592 223,773 276,916 383,1023 489,1130 632,1184 813,1184 992,1184 1136,1130 1245,1023 1353,916 1407,772 1407,592 1407,412 1353,268 1245,161 1136,54 992,0 813,0 Z"/>
  </g>
  <g id="bullet-char-template-8226" transform="scale(0.00048828125,-0.00048828125)">
   <path d="M 346,457 C 273,457 209,483 155,535 101,586 74,649 74,723 74,796 101,859 155,911 209,963 273,989 346,989 419,989 480,963 531,910 582,859 608,796 608,723 608,648 583,586 532,535 482,483 420,457 346,457 Z"/>
  </g>
  <g id="bullet-char-template-8211" transform="scale(0.00048828125,-0.00048828125)">
   <path d="M -4,459 L 1135,459 1135,606 -4,606 -4,459 Z"/>
  </g>
  <g id="bullet-char-template-61548" transform="scale(0.00048828125,-0.00048828125)">
   <path d="M 173,740 C 173,903 231,1043 346,1159 462,1274 601,1332 765,1332 928,1332 1067,1274 1183,1159 1299,1043 1357,903 1357,740 1357,577 1299,437 1183,322 1067,206 928,148 765,148 601,148 462,206 346,322 231,437 173,577 173,740 Z"/>
  </g>
 </defs>
 <g>
  <g id="id2" class="Master_Slide">
   <g id="bg-id2" class="Background"/>
   <g id="bo-id2" class="BackgroundObjects"/>
  </g>
 </g>
 <g class="SlideGroup">
  <g>
   <g id="container-id1">
    <g id="id1" class="Slide" clip-path="url(#presentation_clip_path)">
     <g class="Page">
      <g class="com.sun.star.drawing.CustomShape">
       <g id="id3">
        <rect class="BoundingBox" stroke="none" fill="none" x="-2" y="-1" width="33904" height="38103"/>
        <path fill="rgb(97,117,127)" stroke="none" d="M 16950,38100 L -1,38100 -1,0 33900,0 33900,38100 16950,38100 Z"/>
        <path fill="none" stroke="rgb(97,117,127)" d="M 16950,38100 L -1,38100 -1,0 33900,0 33900,38100 16950,38100 Z"/>
       </g>
      </g>
      <g class="com.sun.star.drawing.CustomShape">
       <g id="id4">
        <rect class="BoundingBox" stroke="none" fill="none" x="33899" y="-1" width="33904" height="38103"/>
        <path fill="rgb(38,55,66)" stroke="none" d="M 50851,38100 L 33900,38100 33900,0 67801,0 67801,38100 50851,38100 Z"/>
        <path fill="none" stroke="rgb(38,55,66)" d="M 50851,38100 L 33900,38100 33900,0 67801,0 67801,38100 50851,38100 Z"/>
       </g>
      </g>
      <g class="Group">
       <g class="com.sun.star.drawing.PolyPolygonShape">
        <g id="id5">
         <rect class="BoundingBox" stroke="none" fill="none" x="28411" y="16195" width="10951" height="5711"/>
         <defs>
          <clipPath id="clip_path_1" clipPathUnits="userSpaceOnUse">
           <path d="M 28415,16195 L 28413,16197 28412,16199 28411,16202 28411,16205 28412,16208 28414,16212 28421,16221 28443,16244 28479,16273 28590,16349 28750,16445 28960,16559 29217,16687 29866,16975 30249,17153 30645,17372 31033,17615 31392,17863 31700,18101 31935,18309 32019,18398 32076,18472 32094,18504 32104,18531 32107,18543 32107,18554 32105,18564 32101,18572 31988,18745 31889,18931 31846,19029 31807,19131 31773,19238 31744,19350 31720,19468 31701,19591 31683,19858 31689,20154 31723,20482 31724,20498 31722,20514 31717,20531 31709,20548 31688,20585 31658,20624 31583,20707 31496,20795 31410,20888 31371,20935 31336,20983 31309,21030 31289,21078 31282,21101 31278,21125 31277,21148 31279,21171 31284,21187 31287,21194 31291,21200 31295,21205 31300,21209 31313,21217 31327,21221 31343,21223 31361,21224 31381,21222 31425,21213 31474,21198 31580,21157 31784,21072 31825,21058 31859,21050 31873,21049 31885,21050 31890,21052 31894,21053 31898,21056 31901,21059 31904,21073 31904,21090 31899,21131 31889,21182 31874,21240 31788,21513 31747,21650 31731,21713 31720,21770 31715,21820 31715,21841 31716,21859 31720,21875 31726,21888 31730,21893 31735,21898 31740,21901 31745,21904 31750,21905 31756,21904 31771,21900 31790,21891 31813,21878 31867,21841 31931,21792 32251,21520 32562,21246 32670,21157 32704,21133 32715,21127 32719,21126 32721,21126 32722,21126 32984,21196 33253,21250 33797,21317 34328,21340 34823,21331 35255,21302 35598,21265 35828,21232 35893,21221 35911,21217 35919,21215 35920,21215 35923,21216 35933,21220 35974,21239 36120,21305 36575,21506 36825,21609 37051,21694 37146,21725 37225,21746 37257,21751 37283,21754 37303,21753 37311,21751 37317,21748 37341,21719 37358,21689 37370,21659 37376,21628 37377,21597 37374,21565 37366,21533 37355,21501 37323,21436 37279,21371 37228,21306 37173,21243 37059,21121 36963,21009 36929,20959 36916,20936 36908,20913 36903,20892 36903,20872 36905,20863 36908,20854 36913,20845 36918,20837 36922,20833 36926,20830 36932,20828 36939,20826 36957,20824 36978,20825 37033,20834 37100,20850 37445,20958 37627,21016 37787,21061 37853,21074 37906,21079 37926,21078 37943,21075 37949,21072 37954,21068 37959,21064 37961,21059 37966,21039 37968,21018 37966,20996 37962,20973 37946,20925 37921,20873 37888,20819 37850,20764 37760,20653 37572,20447 37498,20364 37470,20331 37451,20304 37440,20281 37429,20257 37421,20232 37414,20206 37409,20178 37406,20151 37405,20122 37408,20094 37412,20065 37420,20037 37431,20009 37445,19981 37463,19955 37485,19929 37510,19905 37539,19882 37588,19854 37669,19814 37905,19703 38209,19558 38540,19386 38860,19195 39004,19096 39130,18994 39233,18893 39275,18842 39309,18791 39335,18741 39353,18691 39361,18642 39359,18594 39342,18510 39314,18430 39276,18355 39229,18285 39174,18219 39111,18158 38965,18047 38796,17951 38611,17869 38416,17800 38215,17742 37824,17655 37483,17597 37240,17558 37169,17543 37149,17535 37143,17532 37141,17530 37140,17528 37140,17525 37139,17521 37139,17507 37138,17461 37138,17309 37130,17104 37104,16880 37082,16771 37051,16669 37011,16579 36987,16539 36960,16504 36931,16473 36898,16448 36862,16429 36823,16416 36780,16410 36734,16412 36684,16421 36629,16439 36597,16454 36568,16473 36542,16495 36520,16520 36501,16548 36486,16580 36473,16613 36463,16649 36450,16726 36446,16809 36450,16896 36460,16984 36491,17158 36530,17314 36585,17506 36587,17515 36587,17523 36586,17531 36584,17538 36582,17544 36578,17550 36574,17555 36568,17560 36562,17564 36556,17568 36541,17574 36524,17578 36507,17581 36488,17581 36470,17581 36452,17578 36434,17575 36419,17570 36405,17564 36399,17561 36394,17558 36389,17554 36385,17550 36377,17539 36368,17524 36348,17482 36294,17363 36228,17214 36148,17057 36105,16981 36059,16911 36010,16848 35960,16797 35934,16776 35908,16759 35881,16746 35854,16737 35826,16732 35798,16733 35770,16739 35741,16750 35704,16774 35670,16800 35642,16829 35617,16860 35596,16893 35579,16928 35566,16965 35555,17003 35543,17082 35540,17164 35546,17247 35557,17330 35590,17486 35624,17617 35636,17669 35642,17710 35643,17725 35641,17737 35639,17742 35637,17746 35634,17748 35630,17750 35602,17768 35578,17789 35557,17812 35538,17838 35521,17866 35506,17895 35480,17959 35428,18095 35395,18165 35376,18199 35353,18233 35330,18259 35299,18281 35260,18299 35215,18313 35107,18332 34978,18337 34831,18333 34670,18319 34320,18272 33605,18143 33298,18090 33062,18061 32993,18061 32924,18067 32857,18079 32791,18095 32728,18116 32667,18139 32555,18189 32381,18280 32351,18295 32328,18305 32318,18307 32310,18308 32307,18308 32304,18308 32302,18307 32300,18305 32108,18121 31876,17915 31607,17698 31307,17480 30979,17271 30630,17081 30262,16920 30074,16853 29882,16798 29655,16727 29415,16637 28946,16436 28578,16265 28465,16213 28431,16199 28421,16196 28418,16195 28415,16195 Z M 37402,17931 L 37421,17932 37438,17935 37456,17940 37472,17947 37487,17955 37502,17966 37516,17977 37528,17990 37540,18005 37550,18020 37559,18037 37566,18055 37572,18073 37577,18092 37579,18112 37580,18133 37579,18154 37577,18174 37572,18193 37566,18212 37559,18230 37550,18246 37540,18262 37528,18277 37516,18290 37502,18301 37487,18311 37472,18320 37456,18327 37438,18332 37421,18335 37402,18336 37384,18335 37367,18332 37350,18327 37333,18320 37318,18311 37303,18301 37289,18290 37277,18277 37265,18262 37255,18246 37246,18230 37238,18212 37232,18193 37228,18174 37225,18154 37224,18133 37225,18112 37228,18092 37232,18073 37238,18055 37246,18037 37255,18020 37265,18005 37277,17990 37289,17977 37303,17966 37318,17955 37333,17947 37350,17940 37367,17935 37384,17932 37402,17931 Z M 37003,18054 L 37034,18166 37051,18215 37071,18259 37092,18298 37116,18333 37143,18364 37173,18390 37206,18413 37242,18432 37282,18447 37327,18459 37376,18467 37429,18472 37551,18474 37510,18510 37469,18539 37429,18562 37391,18580 37354,18592 37318,18600 37284,18602 37251,18601 37219,18595 37189,18585 37160,18572 37133,18556 37108,18537 37084,18515 37042,18466 37007,18410 36980,18351 36961,18290 36951,18231 36949,18202 36950,18175 36952,18149 36958,18125 36965,18103 36975,18084 36988,18067 37003,18054 Z M 37978,18908 L 37985,18908 37991,18909 37997,18910 38002,18912 38007,18914 38010,18915 38012,18916 38014,18917 38016,18919 38018,18920 38020,18922 38028,18925 38034,18929 38038,18933 38041,18937 38042,18942 38042,18947 38041,18952 38038,18958 38029,18970 38016,18983 37976,19011 37921,19042 37856,19075 37704,19142 37543,19203 37398,19251 37339,19268 37292,19278 37275,19281 37262,19282 37257,19281 37254,19280 37252,19280 37251,19279 37251,19278 37250,19277 37250,19276 37250,19275 37251,19273 37255,19267 37262,19260 37271,19251 37298,19230 37335,19204 37429,19143 37543,19077 37667,19013 37788,18958 37844,18937 37895,18920 37941,18911 37960,18908 37978,18908 Z M 38073,19125 L 38077,19125 38081,19125 38084,19125 38087,19125 38091,19126 38094,19127 38097,19128 38098,19128 38099,19129 38112,19145 38121,19163 38125,19181 38124,19200 38120,19220 38112,19240 38101,19261 38087,19283 38050,19327 38005,19371 37953,19415 37897,19458 37782,19536 37678,19599 37603,19640 37583,19650 37578,19652 37576,19652 37574,19650 37572,19648 37571,19644 37571,19641 37572,19631 37575,19620 37589,19592 37609,19557 37670,19473 37749,19380 37837,19288 37926,19207 37968,19175 38008,19149 38043,19132 38059,19127 38073,19125 Z"/>
          </clipPath>
         </defs>
         <g clip-path="url(#clip_path_1)"/>
         <defs>
          <clipPath id="clip_path_2" clipPathUnits="userSpaceOnUse">
           <path d="M 28431,16199 L 28465,16213 28578,16265 28946,16436 29415,16637 29655,16727 29882,16798 30074,16853 30262,16920 30630,17081 30979,17271 31307,17480 31607,17698 31876,17915 32108,18121 32300,18305 32302,18307 32304,18308 32307,18308 32310,18308 32318,18307 32328,18305 32351,18295 32381,18280 32555,18189 32667,18139 32728,18116 32791,18095 32857,18079 32924,18067 32993,18061 33062,18061 33298,18090 33605,18143 34320,18272 34670,18319 34831,18333 34978,18337 35107,18332 35215,18313 35260,18299 35299,18281 35330,18259 35353,18233 35376,18199 35395,18165 35428,18095 35480,17959 35506,17895 35521,17866 35538,17838 35557,17812 35578,17789 35602,17768 35630,17750 35634,17748 35637,17746 35639,17742 35641,17737 35643,17725 35642,17710 35636,17669 35624,17617 35590,17486 35557,17330 35546,17247 35540,17164 35543,17082 35555,17003 35566,16965 35579,16928 35596,16893 35617,16860 35642,16829 35670,16800 35704,16774 35741,16750 35770,16739 35798,16733 35826,16732 35854,16737 35881,16746 35908,16759 35934,16776 35960,16797 36010,16848 36059,16911 36105,16981 36148,17057 36228,17214 36294,17363 36348,17482 36368,17524 36377,17539 36385,17550 36389,17554 36394,17558 36399,17561 36405,17564 36419,17570 36434,17575 36452,17578 36470,17581 36488,17581 36507,17581 36524,17578 36541,17574 36556,17568 36562,17564 36568,17560 36574,17555 36578,17550 36582,17544 36584,17538 36586,17531 36587,17523 36587,17515 36585,17506 36530,17314 36491,17158 36460,16984 36450,16896 36446,16809 36450,16726 36463,16649 36473,16613 36486,16580 36501,16548 36520,16520 36542,16495 36568,16473 36597,16454 36629,16439 36684,16421 36734,16412 36780,16410 36823,16416 36862,16429 36898,16448 36931,16473 36960,16504 36987,16539 37011,16579 37051,16669 37082,16771 37104,16880 37130,17104 37138,17309 37138,17461 37139,17507 37139,17521 37140,17525 37140,17528 37141,17530 37143,17532 37149,17535 37169,17543 37240,17558 37483,17597 37824,17655 38215,17742 38416,17800 38611,17869 38796,17951 38965,18047 39111,18158 39174,18219 39229,18285 39276,18355 39314,18430 39342,18510 39359,18593 39359,18655 39353,18691 39335,18741 39309,18791 39275,18842 39233,18893 39130,18994 39004,19096 38860,19195 38540,19386 38209,19558 37905,19703 37669,19814 37588,19854 37539,19882 37510,19905 37485,19929 37463,19955 37445,19981 37431,20009 37420,20037 37412,20065 37408,20094 37405,20122 37406,20151 37409,20178 37414,20206 37421,20232 37429,20257 37440,20281 37451,20304 37470,20331 37498,20364 37572,20447 37760,20653 37850,20764 37888,20819 37921,20873 37946,20925 37962,20973 37966,20996 37968,21018 37966,21039 37961,21059 37959,21064 37954,21068 37949,21072 37943,21075 37926,21078 37906,21079 37853,21074 37787,21061 37627,21016 37445,20958 37100,20850 37033,20834 36978,20825 36957,20824 36939,20826 36932,20828 36926,20830 36922,20833 36918,20837 36913,20845 36908,20854 36905,20863 36903,20872 36903,20892 36908,20913 36916,20936 36929,20959 36963,21009 37059,21121 37173,21243 37228,21306 37279,21371 37323,21436 37355,21501 37366,21533 37374,21565 37377,21597 37376,21628 37370,21659 37358,21689 37341,21719 37317,21748 37311,21751 37303,21753 37283,21754 37257,21751 37225,21746 37146,21725 37051,21694 36825,21609 36575,21506 36120,21305 35974,21239 35933,21220 35923,21216 35920,21215 35919,21215 35911,21217 35893,21221 35828,21232 35598,21265 35255,21302 34823,21331 34328,21340 33797,21317 33253,21250 32984,21196 32722,21126 32721,21126 32719,21126 32715,21127 32704,21133 32670,21157 32562,21246 32251,21520 31931,21792 31867,21841 31813,21878 31790,21891 31771,21900 31760,21903 31743,21903 31740,21901 31735,21898 31730,21893 31726,21888 31720,21875 31716,21859 31715,21841 31715,21820 31720,21770 31731,21713 31747,21650 31788,21513 31874,21240 31889,21182 31899,21131 31904,21090 31904,21073 31901,21059 31898,21056 31894,21053 31890,21052 31885,21050 31873,21049 31859,21050 31825,21058 31784,21072 31580,21157 31474,21198 31425,21213 31381,21222 31361,21224 31343,21223 31327,21221 31313,21217 31300,21209 31295,21205 31291,21200 31287,21194 31284,21187 31279,21171 31277,21148 31278,21125 31282,21101 31289,21078 31309,21030 31336,20983 31371,20935 31410,20888 31496,20795 31583,20707 31658,20624 31688,20585 31709,20548 31717,20531 31722,20514 31724,20498 31723,20482 31689,20154 31683,19858 31701,19591 31720,19468 31744,19350 31773,19238 31807,19131 31846,19029 31889,18931 31988,18745 32101,18572 32105,18564 32107,18554 32107,18543 32104,18531 32094,18504 32076,18472 32019,18398 31935,18309 31700,18101 31392,17863 31033,17615 30645,17372 30249,17153 29866,16975 29217,16687 28960,16559 28750,16445 28590,16349 28479,16273 28443,16244 28421,16221 28414,16212 28413,16210 28413,16197 28424,16197 28431,16199 Z M 37402,17931 L 37384,17932 37367,17935 37350,17940 37333,17947 37318,17955 37303,17966 37289,17977 37277,17990 37265,18005 37255,18020 37246,18037 37238,18055 37232,18073 37228,18092 37225,18112 37224,18133 37225,18154 37228,18174 37232,18193 37238,18212 37246,18230 37255,18246 37265,18262 37277,18277 37289,18290 37303,18301 37318,18311 37333,18320 37350,18327 37367,18332 37384,18335 37402,18336 37421,18335 37438,18332 37456,18327 37472,18320 37487,18311 37502,18301 37516,18290 37528,18277 37540,18262 37550,18246 37559,18230 37566,18212 37572,18193 37577,18174 37579,18154 37580,18133 37579,18112 37577,18092 37572,18073 37566,18055 37559,18037 37550,18020 37540,18005 37528,17990 37516,17977 37502,17966 37487,17955 37472,17947 37456,17940 37438,17935 37421,17932 37402,17931 Z M 37003,18054 L 36988,18067 36975,18084 36965,18103 36958,18125 36952,18149 36950,18175 36949,18202 36951,18231 36961,18290 36980,18351 37007,18410 37042,18466 37084,18515 37108,18537 37133,18556 37160,18572 37189,18585 37219,18595 37251,18601 37284,18602 37318,18600 37354,18592 37391,18580 37429,18562 37469,18539 37510,18510 37551,18474 37429,18472 37376,18467 37327,18459 37282,18447 37242,18432 37206,18413 37173,18390 37143,18364 37116,18333 37092,18298 37071,18259 37051,18215 37034,18166 37003,18054 Z M 37978,18908 L 37960,18908 37941,18911 37895,18920 37844,18937 37788,18958 37667,19013 37543,19077 37429,19143 37335,19204 37298,19230 37271,19251 37262,19260 37255,19267 37251,19273 37250,19275 37250,19276 37250,19277 37251,19278 37251,19279 37252,19280 37254,19280 37257,19281 37262,19282 37275,19281 37292,19278 37339,19268 37398,19251 37543,19203 37704,19142 37856,19075 37921,19042 37976,19011 38016,18983 38029,18970 38038,18958 38041,18952 38042,18947 38042,18942 38041,18937 38038,18933 38034,18929 38028,18925 38020,18922 38018,18920 38016,18919 38014,18917 38012,18916 38010,18915 38007,18914 38002,18912 37997,18910 37991,18909 37985,18908 37978,18908 Z M 38073,19125 L 38059,19127 38043,19132 38008,19149 37968,19175 37926,19207 37837,19288 37749,19380 37670,19473 37609,19557 37589,19592 37575,19620 37572,19631 37571,19641 37571,19644 37572,19648 37574,19650 37576,19652 37578,19652 37583,19650 37603,19640 37678,19599 37782,19536 37897,19458 37953,19415 38005,19371 38050,19327 38087,19283 38101,19261 38112,19240 38120,19220 38124,19200 38125,19181 38121,19163 38112,19145 38099,19129 38098,19128 38097,19128 38094,19127 38091,19126 38087,19125 38084,19125 38081,19125 38077,19125 38073,19125 Z"/>
          </clipPath>
         </defs>
         <g clip-path="url(#clip_path_2)">
          <path fill="rgb(97,117,127)" stroke="none" d="M 36631,21903 L 33891,21903 33891,16197 39370,16197 39370,21903 36631,21903 36631,21903 Z"/>
          <path fill="none" stroke="rgb(97,117,127)" stroke-width="5" stroke-linejoin="round" d="M 36631,21903 L 33891,21903 33891,16197 39370,16197 39370,21903 36631,21903 36631,21903 Z"/>
          <path fill="rgb(38,55,66)" stroke="none" d="M 31152,21903 L 28413,21903 28413,16197 33891,16197 33891,21903 31152,21903 31152,21903 Z"/>
          <path fill="none" stroke="rgb(38,55,66)" stroke-width="5" stroke-linejoin="round" d="M 31152,21903 L 28413,21903 28413,16197 33891,16197 33891,21903 31152,21903 31152,21903 Z"/>
         </g>
         <g clip-path="url(#clip_path_1)"/>
        </g>
       </g>
       <g class="com.sun.star.drawing.PolyPolygonShape">
        <g id="id6">
         <rect class="BoundingBox" stroke="none" fill="none" x="39193" y="17166" width="421" height="737"/>
         <path fill="rgb(97,117,127)" stroke="none" d="M 39612,17168 L 39609,17167 39606,17166 39602,17166 39597,17168 39587,17174 39574,17183 39545,17212 39511,17252 39433,17360 39351,17489 39277,17623 39246,17688 39221,17748 39203,17801 39197,17824 39194,17845 39193,17863 39195,17878 39197,17885 39200,17891 39203,17895 39207,17899 39210,17901 39214,17901 39218,17900 39222,17899 39232,17892 39243,17881 39269,17850 39299,17807 39368,17694 39442,17560 39511,17422 39568,17299 39604,17209 39612,17181 39613,17173 39613,17170 39613,17169 39612,17168 Z"/>
        </g>
       </g>
       <g class="com.sun.star.drawing.PolyPolygonShape">
        <g id="id7">
         <rect class="BoundingBox" stroke="none" fill="none" x="38972" y="17069" width="143" height="766"/>
         <path fill="rgb(97,117,127)" stroke="none" d="M 39099,17070 L 39098,17069 39098,17069 39097,17069 39096,17069 39094,17071 39092,17073 39088,17081 39083,17092 39072,17125 39060,17171 39034,17288 39008,17426 38987,17567 38974,17693 38972,17745 38974,17787 38976,17804 38980,17816 38982,17822 38984,17826 38987,17829 38990,17831 38993,17832 38996,17833 38999,17832 39002,17830 39005,17827 39008,17823 39014,17813 39027,17781 39040,17736 39065,17620 39087,17482 39104,17340 39113,17212 39114,17159 39112,17116 39110,17099 39107,17086 39104,17076 39101,17072 39099,17070 Z"/>
        </g>
       </g>
      </g>
     </g>
    </g>
   </g>
  </g>
 </g>
</svg>